{
.appVersion = "1357";
DisplayStrings = (
"/dieresiscomb/dieresisbelowcomb ¨/dieresiscomb.case/dieresisbelowcomb.case"
);
classes = (
{
automatic = 1;

glyphs = (
{
color = 6;
glyphname = A;
layers = (
{
anchors = (
{
name = bottom;
position = "{295, 0}";
},
{
name = ogonek;
position = "{602, 0}";
},
{
name = top;
position = "{424, 704}";
}
);
layerId = "21A50CEC-A8F8-47E3-8EB4-99CD9DCFA5F3";
paths = (
{
closed = 1;
nodes = (
"120 0 OFFCURVE",
"155 12 OFFCURVE",
"177 25 CURVE",
"179 34 OFFCURVE",
"176 40 OFFCURVE",
"174 43 CURVE",
"80 51 LINE",
"90 58 OFFCURVE",
"113 78 OFFCURVE",
"134 124 CURVE SMOOTH",
"207 287 LINE",
"483 287 LINE",
"492 95 LINE",
"495 43 OFFCURVE",
"481 43 OFFCURVE",
"442 43 CURVE SMOOTH",
"428 43 LINE",
"423 39 OFFCURVE",
"418 31 OFFCURVE",
"417 25 CURVE",
"444 17 OFFCURVE",
"530 0 OFFCURVE",
"557 0 CURVE SMOOTH",
"573 0 OFFCURVE",
"605 13 OFFCURVE",
"623 25 CURVE",
"623 28 OFFCURVE",
"623 40 OFFCURVE",
"620 42 CURVE",
"570 47 LINE SMOOTH",
"551 49 OFFCURVE",
"550 54 OFFCURVE",
"549 72 CURVE SMOOTH",
"517 674 LINE",
"500 693 OFFCURVE",
"459 720 OFFCURVE",
"440 720 CURVE SMOOTH",
"421 720 OFFCURVE",
"360 690 OFFCURVE",
"335 667 CURVE",
"101 164 LINE SMOOTH",
"65 86 OFFCURVE",
"30 45 OFFCURVE",
"-1 45 CURVE SMOOTH",
"-17 45 LINE",
"-23 41 OFFCURVE",
"-29 32 OFFCURVE",
"-31 25 CURVE",
"14 12 OFFCURVE",
"83 0 OFFCURVE",
"102 0 CURVE SMOOTH"
);
},
{
closed = 1;
nodes = (
"384 672 LINE",
"412 671 OFFCURVE",
"445 655 OFFCURVE",
"467 638 CURVE",
"481 335 LINE",
"420 330 OFFCURVE",
"318 326 OFFCURVE",
"224 324 CURVE"
);
}
);
width = 679;
},
{
anchors = (
{
name = bottom;
position = "{309, 0}";
},
{
name = ogonek;
position = "{621, 0}";
},
{
name = top;
position = "{445, 704}";
}
);
layerId = "1A804BEB-C033-4C3E-8D94-4E59A38AB1F5";
paths = (
{
closed = 1;
nodes = (
"181 0 OFFCURVE",
"220 18 OFFCURVE",
"235 33 CURVE",
"237 44 OFFCURVE",
"235 52 OFFCURVE",
"232 56 CURVE",
"93 68 LINE",
"102 70 OFFCURVE",
"131 86 OFFCURVE",
"158 143 CURVE SMOOTH",
"224 287 LINE",
"489 287 LINE",
"493 118 LINE SMOOTH",
"494 64 OFFCURVE",
"470 64 OFFCURVE",
"445 64 CURVE SMOOTH",
"417 64 LINE",
"412 60 OFFCURVE",
"404 50 OFFCURVE",
"402 39 CURVE",
"428 29 OFFCURVE",
"556 0 OFFCURVE",
"580 0 CURVE SMOOTH",
"603 0 OFFCURVE",
"640 18 OFFCURVE",
"659 34 CURVE",
"661 46 OFFCURVE",
"658 53 OFFCURVE",
"656 57 CURVE",
"597 62 LINE SMOOTH",
"582 63 OFFCURVE",
"578 68 OFFCURVE",
"577 87 CURVE SMOOTH",
"558 661 LINE",
"538 686 OFFCURVE",
"489 720 OFFCURVE",
"464 720 CURVE SMOOTH",
"438 720 OFFCURVE",
"348 670 OFFCURVE",
"321 646 CURVE",
"131 240 LINE SMOOTH",
"63 94 OFFCURVE",
"21 59 OFFCURVE",
"-9 59 CURVE SMOOTH",
"-18 59 LINE",
"-23 55 OFFCURVE",
"-29 47 OFFCURVE",
"-33 34 CURVE",
"9 20 OFFCURVE",
"139 0 OFFCURVE",
"157 0 CURVE SMOOTH"
);
},
{
closed = 1;
nodes = (
"394 654 LINE",
"424 651 OFFCURVE",
"456 638 OFFCURVE",
"482 618 CURVE",
"488 353 LINE",
"452 347 OFFCURVE",
"351 341 OFFCURVE",
"249 341 CURVE"
);
}
);
width = 710;
},
{
anchors = (
{
name = bottom;
position = "{295, 0}";
},
{
name = ogonek;
position = "{638, 0}";
},
{
name = top;
position = "{452, 704}";
}
);
layerId = "BECA3017-CCCA-4A11-8E58-D2E4FEE6FE6A";
paths = (
{
closed = 1;
nodes = (
"165 0 OFFCURVE",
"223 18 OFFCURVE",
"240 35 CURVE",
"242 45 OFFCURVE",
"240 59 OFFCURVE",
"236 66 CURVE",
"111 76 LINE",
"122 78 OFFCURVE",
"147 108 OFFCURVE",
"163 142 CURVE SMOOTH",
"226 280 LINE",
"450 280 LINE",
"454 145 LINE SMOOTH",
"456 91 OFFCURVE",
"435 76 OFFCURVE",
"402 72 CURVE SMOOTH",
"383 70 LINE",
"378 64 OFFCURVE",
"370 52 OFFCURVE",
"367 35 CURVE",
"393 25 OFFCURVE",
"570 0 OFFCURVE",
"595 0 CURVE SMOOTH",
"619 0 OFFCURVE",
"669 18 OFFCURVE",
"689 35 CURVE",
"692 50 OFFCURVE",
"690 64 OFFCURVE",
"687 68 CURVE",
"627 77 LINE SMOOTH",
"612 79 OFFCURVE",
"607 80 OFFCURVE",
"606 102 CURVE SMOOTH",
"585 662 LINE",
"555 693 OFFCURVE",
"484 720 OFFCURVE",
"459 720 CURVE SMOOTH",
"433 720 OFFCURVE",
"335 670 OFFCURVE",
"309 646 CURVE",
"119 240 LINE SMOOTH",
"44 79 OFFCURVE",
"12 76 OFFCURVE",
"-11 73 CURVE SMOOTH",
"-34 70 LINE",
"-39 64 OFFCURVE",
"-46 51 OFFCURVE",
"-50 35 CURVE",
"-8 21 OFFCURVE",
"125 0 OFFCURVE",
"144 0 CURVE SMOOTH"
);
},
{
closed = 1;
nodes = (
"377 624 LINE",
"403 621 OFFCURVE",
"427 610 OFFCURVE",
"444 592 CURVE",
"449 362 LINE",
"412 356 OFFCURVE",
"348 351 OFFCURVE",
"255 351 CURVE"
);
}
);
width = 723;
},
{
anchors = (
{
name = bottom;
position = "{313, 0}";
},
{
name = ogonek;
position = "{631, 0}";
},
{
name = top;
position = "{441, 704}";
}
);
layerId = "A63AEE66-7D4A-459A-A35B-D6CC97B4CA0F";
paths = (
{
closed = 1;
nodes = (
"131 0 OFFCURVE",
"167 12 OFFCURVE",
"190 26 CURVE",
"192 35 OFFCURVE",
"189 41 OFFCURVE",
"187 44 CURVE",
"88 52 LINE",
"100 59 OFFCURVE",
"124 83 OFFCURVE",
"144 125 CURVE SMOOTH",
"219 287 LINE",
"500 287 LINE",
"511 97 LINE",
"514 45 OFFCURVE",
"502 45 OFFCURVE",
"460 45 CURVE SMOOTH",
"445 45 LINE",
"441 42 OFFCURVE",
"436 32 OFFCURVE",
"435 24 CURVE",
"463 16 OFFCURVE",
"557 0 OFFCURVE",
"585 0 CURVE SMOOTH",
"600 0 OFFCURVE",
"634 13 OFFCURVE",
"653 26 CURVE",
"653 30 OFFCURVE",
"652 41 OFFCURVE",
"649 43 CURVE",
"597 48 LINE SMOOTH",
"578 50 OFFCURVE",
"578 54 OFFCURVE",
"576 73 CURVE SMOOTH",
"538 673 LINE",
"521 692 OFFCURVE",
"470 720 OFFCURVE",
"450 720 CURVE SMOOTH",
"431 720 OFFCURVE",
"377 690 OFFCURVE",
"349 666 CURVE",
"111 171 LINE SMOOTH",
"71 87 OFFCURVE",
"34 46 OFFCURVE",
"3 46 CURVE SMOOTH",
"-12 46 LINE",
"-18 43 OFFCURVE",
"-25 33 OFFCURVE",
"-27 26 CURVE",
"18 13 OFFCURVE",
"93 0 OFFCURVE",
"113 0 CURVE SMOOTH"
);
},
{
closed = 1;
nodes = (
"399 671 LINE",
"431 669 OFFCURVE",
"459 653 OFFCURVE",
"481 637 CURVE",
"498 336 LINE",
"435 332 OFFCURVE",
"357 330 OFFCURVE",
"238 328 CURVE"
);
}
);
width = 714;
},
{
anchors = (
{
name = bottom;
position = "{310, 0}";
},
{
name = ogonek;
position = "{623, 0}";
},
{
name = top;
position = "{446, 704}";
}
);
layerId = "65812DC5-BB64-4CCF-B3BD-7266D8F2F6F4";
paths = (
{
closed = 1;
nodes = (
"181 0 OFFCURVE",
"219 17 OFFCURVE",
"235 33 CURVE",
"237 42 OFFCURVE",
"236 52 OFFCURVE",
"232 56 CURVE",
"94 68 LINE",
"103 70 OFFCURVE",
"133 87 OFFCURVE",
"159 143 CURVE SMOOTH",
"225 287 LINE",
"487 287 LINE",
"491 118 LINE SMOOTH",
"492 64 OFFCURVE",
"468 64 OFFCURVE",
"443 64 CURVE SMOOTH",
"414 64 LINE",
"408 59 OFFCURVE",
"401 50 OFFCURVE",
"399 39 CURVE",
"425 29 OFFCURVE",
"558 0 OFFCURVE",
"581 0 CURVE SMOOTH",
"604 0 OFFCURVE",
"639 17 OFFCURVE",
"659 34 CURVE",
"661 44 OFFCURVE",
"660 52 OFFCURVE",
"656 57 CURVE",
"598 62 LINE SMOOTH",
"581 63 OFFCURVE",
"578 68 OFFCURVE",
"577 87 CURVE SMOOTH",
"559 661 LINE",
"537 687 OFFCURVE",
"490 720 OFFCURVE",
"465 720 CURVE SMOOTH",
"438 720 OFFCURVE",
"349 670 OFFCURVE",
"322 646 CURVE",
"132 240 LINE SMOOTH",
"55 75 OFFCURVE",
"16 59 OFFCURVE",
"-9 59 CURVE SMOOTH",
"-18 59 LINE",
"-23 55 OFFCURVE",
"-30 44 OFFCURVE",
"-33 34 CURVE",
"9 20 OFFCURVE",
"140 0 OFFCURVE",
"158 0 CURVE SMOOTH"
);
},
{
closed = 1;
nodes = (
"395 654 LINE",
"425 651 OFFCURVE",
"454 637 OFFCURVE",
"480 618 CURVE",
"486 353 LINE",
"447 347 OFFCURVE",
"356 343 OFFCURVE",
"250 343 CURVE"
);
}
);
width = 710;
},
{
anchors = (
{
name = bottom;
position = "{316, 0}";
},
{
name = ogonek;
position = "{669, 0}";
},
{
name = top;
position = "{468, 704}";
}
);
layerId = "28047205-16CB-4036-948B-FF1CDF00A7B3";
paths = (
{
closed = 1;
nodes = (
"179 0 OFFCURVE",
"239 18 OFFCURVE",
"256 35 CURVE",
"258 45 OFFCURVE",
"256 59 OFFCURVE",
"252 67 CURVE",
"120 77 LINE",
"131 79 OFFCURVE",
"156 106 OFFCURVE",
"174 143 CURVE SMOOTH",
"239 280 LINE",
"473 280 LINE",
"478 147 LINE SMOOTH",
"480 92 OFFCURVE",
"462 77 OFFCURVE",
"425 73 CURVE SMOOTH",
"405 71 LINE",
"398 63 OFFCURVE",
"392 54 OFFCURVE",
"388 35 CURVE",
"415 25 OFFCURVE",
"599 0 OFFCURVE",
"623 0 CURVE SMOOTH",
"648 0 OFFCURVE",
"700 18 OFFCURVE",
"721 35 CURVE",
"724 55 OFFCURVE",
"720 65 OFFCURVE",
"718 69 CURVE",
"655 78 LINE SMOOTH",
"640 80 OFFCURVE",
"636 82 OFFCURVE",
"635 103 CURVE SMOOTH",
"608 662 LINE",
"577 693 OFFCURVE",
"504 720 OFFCURVE",
"478 720 CURVE SMOOTH",
"451 720 OFFCURVE",
"348 669 OFFCURVE",
"322 645 CURVE",
"129 242 LINE SMOOTH",
"51 79 OFFCURVE",
"22 78 OFFCURVE",
"-7 74 CURVE SMOOTH",
"-30 71 LINE",
"-35 65 OFFCURVE",
"-42 50 OFFCURVE",
"-46 35 CURVE",
"-2 21 OFFCURVE",
"139 0 OFFCURVE",
"157 0 CURVE SMOOTH"
);
},
{
closed = 1;
nodes = (
"394 622 LINE",
"421 619 OFFCURVE",
"446 608 OFFCURVE",
"465 590 CURVE",
"472 363 LINE",
"434 357 OFFCURVE",
"370 355 OFFCURVE",
"271 355 CURVE"
);
}
);
width = 760;
}
);
leftKerningGroup = A;
rightKerningGroup = A;
unicode = 0041;
},
{
color = 6;
glyphname = AE;
layers = (
{
anchors = (
{
name = bottom;
position = "{402, 0}";
},
{
name = top;
position = "{551, 704}";
}
);
layerId = "21A50CEC-A8F8-47E3-8EB4-99CD9DCFA5F3";
paths = (
{
closed = 1;
nodes = (
"120 0 OFFCURVE",
"155 12 OFFCURVE",
"177 25 CURVE",
"179 34 OFFCURVE",
"176 41 OFFCURVE",
"174 43 CURVE",
"79 51 LINE",
"88 57 OFFCURVE",
"111 78 OFFCURVE",
"132 124 CURVE SMOOTH",
"208 293 LINE",
"469 317 LINE",
"474 98 LINE SMOOTH",
"475 59 OFFCURVE",
"459 46 OFFCURVE",
"425 43 CURVE SMOOTH",
"412 42 LINE",
"406 38 OFFCURVE",
"402 30 OFFCURVE",
"401 24 CURVE",
"474 9 OFFCURVE",
"669 0 OFFCURVE",
"737 0 CURVE",
"757 4 OFFCURVE",
"799 23 OFFCURVE",
"813 35 CURVE",
"830 97 OFFCURVE",
"844 163 OFFCURVE",
"850 191 CURVE",
"846 195 OFFCURVE",
"836 200 OFFCURVE",
"823 200 CURVE",
"750 51 LINE",
"504 51 LINE",
"530 66 OFFCURVE",
"529 114 OFFCURVE",
"529 147 CURVE SMOOTH",
"525 327 LINE",
"741 350 LINE",
"752 367 OFFCURVE",
"756 383 OFFCURVE",
"760 394 CURVE",
"754 401 LINE",
"682 388 OFFCURVE",
"597 378 OFFCURVE",
"523 370 CURVE",
"518 608 LINE SMOOTH",
"517 663 OFFCURVE",
"526 669 OFFCURVE",
"613 669 CURVE SMOOTH",
"650 669 OFFCURVE",
"763 662 OFFCURVE",
"812 656 CURVE",
"804 515 LINE",
"808 512 OFFCURVE",
"818 508 OFFCURVE",
"833 508 CURVE",
"847 538 OFFCURVE",
"871 601 OFFCURVE",
"889 668 CURVE",
"875 683 OFFCURVE",
"850 696 OFFCURVE",
"828 704 CURVE",
"441 704 LINE SMOOTH",
"416 704 OFFCURVE",
"341 659 OFFCURVE",
"318 636 CURVE",
"98 164 LINE SMOOTH",
"62 86 OFFCURVE",
"29 45 OFFCURVE",
"-1 45 CURVE SMOOTH",
"-17 45 LINE",
"-22 41 OFFCURVE",
"-29 34 OFFCURVE",
"-31 25 CURVE",
"14 12 OFFCURVE",
"84 0 OFFCURVE",
"102 0 CURVE SMOOTH"
);
},
{
closed = 1;
nodes = (
"361 627 LINE",
"398 644 OFFCURVE",
"439 657 OFFCURVE",
"461 657 CURVE",
"467 361 LINE",
"409 353 OFFCURVE",
"308 342 OFFCURVE",
"228 334 CURVE"
);
}
);
width = 892;
},
{
anchors = (
{
name = bottom;
position = "{395, 0}";
},
{
name = top;
position = "{553, 704}";
}
);
layerId = "1A804BEB-C033-4C3E-8D94-4E59A38AB1F5";
paths = (
{
closed = 1;
nodes = (
"179 0 OFFCURVE",
"217 16 OFFCURVE",
"235 33 CURVE",
"237 44 OFFCURVE",
"233 52 OFFCURVE",
"232 56 CURVE",
"92 68 LINE",
"102 70 OFFCURVE",
"131 88 OFFCURVE",
"157 143 CURVE SMOOTH",
"223 284 LINE",
"465 309 LINE",
"468 134 LINE SMOOTH",
"469 71 OFFCURVE",
"436 66 OFFCURVE",
"406 62 CURVE SMOOTH",
"377 59 LINE",
"372 55 OFFCURVE",
"366 47 OFFCURVE",
"362 34 CURVE",
"431 19 OFFCURVE",
"640 0 OFFCURVE",
"726 0 CURVE SMOOTH",
"745 0 OFFCURVE",
"797 29 OFFCURVE",
"817 46 CURVE",
"831 86 OFFCURVE",
"850 155 OFFCURVE",
"863 218 CURVE",
"857 225 OFFCURVE",
"839 234 OFFCURVE",
"815 234 CURVE",
"733 70 LINE",
"521 70 LINE",
"536 79 OFFCURVE",
"552 108 OFFCURVE",
"551 149 CURVE SMOOTH",
"548 319 LINE",
"747 341 LINE",
"755 356 OFFCURVE",
"765 377 OFFCURVE",
"773 408 CURVE",
"765 417 LINE",
"720 405 OFFCURVE",
"625 390 OFFCURVE",
"544 381 CURVE",
"541 595 LINE SMOOTH",
"541 647 OFFCURVE",
"548 653 OFFCURVE",
"612 653 CURVE SMOOTH",
"668 653 OFFCURVE",
"751 643 OFFCURVE",
"788 636 CURVE",
"786 498 LINE",
"791 494 OFFCURVE",
"809 488 OFFCURVE",
"836 488 CURVE",
"850 514 OFFCURVE",
"876 579 OFFCURVE",
"895 649 CURVE",
"879 671 OFFCURVE",
"839 694 OFFCURVE",
"810 704 CURVE",
"446 704 LINE SMOOTH",
"419 704 OFFCURVE",
"339 654 OFFCURVE",
"316 631 CURVE",
"131 240 LINE SMOOTH",
"62 94 OFFCURVE",
"20 59 OFFCURVE",
"-9 59 CURVE SMOOTH",
"-18 59 LINE",
"-24 54 OFFCURVE",
"-30 47 OFFCURVE",
"-33 34 CURVE",
"9 20 OFFCURVE",
"139 0 OFFCURVE",
"158 0 CURVE SMOOTH"
);
},
{
closed = 1;
nodes = (
"380 626 LINE",
"408 636 OFFCURVE",
"441 643 OFFCURVE",
"458 643 CURVE",
"462 368 LINE",
"369 355 OFFCURVE",
"307 349 OFFCURVE",
"248 342 CURVE"
);
}
);
width = 899;
},
{
anchors = (
{
name = bottom;
position = "{407, 0}";
},
{
name = top;
position = "{584, 704}";
}
);
layerId = "BECA3017-CCCA-4A11-8E58-D2E4FEE6FE6A";
paths = (
{
closed = 1;
nodes = (
"169 0 OFFCURVE",
"227 18 OFFCURVE",
"244 35 CURVE",
"247 50 OFFCURVE",
"242 61 OFFCURVE",
"240 66 CURVE",
"115 76 LINE",
"126 78 OFFCURVE",
"152 108 OFFCURVE",
"167 142 CURVE SMOOTH",
"229 281 LINE",
"444 297 LINE",
"448 145 LINE SMOOTH",
"449 97 OFFCURVE",
"437 76 OFFCURVE",
"396 72 CURVE SMOOTH",
"377 70 LINE",
"372 64 OFFCURVE",
"364 52 OFFCURVE",
"361 35 CURVE",
"390 25 OFFCURVE",
"680 0 OFFCURVE",
"782 0 CURVE SMOOTH",
"796 0 OFFCURVE",
"838 29 OFFCURVE",
"852 46 CURVE",
"864 86 OFFCURVE",
"885 171 OFFCURVE",
"900 246 CURVE",
"888 254 OFFCURVE",
"857 265 OFFCURVE",
"820 265 CURVE",
"724 82 LINE",
"578 82 LINE",
"593 100 OFFCURVE",
"598 127 OFFCURVE",
"596 175 CURVE SMOOTH",
"591 307 LINE",
"769 320 LINE",
"777 334 OFFCURVE",
"789 370 OFFCURVE",
"796 399 CURVE",
"785 415 LINE",
"771 411 OFFCURVE",
"690 399 OFFCURVE",
"587 386 CURVE",
"581 561 LINE SMOOTH",
"579 629 OFFCURVE",
"586 637 OFFCURVE",
"649 637 CURVE SMOOTH",
"724 637 OFFCURVE",
"779 623 OFFCURVE",
"793 615 CURVE",
"791 469 LINE",
"806 463 OFFCURVE",
"838 455 OFFCURVE",
"869 455 CURVE",
"885 488 OFFCURVE",
"915 561 OFFCURVE",
"936 643 CURVE",
"924 667 OFFCURVE",
"896 693 OFFCURVE",
"873 704 CURVE",
"417 705 LINE SMOOTH",
"388 705 OFFCURVE",
"333 668 OFFCURVE",
"309 646 CURVE",
"119 240 LINE SMOOTH",
"44 79 OFFCURVE",
"14 76 OFFCURVE",
"-11 73 CURVE SMOOTH",
"-34 70 LINE",
"-39 64 OFFCURVE",
"-46 52 OFFCURVE",
"-50 35 CURVE",
"-8 21 OFFCURVE",
"129 0 OFFCURVE",
"148 0 CURVE SMOOTH"
);
},
{
closed = 1;
nodes = (
"376 614 LINE",
"389 621 OFFCURVE",
"414 624 OFFCURVE",
"434 622 CURVE",
"440 370 LINE",
"387 362 OFFCURVE",
"324 356 OFFCURVE",
"258 350 CURVE"
);
}
);
width = 921;
},
{
anchors = (
{
name = bottom;
position = "{424, 0}";
},
{
name = top;
position = "{576, 704}";
}
);
layerId = "A63AEE66-7D4A-459A-A35B-D6CC97B4CA0F";
paths = (
{
closed = 1;
nodes = (
"150 0 OFFCURVE",
"186 13 OFFCURVE",
"208 28 CURVE",
"211 37 OFFCURVE",
"208 47 OFFCURVE",
"205 48 CURVE",
"93 57 LINE",
"105 63 OFFCURVE",
"129 87 OFFCURVE",
"151 132 CURVE SMOOTH",
"226 290 LINE",
"492 315 LINE",
"498 112 LINE SMOOTH",
"500 57 OFFCURVE",
"469 50 OFFCURVE",
"443 50 CURVE SMOOTH",
"424 50 LINE",
"419 45 OFFCURVE",
"414 38 OFFCURVE",
"412 28 CURVE",
"490 13 OFFCURVE",
"686 0 OFFCURVE",
"770 0 CURVE",
"792 3 OFFCURVE",
"836 25 OFFCURVE",
"854 39 CURVE",
"875 112 OFFCURVE",
"885 161 OFFCURVE",
"893 201 CURVE",
"889 206 OFFCURVE",
"876 213 OFFCURVE",
"859 213 CURVE",
"782 58 LINE",
"536 58 LINE",
"554 68 OFFCURVE",
"564 100 OFFCURVE",
"563 148 CURVE SMOOTH",
"558 324 LINE",
"777 347 LINE",
"786 360 OFFCURVE",
"793 384 OFFCURVE",
"798 400 CURVE",
"792 407 LINE",
"723 394 OFFCURVE",
"632 383 OFFCURVE",
"555 374 CURVE",
"548 603 LINE SMOOTH",
"547 657 OFFCURVE",
"556 663 OFFCURVE",
"639 663 CURVE SMOOTH",
"681 663 OFFCURVE",
"789 655 OFFCURVE",
"839 648 CURVE",
"834 508 LINE",
"838 505 OFFCURVE",
"852 501 OFFCURVE",
"870 501 CURVE",
"885 529 OFFCURVE",
"911 595 OFFCURVE",
"929 660 CURVE",
"912 679 OFFCURVE",
"882 695 OFFCURVE",
"856 704 CURVE",
"462 704 LINE SMOOTH",
"436 704 OFFCURVE",
"354 656 OFFCURVE",
"332 634 CURVE",
"119 193 LINE SMOOTH",
"67 85 OFFCURVE",
"34 50 OFFCURVE",
"3 50 CURVE SMOOTH",
"-11 50 LINE",
"-17 46 OFFCURVE",
"-24 37 OFFCURVE",
"-26 28 CURVE",
"20 15 OFFCURVE",
"112 0 OFFCURVE",
"131 0 CURVE SMOOTH"
);
},
{
closed = 1;
nodes = (
"384 627 LINE",
"419 641 OFFCURVE",
"460 652 OFFCURVE",
"481 652 CURVE",
"489 363 LINE",
"388 351 OFFCURVE",
"327 345 OFFCURVE",
"248 337 CURVE"
);
}
);
width = 940;
},
{
anchors = (
{
name = bottom;
position = "{409, 0}";
},
{
name = top;
position = "{569, 704}";
}
);
layerId = "65812DC5-BB64-4CCF-B3BD-7266D8F2F6F4";
paths = (
{
closed = 1;
nodes = (
"179 0 OFFCURVE",
"222 16 OFFCURVE",
"240 33 CURVE",
"243 47 OFFCURVE",
"239 54 OFFCURVE",
"237 58 CURVE",
"100 69 LINE",
"113 71 OFFCURVE",
"141 96 OFFCURVE",
"164 143 CURVE SMOOTH",
"232 284 LINE",
"482 307 LINE",
"487 136 LINE SMOOTH",
"489 71 OFFCURVE",
"451 67 OFFCURVE",
"426 64 CURVE SMOOTH",
"399 61 LINE",
"395 57 OFFCURVE",
"387 48 OFFCURVE",
"384 34 CURVE",
"450 20 OFFCURVE",
"666 0 OFFCURVE",
"754 0 CURVE SMOOTH",
"775 0 OFFCURVE",
"827 29 OFFCURVE",
"847 46 CURVE",
"861 85 OFFCURVE",
"880 158 OFFCURVE",
"892 222 CURVE",
"886 229 OFFCURVE",
"866 239 OFFCURVE",
"841 239 CURVE",
"757 72 LINE",
"541 72 LINE",
"554 80 OFFCURVE",
"572 103 OFFCURVE",
"570 152 CURVE SMOOTH",
"565 317 LINE",
"770 339 LINE",
"779 352 OFFCURVE",
"789 382 OFFCURVE",
"796 407 CURVE",
"787 417 LINE",
"742 406 OFFCURVE",
"646 392 OFFCURVE",
"561 382 CURVE",
"556 590 LINE SMOOTH",
"555 645 OFFCURVE",
"562 651 OFFCURVE",
"631 651 CURVE SMOOTH",
"692 651 OFFCURVE",
"775 640 OFFCURVE",
"811 633 CURVE",
"809 494 LINE",
"817 489 OFFCURVE",
"840 483 OFFCURVE",
"863 483 CURVE",
"878 511 OFFCURVE",
"904 572 OFFCURVE",
"925 648 CURVE",
"910 668 OFFCURVE",
"871 693 OFFCURVE",
"837 704 CURVE",
"456 704 LINE SMOOTH",
"429 704 OFFCURVE",
"350 656 OFFCURVE",
"326 633 CURVE",
"134 239 LINE SMOOTH",
"59 85 OFFCURVE",
"22 61 OFFCURVE",
"-5 61 CURVE SMOOTH",
"-18 61 LINE",
"-23 57 OFFCURVE",
"-31 45 OFFCURVE",
"-33 34 CURVE",
"11 20 OFFCURVE",
"140 0 OFFCURVE",
"158 0 CURVE SMOOTH"
);
},
{
closed = 1;
nodes = (
"390 624 LINE",
"419 634 OFFCURVE",
"455 640 OFFCURVE",
"473 640 CURVE",
"479 368 LINE",
"399 357 OFFCURVE",
"317 349 OFFCURVE",
"257 343 CURVE"
);
}
);
width = 932;
},
{
anchors = (
{
name = bottom;
position = "{417, 0}";
},
{
name = top;
position = "{594, 704}";
}
);
layerId = "28047205-16CB-4036-948B-FF1CDF00A7B3";
paths = (
{
closed = 1;
nodes = (
"173 0 OFFCURVE",
"231 18 OFFCURVE",
"248 35 CURVE",
"251 50 OFFCURVE",
"246 61 OFFCURVE",
"244 66 CURVE",
"119 76 LINE",
"130 78 OFFCURVE",
"156 108 OFFCURVE",
"171 142 CURVE SMOOTH",
"233 281 LINE",
"449 297 LINE",
"452 145 LINE SMOOTH",
"453 97 OFFCURVE",
"440 77 OFFCURVE",
"400 72 CURVE SMOOTH",
"381 70 LINE",
"376 64 OFFCURVE",
"368 52 OFFCURVE",
"365 35 CURVE",
"394 25 OFFCURVE",
"689 0 OFFCURVE",
"792 0 CURVE SMOOTH",
"806 0 OFFCURVE",
"848 29 OFFCURVE",
"862 46 CURVE",
"874 86 OFFCURVE",
"895 171 OFFCURVE",
"910 246 CURVE",
"898 254 OFFCURVE",
"867 265 OFFCURVE",
"830 265 CURVE",
"734 82 LINE",
"588 82 LINE",
"603 100 OFFCURVE",
"608 127 OFFCURVE",
"606 175 CURVE SMOOTH",
"601 307 LINE",
"779 320 LINE",
"787 334 OFFCURVE",
"799 370 OFFCURVE",
"806 399 CURVE",
"795 415 LINE",
"781 411 OFFCURVE",
"700 399 OFFCURVE",
"597 386 CURVE",
"591 561 LINE SMOOTH",
"589 629 OFFCURVE",
"596 637 OFFCURVE",
"659 637 CURVE SMOOTH",
"734 637 OFFCURVE",
"789 623 OFFCURVE",
"803 615 CURVE",
"801 469 LINE",
"816 463 OFFCURVE",
"848 455 OFFCURVE",
"879 455 CURVE",
"895 488 OFFCURVE",
"925 561 OFFCURVE",
"946 643 CURVE",
"934 667 OFFCURVE",
"906 693 OFFCURVE",
"883 704 CURVE",
"421 705 LINE SMOOTH",
"392 705 OFFCURVE",
"337 668 OFFCURVE",
"313 646 CURVE",
"123 240 LINE SMOOTH",
"48 79 OFFCURVE",
"18 76 OFFCURVE",
"-7 73 CURVE SMOOTH",
"-30 70 LINE",
"-35 64 OFFCURVE",
"-42 52 OFFCURVE",
"-46 35 CURVE",
"-4 21 OFFCURVE",
"133 0 OFFCURVE",
"152 0 CURVE SMOOTH"
);
},
{
closed = 1;
nodes = (
"380 614 LINE",
"394 621 OFFCURVE",
"420 624 OFFCURVE",
"441 622 CURVE",
"446 370 LINE",
"392 362 OFFCURVE",
"329 356 OFFCURVE",
"262 350 CURVE"
);
}
);
width = 931;
}
);
leftKerningGroup = A;
leftMetricsKey = A;
rightKerningGroup = E;
unicode = 00C6;
},
{
color = 6;
glyphname = B;
layers = (
{
anchors = (
{
name = bottom;
position = "{239, 0}";
},
{
name = top;
position = "{376, 704}";
}
);
layerId = "21A50CEC-A8F8-47E3-8EB4-99CD9DCFA5F3";
paths = (
{
closed = 1;
nodes = (
"380 6 OFFCURVE",
"435 33 OFFCURVE",
"462 55 CURVE",
"500 110 OFFCURVE",
"530 213 OFFCURVE",
"530 279 CURVE SMOOTH",
"530 293 OFFCURVE",
"529 306 OFFCURVE",
"526 318 CURVE",
"511 331 OFFCURVE",
"469 351 OFFCURVE",
"415 361 CURVE",
"415 364 LINE",
"443 370 OFFCURVE",
"475 382 OFFCURVE",
"495 395 CURVE",
"535 433 OFFCURVE",
"566 518 OFFCURVE",
"568 590 CURVE SMOOTH",
"569 614 OFFCURVE",
"566 637 OFFCURVE",
"561 656 CURVE",
"544 672 OFFCURVE",
"502 697 OFFCURVE",
"473 704 CURVE",
"181 704 LINE SMOOTH",
"171 704 OFFCURVE",
"135 689 OFFCURVE",
"125 681 CURVE",
"125 673 OFFCURVE",
"127 667 OFFCURVE",
"129 664 CURVE",
"204 664 LINE",
"197 656 OFFCURVE",
"185 631 OFFCURVE",
"177 592 CURVE",
"86 121 LINE SMOOTH",
"75 65 OFFCURVE",
"62 52 OFFCURVE",
"31 47 CURVE SMOOTH",
"8 44 LINE",
"1 38 OFFCURVE",
"-2 30 OFFCURVE",
"-4 24 CURVE",
"82 12 OFFCURVE",
"271 0 OFFCURVE",
"342 0 CURVE"
);
},
{
closed = 1;
nodes = (
"122 58 OFFCURVE",
"132 74 OFFCURVE",
"139 108 CURVE",
"186 347 LINE",
"248 347 LINE SMOOTH",
"374 347 OFFCURVE",
"432 319 OFFCURVE",
"462 292 CURVE",
"462 290 OFFCURVE",
"465 272 OFFCURVE",
"464 254 CURVE SMOOTH",
"462 181 OFFCURVE",
"423 79 OFFCURVE",
"385 51 CURVE",
"116 51 LINE"
);
},
{
closed = 1;
nodes = (
"235 598 LINE SMOOTH",
"246 655 OFFCURVE",
"271 668 OFFCURVE",
"312 668 CURVE SMOOTH",
"370 668 OFFCURVE",
"443 663 OFFCURVE",
"492 655 CURVE",
"504 637 OFFCURVE",
"508 609 OFFCURVE",
"508 585 CURVE SMOOTH",
"508 521 OFFCURVE",
"480 440 OFFCURVE",
"439 399 CURVE",
"371 387 OFFCURVE",
"277 386 OFFCURVE",
"193 384 CURVE"
);
}
);
width = 576;
},
{
anchors = (
{
name = bottom;
position = "{256, 0}";
},
{
name = top;
position = "{393, 704}";
}
);
layerId = "1A804BEB-C033-4C3E-8D94-4E59A38AB1F5";
paths = (
{
closed = 1;
nodes = (
"402 7 OFFCURVE",
"490 65 OFFCURVE",
"511 95 CURVE",
"540 152 OFFCURVE",
"559 212 OFFCURVE",
"559 277 CURVE SMOOTH",
"559 293 OFFCURVE",
"558 305 OFFCURVE",
"555 314 CURVE",
"537 330 OFFCURVE",
"487 351 OFFCURVE",
"432 359 CURVE",
"432 363 LINE",
"468 368 OFFCURVE",
"506 383 OFFCURVE",
"525 391 CURVE",
"558 416 OFFCURVE",
"579 480 OFFCURVE",
"588 537 CURVE SMOOTH",
"593 566 OFFCURVE",
"595 595 OFFCURVE",
"595 618 CURVE",
"570 656 OFFCURVE",
"533 689 OFFCURVE",
"485 704 CURVE",
"180 704 LINE SMOOTH",
"168 704 OFFCURVE",
"127 685 OFFCURVE",
"113 671 CURVE",
"114 660 OFFCURVE",
"118 656 OFFCURVE",
"121 652 CURVE",
"218 652 LINE",
"210 646 OFFCURVE",
"193 621 OFFCURVE",
"183 570 CURVE SMOOTH",
"105 164 LINE SMOOTH",
"91 91 OFFCURVE",
"83 70 OFFCURVE",
"35 63 CURVE SMOOTH",
"5 59 LINE",
"0 55 OFFCURVE",
"-8 44 OFFCURVE",
"-10 34 CURVE",
"67 19 OFFCURVE",
"241 0 OFFCURVE",
"343 0 CURVE"
);
},
{
closed = 1;
nodes = (
"163 80 OFFCURVE",
"177 106 OFFCURVE",
"184 139 CURVE SMOOTH",
"222 334 LINE",
"268 334 LINE SMOOTH",
"403 334 OFFCURVE",
"445 300 OFFCURVE",
"464 278 CURVE",
"464 254 OFFCURVE",
"462 226 OFFCURVE",
"458 203 CURVE SMOOTH",
"449 152 OFFCURVE",
"427 92 OFFCURVE",
"399 70 CURVE",
"154 70 LINE"
);
},
{
closed = 1;
nodes = (
"269 571 LINE SMOOTH",
"278 619 OFFCURVE",
"316 653 OFFCURVE",
"362 653 CURVE SMOOTH",
"412 653 OFFCURVE",
"464 646 OFFCURVE",
"493 632 CURVE",
"502 620 OFFCURVE",
"506 601 OFFCURVE",
"506 577 CURVE SMOOTH",
"506 518 OFFCURVE",
"486 445 OFFCURVE",
"449 404 CURVE",
"395 398 OFFCURVE",
"329 388 OFFCURVE",
"234 387 CURVE"
);
}
);
width = 609;
},
{
anchors = (
{
name = bottom;
position = "{274, 0}";
},
{
name = top;
position = "{411, 704}";
}
);
layerId = "BECA3017-CCCA-4A11-8E58-D2E4FEE6FE6A";
paths = (
{
closed = 1;
nodes = (
"449 0 OFFCURVE",
"542 55 OFFCURVE",
"572 88 CURVE",
"599 141 OFFCURVE",
"621 224 OFFCURVE",
"621 273 CURVE SMOOTH",
"621 285 OFFCURVE",
"620 300 OFFCURVE",
"616 314 CURVE",
"598 330 OFFCURVE",
"553 352 OFFCURVE",
"494 359 CURVE",
"496 363 LINE",
"532 368 OFFCURVE",
"569 383 OFFCURVE",
"587 391 CURVE",
"616 417 OFFCURVE",
"655 539 OFFCURVE",
"655 609 CURVE SMOOTH",
"655 613 OFFCURVE",
"655 616 OFFCURVE",
"655 620 CURVE",
"631 653 OFFCURVE",
"572 694 OFFCURVE",
"521 704 CURVE",
"174 704 LINE",
"163 704 OFFCURVE",
"120 685 OFFCURVE",
"107 671 CURVE",
"105 656 OFFCURVE",
"109 644 OFFCURVE",
"112 638 CURVE",
"204 638 LINE",
"202 636 OFFCURVE",
"183 621 OFFCURVE",
"171 559 CURVE SMOOTH",
"97 178 LINE SMOOTH",
"83 106 OFFCURVE",
"68 78 OFFCURVE",
"30 74 CURVE SMOOTH",
"0 70 LINE",
"-5 64 OFFCURVE",
"-12 51 OFFCURVE",
"-16 35 CURVE",
"77 15 OFFCURVE",
"344 0 OFFCURVE",
"404 0 CURVE SMOOTH"
);
},
{
closed = 1;
nodes = (
"224 91 OFFCURVE",
"238 116 OFFCURVE",
"245 150 CURVE SMOOTH",
"280 328 LINE",
"338 328 LINE SMOOTH",
"385 328 OFFCURVE",
"443 307 OFFCURVE",
"460 289 CURVE",
"462 281 OFFCURVE",
"462 271 OFFCURVE",
"462 263 CURVE SMOOTH",
"462 198 OFFCURVE",
"433 113 OFFCURVE",
"400 82 CURVE",
"214 82 LINE"
);
},
{
closed = 1;
nodes = (
"325 560 LINE",
"334 607 OFFCURVE",
"353 634 OFFCURVE",
"396 634 CURVE SMOOTH",
"418 634 OFFCURVE",
"465 629 OFFCURVE",
"490 615 CURVE",
"500 602 OFFCURVE",
"504 587 OFFCURVE",
"504 568 CURVE SMOOTH",
"504 513 OFFCURVE",
"477 423 OFFCURVE",
"445 405 CURVE",
"403 397 OFFCURVE",
"334 396 OFFCURVE",
"293 394 CURVE"
);
}
);
width = 658;
},
{
anchors = (
{
name = bottom;
position = "{253, 0}";
},
{
name = top;
position = "{390, 704}";
}
);
layerId = "A63AEE66-7D4A-459A-A35B-D6CC97B4CA0F";
paths = (
{
closed = 1;
nodes = (
"400 7 OFFCURVE",
"470 46 OFFCURVE",
"494 72 CURVE",
"528 124 OFFCURVE",
"557 208 OFFCURVE",
"557 276 CURVE SMOOTH",
"557 289 OFFCURVE",
"556 307 OFFCURVE",
"552 316 CURVE",
"534 332 OFFCURVE",
"488 352 OFFCURVE",
"433 360 CURVE",
"434 364 LINE",
"468 370 OFFCURVE",
"496 376 OFFCURVE",
"520 388 CURVE",
"559 422 OFFCURVE",
"589 510 OFFCURVE",
"591 584 CURVE SMOOTH",
"592 610 OFFCURVE",
"591 620 OFFCURVE",
"588 641 CURVE",
"567 666 OFFCURVE",
"525 693 OFFCURVE",
"489 704 CURVE",
"182 704 LINE SMOOTH",
"170 704 OFFCURVE",
"132 687 OFFCURVE",
"120 677 CURVE",
"120 670 OFFCURVE",
"122 664 OFFCURVE",
"126 659 CURVE",
"211 659 LINE",
"204 653 OFFCURVE",
"190 629 OFFCURVE",
"180 584 CURVE",
"93 137 LINE SMOOTH",
"81 76 OFFCURVE",
"69 59 OFFCURVE",
"32 53 CURVE SMOOTH",
"6 49 LINE",
"0 45 OFFCURVE",
"-3 39 OFFCURVE",
"-7 28 CURVE",
"77 15 OFFCURVE",
"267 0 OFFCURVE",
"354 0 CURVE"
);
},
{
closed = 1;
nodes = (
"138 66 OFFCURVE",
"150 87 OFFCURVE",
"157 119 CURVE",
"202 342 LINE",
"301 342 LINE SMOOTH",
"398 342 OFFCURVE",
"451 310 OFFCURVE",
"478 286 CURVE",
"479 273 OFFCURVE",
"479 272 OFFCURVE",
"478 250 CURVE SMOOTH",
"476 162 OFFCURVE",
"437 83 OFFCURVE",
"404 58 CURVE",
"131 58 LINE"
);
},
{
closed = 1;
nodes = (
"250 587 LINE SMOOTH",
"260 637 OFFCURVE",
"285 663 OFFCURVE",
"334 663 CURVE SMOOTH",
"388 663 OFFCURVE",
"461 657 OFFCURVE",
"507 646 CURVE",
"517 631 OFFCURVE",
"523 609 OFFCURVE",
"523 580 CURVE SMOOTH",
"523 522 OFFCURVE",
"498 441 OFFCURVE",
"461 402 CURVE",
"390 391 OFFCURVE",
"328 389 OFFCURVE",
"210 386 CURVE"
);
}
);
width = 610;
},
{
anchors = (
{
name = bottom;
position = "{267, 0}";
},
{
name = top;
position = "{404, 704}";
}
);
layerId = "65812DC5-BB64-4CCF-B3BD-7266D8F2F6F4";
paths = (
{
closed = 1;
nodes = (
"422 6 OFFCURVE",
"509 60 OFFCURVE",
"534 88 CURVE",
"563 145 OFFCURVE",
"585 209 OFFCURVE",
"585 274 CURVE SMOOTH",
"585 291 OFFCURVE",
"583 307 OFFCURVE",
"580 314 CURVE",
"561 330 OFFCURVE",
"513 350 OFFCURVE",
"453 359 CURVE",
"455 363 LINE",
"492 368 OFFCURVE",
"529 378 OFFCURVE",
"548 386 CURVE",
"585 412 OFFCURVE",
"610 490 OFFCURVE",
"617 550 CURVE SMOOTH",
"621 585 OFFCURVE",
"621 599 OFFCURVE",
"621 618 CURVE",
"594 658 OFFCURVE",
"548 691 OFFCURVE",
"503 704 CURVE",
"181 704 LINE SMOOTH",
"168 704 OFFCURVE",
"127 685 OFFCURVE",
"113 671 CURVE",
"113 662 OFFCURVE",
"116 655 OFFCURVE",
"120 650 CURVE",
"218 650 LINE",
"210 644 OFFCURVE",
"194 621 OFFCURVE",
"183 568 CURVE SMOOTH",
"104 166 LINE SMOOTH",
"90 94 OFFCURVE",
"79 72 OFFCURVE",
"34 65 CURVE SMOOTH",
"4 61 LINE",
"-1 56 OFFCURVE",
"-8 45 OFFCURVE",
"-11 34 CURVE",
"69 19 OFFCURVE",
"267 0 OFFCURVE",
"365 0 CURVE"
);
},
{
closed = 1;
nodes = (
"173 82 OFFCURVE",
"187 107 OFFCURVE",
"194 141 CURVE SMOOTH",
"232 333 LINE",
"316 333 LINE SMOOTH",
"412 333 OFFCURVE",
"461 298 OFFCURVE",
"480 280 CURVE",
"480 255 OFFCURVE",
"480 241 OFFCURVE",
"476 210 CURVE SMOOTH",
"470 160 OFFCURVE",
"444 96 OFFCURVE",
"413 72 CURVE",
"163 72 LINE"
);
},
{
closed = 1;
nodes = (
"279 569 LINE",
"289 617 OFFCURVE",
"323 650 OFFCURVE",
"370 650 CURVE SMOOTH",
"415 650 OFFCURVE",
"475 644 OFFCURVE",
"507 629 CURVE",
"517 618 OFFCURVE",
"522 599 OFFCURVE",
"522 574 CURVE SMOOTH",
"522 523 OFFCURVE",
"502 444 OFFCURVE",
"469 405 CURVE",
"406 398 OFFCURVE",
"346 390 OFFCURVE",
"243 388 CURVE"
);
}
);
width = 639;
},
{
anchors = (
{
name = bottom;
position = "{291, 0}";
},
{
name = top;
position = "{428, 704}";
}
);
layerId = "28047205-16CB-4036-948B-FF1CDF00A7B3";
paths = (
{
closed = 1;
nodes = (
"472 0 OFFCURVE",
"567 50 OFFCURVE",
"599 81 CURVE",
"627 136 OFFCURVE",
"649 223 OFFCURVE",
"649 272 CURVE SMOOTH",
"649 285 OFFCURVE",
"647 301 OFFCURVE",
"643 314 CURVE",
"624 330 OFFCURVE",
"577 352 OFFCURVE",
"515 359 CURVE",
"516 363 LINE",
"553 368 OFFCURVE",
"592 379 OFFCURVE",
"612 387 CURVE",
"643 411 OFFCURVE",
"686 526 OFFCURVE",
"686 588 CURVE SMOOTH",
"686 601 OFFCURVE",
"685 613 OFFCURVE",
"682 622 CURVE",
"658 653 OFFCURVE",
"595 694 OFFCURVE",
"542 704 CURVE",
"182 704 LINE",
"171 704 OFFCURVE",
"125 685 OFFCURVE",
"112 671 CURVE",
"110 656 OFFCURVE",
"115 644 OFFCURVE",
"118 637 CURVE",
"214 637 LINE",
"210 635 OFFCURVE",
"192 617 OFFCURVE",
"180 558 CURVE SMOOTH",
"106 179 LINE SMOOTH",
"92 107 OFFCURVE",
"75 78 OFFCURVE",
"37 74 CURVE SMOOTH",
"5 71 LINE",
"0 65 OFFCURVE",
"-7 49 OFFCURVE",
"-11 35 CURVE",
"85 15 OFFCURVE",
"359 0 OFFCURVE",
"425 0 CURVE SMOOTH"
);
},
{
closed = 1;
nodes = (
"237 92 OFFCURVE",
"251 114 OFFCURVE",
"258 151 CURVE SMOOTH",
"293 328 LINE",
"324 328 LINE SMOOTH",
"375 328 OFFCURVE",
"465 307 OFFCURVE",
"483 289 CURVE",
"485 283 OFFCURVE",
"485 280 OFFCURVE",
"485 264 CURVE SMOOTH",
"485 201 OFFCURVE",
"456 114 OFFCURVE",
"422 83 CURVE",
"226 83 LINE"
);
},
{
closed = 1;
nodes = (
"338 559 LINE",
"347 606 OFFCURVE",
"368 633 OFFCURVE",
"412 633 CURVE SMOOTH",
"436 633 OFFCURVE",
"485 628 OFFCURVE",
"511 614 CURVE",
"522 601 OFFCURVE",
"526 585 OFFCURVE",
"526 566 CURVE SMOOTH",
"526 512 OFFCURVE",
"499 441 OFFCURVE",
"466 405 CURVE",
"422 397 OFFCURVE",
"356 400 OFFCURVE",
"306 397 CURVE"
);
}
);
width = 692;
}
);
leftKerningGroup = H;
leftMetricsKey = H;
rightKerningGroup = B;
unicode = 0042;
},
{
color = 6;
glyphname = C;
layers = (
{
anchors = (
{
name = bottom;
position = "{286, 0}";
},
{
name = top;
position = "{401, 704}";
}
);
layerId = "21A50CEC-A8F8-47E3-8EB4-99CD9DCFA5F3";
paths = (
{
closed = 1;
nodes = (
"353 0 OFFCURVE",
"448 35 OFFCURVE",
"491 60 CURVE",
"503 90 OFFCURVE",
"523 147 OFFCURVE",
"538 202 CURVE",
"529 207 OFFCURVE",
"518 210 OFFCURVE",
"506 211 CURVE",
"439 77 LINE",
"410 66 OFFCURVE",
"338 48 OFFCURVE",
"298 48 CURVE SMOOTH",
"245 48 OFFCURVE",
"154 97 OFFCURVE",
"131 131 CURVE",
"125 150 OFFCURVE",
"123 176 OFFCURVE",
"123 209 CURVE SMOOTH",
"123 329 OFFCURVE",
"179 543 OFFCURVE",
"228 615 CURVE",
"272 639 OFFCURVE",
"358 670 OFFCURVE",
"405 670 CURVE SMOOTH",
"456 670 OFFCURVE",
"527 652 OFFCURVE",
"554 633 CURVE",
"545 516 LINE",
"548 512 OFFCURVE",
"564 508 OFFCURVE",
"576 507 CURVE",
"590 540 OFFCURVE",
"612 602 OFFCURVE",
"626 658 CURVE",
"591 688 OFFCURVE",
"493 720 OFFCURVE",
"435 720 CURVE SMOOTH",
"351 720 OFFCURVE",
"231 662 OFFCURVE",
"170 620 CURVE",
"114 527 OFFCURVE",
"61 321 OFFCURVE",
"61 202 CURVE SMOOTH",
"61 159 OFFCURVE",
"66 122 OFFCURVE",
"79 95 CURVE",
"102 58 OFFCURVE",
"210 0 OFFCURVE",
"268 0 CURVE SMOOTH"
);
}
);
width = 588;
},
{
anchors = (
{
name = bottom;
position = "{295, 0}";
},
{
name = top;
position = "{401, 704}";
}
);
layerId = "1A804BEB-C033-4C3E-8D94-4E59A38AB1F5";
paths = (
{
closed = 1;
nodes = (
"378 0 OFFCURVE",
"461 39 OFFCURVE",
"505 65 CURVE",
"518 107 OFFCURVE",
"537 175 OFFCURVE",
"546 221 CURVE",
"537 227 OFFCURVE",
"517 236 OFFCURVE",
"494 236 CURVE",
"417 82 LINE",
"391 75 OFFCURVE",
"349 70 OFFCURVE",
"303 70 CURVE SMOOTH",
"256 70 OFFCURVE",
"180 113 OFFCURVE",
"158 143 CURVE",
"153 163 OFFCURVE",
"154 185 OFFCURVE",
"154 216 CURVE SMOOTH",
"154 332 OFFCURVE",
"205 525 OFFCURVE",
"256 611 CURVE",
"304 632 OFFCURVE",
"368 649 OFFCURVE",
"410 649 CURVE SMOOTH",
"441 649 OFFCURVE",
"505 630 OFFCURVE",
"526 619 CURVE",
"523 498 LINE",
"530 493 OFFCURVE",
"548 488 OFFCURVE",
"574 488 CURVE",
"587 515 OFFCURVE",
"611 574 OFFCURVE",
"632 657 CURVE",
"593 690 OFFCURVE",
"515 720 OFFCURVE",
"440 720 CURVE SMOOTH",
"341 720 OFFCURVE",
"225 658 OFFCURVE",
"161 607 CURVE",
"115 540 OFFCURVE",
"55 315 OFFCURVE",
"55 195 CURVE SMOOTH",
"55 152 OFFCURVE",
"62 121 OFFCURVE",
"74 99 CURVE",
"102 56 OFFCURVE",
"203 0 OFFCURVE",
"270 0 CURVE SMOOTH"
);
}
);
width = 602;
},
{
anchors = (
{
name = bottom;
position = "{304, 0}";
},
{
name = top;
position = "{403, 704}";
}
);
layerId = "BECA3017-CCCA-4A11-8E58-D2E4FEE6FE6A";
paths = (
{
closed = 1;
nodes = (
"385 0 OFFCURVE",
"492 52 OFFCURVE",
"529 82 CURVE",
"544 126 OFFCURVE",
"562 209 OFFCURVE",
"572 256 CURVE",
"555 264 OFFCURVE",
"516 275 OFFCURVE",
"482 275 CURVE",
"388 104 LINE",
"376 99 OFFCURVE",
"337 90 OFFCURVE",
"313 90 CURVE SMOOTH",
"296 90 OFFCURVE",
"223 123 OFFCURVE",
"213 146 CURVE",
"210 164 OFFCURVE",
"208 186 OFFCURVE",
"208 204 CURVE SMOOTH",
"208 322 OFFCURVE",
"257 528 OFFCURVE",
"303 609 CURVE",
"334 617 OFFCURVE",
"390 623 OFFCURVE",
"423 623 CURVE SMOOTH",
"447 623 OFFCURVE",
"482 610 OFFCURVE",
"500 599 CURVE",
"504 467 LINE",
"517 462 OFFCURVE",
"550 455 OFFCURVE",
"590 455 CURVE",
"607 493 OFFCURVE",
"635 563 OFFCURVE",
"652 649 CURVE",
"612 690 OFFCURVE",
"527 720 OFFCURVE",
"475 720 CURVE SMOOTH",
"378 720 OFFCURVE",
"224 659 OFFCURVE",
"143 597 CURVE",
"88 496 OFFCURVE",
"50 304 OFFCURVE",
"50 223 CURVE SMOOTH",
"50 164 OFFCURVE",
"52 134 OFFCURVE",
"62 112 CURVE",
"80 80 OFFCURVE",
"184 0 OFFCURVE",
"274 0 CURVE SMOOTH"
);
}
);
width = 604;
},
{
anchors = (
{
name = bottom;
position = "{300, 0}";
},
{
name = top;
position = "{412, 704}";
}
);
layerId = "A63AEE66-7D4A-459A-A35B-D6CC97B4CA0F";
paths = (
{
closed = 1;
nodes = (
"377 0 OFFCURVE",
"469 37 OFFCURVE",
"514 62 CURVE",
"526 95 OFFCURVE",
"546 159 OFFCURVE",
"560 209 CURVE",
"553 214 OFFCURVE",
"535 220 OFFCURVE",
"520 220 CURVE",
"449 79 LINE",
"420 70 OFFCURVE",
"357 57 OFFCURVE",
"311 57 CURVE SMOOTH",
"257 57 OFFCURVE",
"167 104 OFFCURVE",
"145 136 CURVE",
"139 153 OFFCURVE",
"135 179 OFFCURVE",
"135 215 CURVE SMOOTH",
"135 331 OFFCURVE",
"188 536 OFFCURVE",
"239 613 CURVE",
"286 636 OFFCURVE",
"369 662 OFFCURVE",
"418 662 CURVE SMOOTH",
"462 662 OFFCURVE",
"536 644 OFFCURVE",
"562 628 CURVE",
"556 509 LINE",
"561 504 OFFCURVE",
"576 501 OFFCURVE",
"594 500 CURVE",
"609 532 OFFCURVE",
"632 596 OFFCURVE",
"647 658 CURVE",
"610 688 OFFCURVE",
"515 720 OFFCURVE",
"447 720 CURVE SMOOTH",
"356 720 OFFCURVE",
"237 667 OFFCURVE",
"170 620 CURVE",
"116 538 OFFCURVE",
"59 322 OFFCURVE",
"59 202 CURVE SMOOTH",
"59 157 OFFCURVE",
"66 121 OFFCURVE",
"79 97 CURVE",
"105 57 OFFCURVE",
"216 0 OFFCURVE",
"278 0 CURVE SMOOTH"
);
}
);
width = 618;
},
{
anchors = (
{
name = bottom;
position = "{308, 0}";
},
{
name = top;
position = "{413, 704}";
}
);
layerId = "65812DC5-BB64-4CCF-B3BD-7266D8F2F6F4";
paths = (
{
closed = 1;
nodes = (
"394 0 OFFCURVE",
"484 42 OFFCURVE",
"527 68 CURVE",
"540 107 OFFCURVE",
"561 185 OFFCURVE",
"571 225 CURVE",
"561 232 OFFCURVE",
"537 242 OFFCURVE",
"514 242 CURVE",
"433 84 LINE",
"411 79 OFFCURVE",
"362 73 OFFCURVE",
"316 73 CURVE SMOOTH",
"268 73 OFFCURVE",
"188 119 OFFCURVE",
"171 143 CURVE",
"166 163 OFFCURVE",
"163 190 OFFCURVE",
"163 217 CURVE SMOOTH",
"163 334 OFFCURVE",
"214 526 OFFCURVE",
"265 611 CURVE",
"311 629 OFFCURVE",
"377 645 OFFCURVE",
"424 645 CURVE SMOOTH",
"456 645 OFFCURVE",
"522 627 OFFCURVE",
"543 616 CURVE",
"541 493 LINE",
"548 489 OFFCURVE",
"569 483 OFFCURVE",
"597 483 CURVE",
"613 514 OFFCURVE",
"638 581 OFFCURVE",
"656 656 CURVE",
"617 688 OFFCURVE",
"534 720 OFFCURVE",
"458 720 CURVE SMOOTH",
"356 720 OFFCURVE",
"231 663 OFFCURVE",
"163 610 CURVE",
"112 537 OFFCURVE",
"56 315 OFFCURVE",
"56 202 CURVE SMOOTH",
"56 155 OFFCURVE",
"63 121 OFFCURVE",
"75 102 CURVE SMOOTH",
"104 57 OFFCURVE",
"212 0 OFFCURVE",
"282 0 CURVE SMOOTH"
);
}
);
width = 628;
},
{
anchors = (
{
name = bottom;
position = "{322, 0}";
},
{
name = top;
position = "{420, 704}";
}
);
layerId = "28047205-16CB-4036-948B-FF1CDF00A7B3";
paths = (
{
closed = 1;
nodes = (
"407 0 OFFCURVE",
"517 53 OFFCURVE",
"555 83 CURVE",
"574 137 OFFCURVE",
"589 216 OFFCURVE",
"599 258 CURVE",
"581 266 OFFCURVE",
"540 277 OFFCURVE",
"506 277 CURVE",
"410 105 LINE",
"397 100 OFFCURVE",
"355 91 OFFCURVE",
"331 91 CURVE SMOOTH",
"312 91 OFFCURVE",
"235 124 OFFCURVE",
"225 146 CURVE",
"221 167 OFFCURVE",
"219 189 OFFCURVE",
"219 207 CURVE SMOOTH",
"219 324 OFFCURVE",
"268 529 OFFCURVE",
"315 609 CURVE",
"348 616 OFFCURVE",
"403 622 OFFCURVE",
"441 622 CURVE SMOOTH",
"465 622 OFFCURVE",
"503 609 OFFCURVE",
"522 598 CURVE",
"527 465 LINE",
"542 460 OFFCURVE",
"576 453 OFFCURVE",
"616 453 CURVE",
"633 492 OFFCURVE",
"661 560 OFFCURVE",
"679 649 CURVE",
"637 690 OFFCURVE",
"548 720 OFFCURVE",
"493 720 CURVE SMOOTH",
"392 720 OFFCURVE",
"234 666 OFFCURVE",
"150 603 CURVE",
"95 502 OFFCURVE",
"56 308 OFFCURVE",
"56 226 CURVE SMOOTH",
"56 162 OFFCURVE",
"60 133 OFFCURVE",
"70 113 CURVE",
"89 81 OFFCURVE",
"197 0 OFFCURVE",
"291 0 CURVE SMOOTH"
);
}
);
width = 637;
}
);
leftKerningGroup = O;
leftMetricsKey = O;
rightKerningGroup = C;
unicode = 0043;
},
{
color = 6;
glyphname = D;
layers = (
{
anchors = (
{
name = bottom;
position = "{275, 0}";
},
{
name = center;
position = "{344, 352}";
},
{
name = top;
position = "{398, 704}";
}
);
layerId = "21A50CEC-A8F8-47E3-8EB4-99CD9DCFA5F3";
paths = (
{
closed = 1;
nodes = (
"391 8 OFFCURVE",
"451 39 OFFCURVE",
"490 74 CURVE",
"559 161 OFFCURVE",
"626 376 OFFCURVE",
"626 521 CURVE SMOOTH",
"626 559 OFFCURVE",
"621 605 OFFCURVE",
"606 639 CURVE",
"583 667 OFFCURVE",
"537 694 OFFCURVE",
"500 704 CURVE",
"181 704 LINE",
"171 704 OFFCURVE",
"136 689 OFFCURVE",
"125 681 CURVE",
"125 671 OFFCURVE",
"128 666 OFFCURVE",
"130 664 CURVE",
"205 664 LINE",
"197 656 OFFCURVE",
"184 633 OFFCURVE",
"177 592 CURVE SMOOTH",
"86 121 LINE SMOOTH",
"75 63 OFFCURVE",
"60 51 OFFCURVE",
"31 47 CURVE SMOOTH",
"8 44 LINE",
"1 38 OFFCURVE",
"-2 30 OFFCURVE",
"-4 24 CURVE",
"81 12 OFFCURVE",
"285 0 OFFCURVE",
"355 0 CURVE"
);
},
{
closed = 1;
nodes = (
"122 57 OFFCURVE",
"134 77 OFFCURVE",
"140 107 CURVE SMOOTH",
"235 598 LINE SMOOTH",
"244 644 OFFCURVE",
"257 668 OFFCURVE",
"301 668 CURVE SMOOTH",
"379 668 OFFCURVE",
"475 662 OFFCURVE",
"518 651 CURVE",
"550 628 OFFCURVE",
"562 573 OFFCURVE",
"562 513 CURVE SMOOTH",
"562 364 OFFCURVE",
"483 103 OFFCURVE",
"401 51 CURVE",
"117 51 LINE"
);
}
);
width = 644;
},
{
anchors = (
{
name = bottom;
position = "{286, 0}";
},
{
name = center;
position = "{355, 352}";
},
{
name = top;
position = "{412, 704}";
}
);
layerId = "1A804BEB-C033-4C3E-8D94-4E59A38AB1F5";
paths = (
{
closed = 1;
nodes = (
"416 17 OFFCURVE",
"486 60 OFFCURVE",
"535 103 CURVE",
"596 179 OFFCURVE",
"657 400 OFFCURVE",
"657 530 CURVE SMOOTH",
"657 562 OFFCURVE",
"654 590 OFFCURVE",
"648 615 CURVE",
"623 652 OFFCURVE",
"569 690 OFFCURVE",
"521 704 CURVE",
"181 704 LINE SMOOTH",
"169 704 OFFCURVE",
"128 685 OFFCURVE",
"114 671 CURVE",
"114 662 OFFCURVE",
"119 655 OFFCURVE",
"122 652 CURVE",
"219 652 LINE",
"208 646 OFFCURVE",
"194 620 OFFCURVE",
"184 570 CURVE SMOOTH",
"105 164 LINE SMOOTH",
"88 78 OFFCURVE",
"77 69 OFFCURVE",
"34 63 CURVE SMOOTH",
"4 59 LINE",
"-1 55 OFFCURVE",
"-10 45 OFFCURVE",
"-11 34 CURVE",
"65 19 OFFCURVE",
"262 0 OFFCURVE",
"360 0 CURVE"
);
},
{
closed = 1;
nodes = (
"163 79 OFFCURVE",
"178 105 OFFCURVE",
"185 139 CURVE SMOOTH",
"269 571 LINE SMOOTH",
"278 617 OFFCURVE",
"291 653 OFFCURVE",
"341 653 CURVE SMOOTH",
"417 653 OFFCURVE",
"503 640 OFFCURVE",
"534 632 CURVE",
"552 608 OFFCURVE",
"560 573 OFFCURVE",
"560 527 CURVE SMOOTH",
"560 409 OFFCURVE",
"494 110 OFFCURVE",
"415 70 CURVE",
"155 70 LINE"
);
}
);
width = 669;
},
{
anchors = (
{
name = bottom;
position = "{315, 0}";
},
{
name = center;
position = "{384, 352}";
},
{
name = top;
position = "{432, 704}";
}
);
layerId = "BECA3017-CCCA-4A11-8E58-D2E4FEE6FE6A";
paths = (
{
closed = 1;
nodes = (
"409 0 OFFCURVE",
"532 52 OFFCURVE",
"588 99 CURVE",
"647 182 OFFCURVE",
"707 387 OFFCURVE",
"707 505 CURVE SMOOTH",
"707 547 OFFCURVE",
"701 587 OFFCURVE",
"687 624 CURVE",
"670 649 OFFCURVE",
"573 704 OFFCURVE",
"547 704 CURVE SMOOTH",
"174 704 LINE",
"163 704 OFFCURVE",
"120 685 OFFCURVE",
"107 671 CURVE",
"105 656 OFFCURVE",
"109 644 OFFCURVE",
"112 638 CURVE",
"204 638 LINE",
"202 636 OFFCURVE",
"183 621 OFFCURVE",
"171 559 CURVE SMOOTH",
"97 178 LINE SMOOTH",
"83 106 OFFCURVE",
"66 79 OFFCURVE",
"30 74 CURVE SMOOTH",
"0 70 LINE",
"-5 64 OFFCURVE",
"-12 51 OFFCURVE",
"-16 35 CURVE",
"20 27 OFFCURVE",
"285 0 OFFCURVE",
"369 0 CURVE SMOOTH"
);
},
{
closed = 1;
nodes = (
"224 91 OFFCURVE",
"238 116 OFFCURVE",
"245 150 CURVE SMOOTH",
"324 556 LINE SMOOTH",
"334 608 OFFCURVE",
"351 634 OFFCURVE",
"400 634 CURVE SMOOTH",
"450 634 OFFCURVE",
"489 627 OFFCURVE",
"520 618 CURVE",
"539 594 OFFCURVE",
"545 562 OFFCURVE",
"546 507 CURVE SMOOTH",
"550 356 OFFCURVE",
"481 146 OFFCURVE",
"423 82 CURVE",
"214 82 LINE"
);
}
);
width = 712;
},
{
anchors = (
{
name = bottom;
position = "{291, 0}";
},
{
name = center;
position = "{360, 352}";
},
{
name = top;
position = "{414, 704}";
}
);
layerId = "A63AEE66-7D4A-459A-A35B-D6CC97B4CA0F";
paths = (
{
closed = 1;
nodes = (
"416 13 OFFCURVE",
"483 44 OFFCURVE",
"525 84 CURVE",
"593 166 OFFCURVE",
"656 385 OFFCURVE",
"656 521 CURVE SMOOTH",
"656 563 OFFCURVE",
"650 604 OFFCURVE",
"637 635 CURVE",
"611 665 OFFCURVE",
"561 694 OFFCURVE",
"521 704 CURVE",
"182 704 LINE",
"170 704 OFFCURVE",
"131 687 OFFCURVE",
"120 677 CURVE",
"120 670 OFFCURVE",
"122 664 OFFCURVE",
"126 659 CURVE",
"211 659 LINE",
"204 654 OFFCURVE",
"187 632 OFFCURVE",
"178 584 CURVE SMOOTH",
"93 137 LINE SMOOTH",
"81 75 OFFCURVE",
"69 59 OFFCURVE",
"32 53 CURVE SMOOTH",
"6 49 LINE",
"0 45 OFFCURVE",
"-3 39 OFFCURVE",
"-7 28 CURVE",
"75 15 OFFCURVE",
"288 0 OFFCURVE",
"369 0 CURVE"
);
},
{
closed = 1;
nodes = (
"139 67 OFFCURVE",
"151 85 OFFCURVE",
"158 119 CURVE SMOOTH",
"249 587 LINE SMOOTH",
"258 631 OFFCURVE",
"271 663 OFFCURVE",
"320 663 CURVE SMOOTH",
"405 663 OFFCURVE",
"500 653 OFFCURVE",
"538 644 CURVE",
"568 619 OFFCURVE",
"578 571 OFFCURVE",
"578 515 CURVE SMOOTH",
"578 365 OFFCURVE",
"501 105 OFFCURVE",
"417 58 CURVE",
"132 58 LINE"
);
}
);
width = 673;
},
{
anchors = (
{
name = bottom;
position = "{304, 0}";
},
{
name = center;
position = "{373, 352}";
},
{
name = top;
position = "{427, 704}";
}
);
layerId = "65812DC5-BB64-4CCF-B3BD-7266D8F2F6F4";
paths = (
{
closed = 1;
nodes = (
"433 14 OFFCURVE",
"520 56 OFFCURVE",
"566 97 CURVE",
"630 175 OFFCURVE",
"687 394 OFFCURVE",
"687 523 CURVE SMOOTH",
"687 559 OFFCURVE",
"682 595 OFFCURVE",
"672 621 CURVE",
"650 652 OFFCURVE",
"588 691 OFFCURVE",
"541 704 CURVE",
"181 704 LINE SMOOTH",
"169 704 OFFCURVE",
"127 685 OFFCURVE",
"113 671 CURVE",
"113 662 OFFCURVE",
"116 655 OFFCURVE",
"120 650 CURVE",
"218 650 LINE",
"209 645 OFFCURVE",
"190 621 OFFCURVE",
"179 568 CURVE SMOOTH",
"104 166 LINE SMOOTH",
"91 94 OFFCURVE",
"78 71 OFFCURVE",
"34 65 CURVE SMOOTH",
"4 61 LINE",
"-1 56 OFFCURVE",
"-8 45 OFFCURVE",
"-11 34 CURVE",
"64 20 OFFCURVE",
"284 0 OFFCURVE",
"378 0 CURVE"
);
},
{
closed = 1;
nodes = (
"174 82 OFFCURVE",
"188 106 OFFCURVE",
"195 141 CURVE SMOOTH",
"278 569 LINE SMOOTH",
"286 608 OFFCURVE",
"298 650 OFFCURVE",
"354 650 CURVE SMOOTH",
"433 650 OFFCURVE",
"517 638 OFFCURVE",
"551 630 CURVE",
"571 607 OFFCURVE",
"581 572 OFFCURVE",
"581 522 CURVE SMOOTH",
"581 400 OFFCURVE",
"513 114 OFFCURVE",
"434 72 CURVE",
"165 72 LINE"
);
}
);
width = 700;
},
{
anchors = (
{
name = bottom;
position = "{331, 0}";
},
{
name = center;
position = "{400, 352}";
},
{
name = top;
position = "{447, 704}";
}
);
layerId = "28047205-16CB-4036-948B-FF1CDF00A7B3";
paths = (
{
closed = 1;
nodes = (
"432 0 OFFCURVE",
"562 47 OFFCURVE",
"620 94 CURVE",
"679 174 OFFCURVE",
"736 382 OFFCURVE",
"736 502 CURVE SMOOTH",
"736 546 OFFCURVE",
"729 590 OFFCURVE",
"713 629 CURVE",
"695 652 OFFCURVE",
"596 704 OFFCURVE",
"568 704 CURVE SMOOTH",
"182 704 LINE",
"171 704 OFFCURVE",
"127 686 OFFCURVE",
"112 671 CURVE",
"110 656 OFFCURVE",
"115 644 OFFCURVE",
"118 637 CURVE",
"214 637 LINE",
"210 635 OFFCURVE",
"192 617 OFFCURVE",
"180 558 CURVE SMOOTH",
"106 179 LINE SMOOTH",
"92 107 OFFCURVE",
"73 80 OFFCURVE",
"37 75 CURVE SMOOTH",
"5 71 LINE",
"0 65 OFFCURVE",
"-7 49 OFFCURVE",
"-11 35 CURVE",
"31 27 OFFCURVE",
"304 0 OFFCURVE",
"389 0 CURVE SMOOTH"
);
},
{
closed = 1;
nodes = (
"237 92 OFFCURVE",
"251 114 OFFCURVE",
"258 151 CURVE SMOOTH",
"337 555 LINE SMOOTH",
"346 600 OFFCURVE",
"360 633 OFFCURVE",
"416 633 CURVE SMOOTH",
"458 633 OFFCURVE",
"510 626 OFFCURVE",
"542 617 CURVE",
"564 591 OFFCURVE",
"568 555 OFFCURVE",
"570 506 CURVE SMOOTH",
"575 361 OFFCURVE",
"506 148 OFFCURVE",
"445 83 CURVE",
"226 83 LINE"
);
}
);
width = 748;
}
);
leftKerningGroup = H;
leftMetricsKey = H;
rightKerningGroup = O;
rightMetricsKey = O;
unicode = 0044;
},
{
color = 3;
glyphname = Eth;
layers = (
{
components = (
{
name = D;
}
);
layerId = "21A50CEC-A8F8-47E3-8EB4-99CD9DCFA5F3";
paths = (
{
closed = 1;
nodes = (
"126 340 LINE",
"177 341 LINE",
"395 341 LINE",
"403 351 OFFCURVE",
"408 361 OFFCURVE",
"415 380 CURVE",
"410 387 LINE",
"352 382 OFFCURVE",
"286 377 OFFCURVE",
"184 375 CURVE SMOOTH",
"133 374 LINE",
"72 374 LINE",
"67 370 OFFCURVE",
"62 360 OFFCURVE",
"57 340 CURVE"
);
}
);
width = 644;
},
{
components = (
{
name = D;
}
);
layerId = "1A804BEB-C033-4C3E-8D94-4E59A38AB1F5";
paths = (
{
closed = 1;
nodes = (
"134 325 LINE",
"216 325 LINE",
"411 325 LINE",
"416 334 OFFCURVE",
"426 355 OFFCURVE",
"434 387 CURVE",
"426 395 LINE",
"367 388 OFFCURVE",
"299 382 OFFCURVE",
"227 382 CURVE",
"144 375 LINE",
"66 373 LINE",
"61 370 OFFCURVE",
"53 356 OFFCURVE",
"46 325 CURVE"
);
}
);
width = 669;
},
{
components = (
{
name = D;
}
);
layerId = "BECA3017-CCCA-4A11-8E58-D2E4FEE6FE6A";
paths = (
{
closed = 1;
nodes = (
"124 313 LINE",
"278 319 LINE",
"457 319 LINE",
"463 330 OFFCURVE",
"473 353 OFFCURVE",
"481 384 CURVE",
"470 400 LINE",
"415 393 OFFCURVE",
"357 388 OFFCURVE",
"291 387 CURVE",
"137 381 LINE",
"61 381 LINE",
"53 370 OFFCURVE",
"42 341 OFFCURVE",
"37 313 CURVE"
);
}
);
width = 712;
},
{
components = (
{
name = D;
}
);
layerId = "A63AEE66-7D4A-459A-A35B-D6CC97B4CA0F";
paths = (
{
closed = 1;
nodes = (
"126 340 LINE",
"177 341 LINE",
"395 341 LINE",
"403 351 OFFCURVE",
"408 361 OFFCURVE",
"415 380 CURVE",
"410 387 LINE",
"352 382 OFFCURVE",
"286 377 OFFCURVE",
"184 375 CURVE SMOOTH",
"133 374 LINE",
"72 374 LINE",
"67 370 OFFCURVE",
"62 360 OFFCURVE",
"57 340 CURVE"
);
}
);
width = 673;
},
{
components = (
{
name = D;
}
);
layerId = "65812DC5-BB64-4CCF-B3BD-7266D8F2F6F4";
paths = (
{
closed = 1;
nodes = (
"134 325 LINE",
"216 325 LINE",
"411 325 LINE",
"416 334 OFFCURVE",
"426 355 OFFCURVE",
"434 387 CURVE",
"426 395 LINE",
"367 388 OFFCURVE",
"299 382 OFFCURVE",
"227 382 CURVE",
"144 375 LINE",
"66 373 LINE",
"61 370 OFFCURVE",
"53 356 OFFCURVE",
"46 325 CURVE"
);
}
);
width = 700;
},
{
components = (
{
name = D;
transform = "{1, 0, 0, 1, 5, 0}";
}
);
layerId = "28047205-16CB-4036-948B-FF1CDF00A7B3";
paths = (
{
closed = 1;
nodes = (
"129 313 LINE",
"283 319 LINE",
"462 319 LINE",
"468 330 OFFCURVE",
"478 353 OFFCURVE",
"486 384 CURVE",
"475 400 LINE",
"420 393 OFFCURVE",
"362 388 OFFCURVE",
"296 387 CURVE",
"142 381 LINE",
"66 381 LINE",
"58 370 OFFCURVE",
"47 341 OFFCURVE",
"42 313 CURVE"
);
}
);
width = 753;
}
);
leftKerningGroup = H;
leftMetricsKey = H;
rightKerningGroup = O;
rightMetricsKey = O;
unicode = 00D0;
},
{
color = 6;
glyphname = E;
layers = (
{
anchors = (
{
name = bottom;
position = "{218, 0}";
},
{
name = ogonek;
position = "{449, 0}";
},
{
name = top;
position = "{365, 704}";
},
{
name = topleft;
position = "{181, 704}";
}
);
layerId = "21A50CEC-A8F8-47E3-8EB4-99CD9DCFA5F3";
paths = (
{
closed = 1;
nodes = (
"405 4 OFFCURVE",
"443 24 OFFCURVE",
"460 35 CURVE",
"476 96 OFFCURVE",
"492 162 OFFCURVE",
"496 191 CURVE",
"493 194 OFFCURVE",
"483 200 OFFCURVE",
"470 200 CURVE",
"397 51 LINE",
"116 51 LINE",
"123 59 OFFCURVE",
"133 78 OFFCURVE",
"139 107 CURVE SMOOTH",
"186 347 LINE",
"402 347 LINE",
"408 355 OFFCURVE",
"416 371 OFFCURVE",
"422 390 CURVE",
"417 397 LINE",
"343 390 OFFCURVE",
"302 389 OFFCURVE",
"193 386 CURVE",
"235 597 LINE SMOOTH",
"246 654 OFFCURVE",
"266 668 OFFCURVE",
"308 668 CURVE SMOOTH",
"376 668 OFFCURVE",
"462 662 OFFCURVE",
"510 656 CURVE",
"499 515 LINE",
"503 512 OFFCURVE",
"514 507 OFFCURVE",
"527 509 CURVE",
"543 537 OFFCURVE",
"567 604 OFFCURVE",
"584 668 CURVE",
"572 682 OFFCURVE",
"547 695 OFFCURVE",
"524 704 CURVE",
"181 704 LINE SMOOTH",
"171 704 OFFCURVE",
"135 689 OFFCURVE",
"125 681 CURVE",
"125 673 OFFCURVE",
"127 667 OFFCURVE",
"129 664 CURVE",
"204 664 LINE",
"197 656 OFFCURVE",
"185 631 OFFCURVE",
"177 593 CURVE SMOOTH",
"86 121 LINE SMOOTH",
"75 65 OFFCURVE",
"61 51 OFFCURVE",
"31 47 CURVE SMOOTH",
"8 44 LINE",
"1 38 OFFCURVE",
"-2 30 OFFCURVE",
"-4 24 CURVE",
"82 12 OFFCURVE",
"315 0 OFFCURVE",
"385 0 CURVE"
);
}
);
width = 556;
},
{
anchors = (
{
name = bottom;
position = "{239, 0}";
},
{
name = ogonek;
position = "{470, 0}";
},
{
name = top;
position = "{386, 704}";
},
{
name = topleft;
position = "{180, 704}";
}
);
layerId = "1A804BEB-C033-4C3E-8D94-4E59A38AB1F5";
paths = (
{
closed = 1;
nodes = (
"426 0 OFFCURVE",
"474 29 OFFCURVE",
"494 46 CURVE",
"506 81 OFFCURVE",
"534 167 OFFCURVE",
"539 218 CURVE SMOOTH",
"540 225 OFFCURVE",
"517 234 OFFCURVE",
"496 234 CURVE",
"413 70 LINE",
"154 70 LINE",
"163 80 OFFCURVE",
"178 105 OFFCURVE",
"184 139 CURVE SMOOTH",
"222 334 LINE",
"420 334 LINE",
"426 342 OFFCURVE",
"435 363 OFFCURVE",
"442 393 CURVE",
"435 402 LINE",
"369 394 OFFCURVE",
"302 393 OFFCURVE",
"235 393 CURVE",
"269 571 LINE SMOOTH",
"276 607 OFFCURVE",
"289 653 OFFCURVE",
"343 653 CURVE SMOOTH",
"413 653 OFFCURVE",
"484 643 OFFCURVE",
"517 636 CURVE",
"515 498 LINE",
"522 493 OFFCURVE",
"543 482 OFFCURVE",
"559 492 CURVE SMOOTH",
"579 505 OFFCURVE",
"602 574 OFFCURVE",
"622 649 CURVE",
"606 671 OFFCURVE",
"569 694 OFFCURVE",
"539 704 CURVE",
"180 704 LINE SMOOTH",
"168 704 OFFCURVE",
"127 685 OFFCURVE",
"113 671 CURVE",
"113 662 OFFCURVE",
"118 655 OFFCURVE",
"121 652 CURVE",
"218 652 LINE",
"210 646 OFFCURVE",
"193 621 OFFCURVE",
"183 570 CURVE SMOOTH",
"105 164 LINE SMOOTH",
"91 91 OFFCURVE",
"83 70 OFFCURVE",
"35 63 CURVE SMOOTH",
"5 59 LINE",
"0 55 OFFCURVE",
"-8 44 OFFCURVE",
"-10 34 CURVE",
"66 19 OFFCURVE",
"305 0 OFFCURVE",
"406 0 CURVE SMOOTH"
);
}
);
width = 602;
},
{
anchors = (
{
name = bottom;
position = "{265, 0}";
},
{
name = ogonek;
position = "{510, 0}";
},
{
name = top;
position = "{412, 704}";
},
{
name = topleft;
position = "{171, 704}";
}
);
layerId = "BECA3017-CCCA-4A11-8E58-D2E4FEE6FE6A";
paths = (
{
closed = 1;
nodes = (
"490 0 OFFCURVE",
"532 29 OFFCURVE",
"546 46 CURVE",
"562 86 OFFCURVE",
"589 170 OFFCURVE",
"604 246 CURVE",
"592 254 OFFCURVE",
"561 265 OFFCURVE",
"524 265 CURVE",
"414 82 LINE",
"214 82 LINE",
"224 91 OFFCURVE",
"238 113 OFFCURVE",
"245 150 CURVE SMOOTH",
"280 328 LINE",
"459 328 LINE",
"465 339 OFFCURVE",
"475 364 OFFCURVE",
"483 393 CURVE",
"472 409 LINE",
"416 402 OFFCURVE",
"360 398 OFFCURVE",
"293 396 CURVE",
"325 558 LINE SMOOTH",
"332 592 OFFCURVE",
"343 634 OFFCURVE",
"395 634 CURVE SMOOTH",
"470 634 OFFCURVE",
"521 623 OFFCURVE",
"535 615 CURVE",
"533 469 LINE",
"547 463 OFFCURVE",
"578 455 OFFCURVE",
"607 455 CURVE",
"623 488 OFFCURVE",
"653 561 OFFCURVE",
"674 643 CURVE",
"663 667 OFFCURVE",
"635 693 OFFCURVE",
"615 704 CURVE",
"174 704 LINE SMOOTH",
"163 704 OFFCURVE",
"120 685 OFFCURVE",
"107 671 CURVE",
"105 656 OFFCURVE",
"109 644 OFFCURVE",
"112 638 CURVE",
"204 638 LINE",
"202 636 OFFCURVE",
"183 621 OFFCURVE",
"171 559 CURVE SMOOTH",
"97 178 LINE SMOOTH",
"83 106 OFFCURVE",
"67 79 OFFCURVE",
"30 74 CURVE SMOOTH",
"0 70 LINE",
"-5 64 OFFCURVE",
"-12 51 OFFCURVE",
"-16 35 CURVE",
"73 18 OFFCURVE",
"379 0 OFFCURVE",
"476 0 CURVE SMOOTH"
);
}
);
width = 650;
},
{
anchors = (
{
name = bottom;
position = "{224, 0}";
},
{
name = ogonek;
position = "{455, 0}";
},
{
name = top;
position = "{371, 704}";
},
{
name = topleft;
position = "{181, 704}";
}
);
layerId = "A63AEE66-7D4A-459A-A35B-D6CC97B4CA0F";
paths = (
{
closed = 1;
nodes = (
"407 2 OFFCURVE",
"452 24 OFFCURVE",
"471 39 CURVE",
"485 89 OFFCURVE",
"506 162 OFFCURVE",
"510 200 CURVE",
"509 205 OFFCURVE",
"494 212 OFFCURVE",
"479 212 CURVE",
"402 58 LINE",
"129 58 LINE",
"138 68 OFFCURVE",
"149 91 OFFCURVE",
"155 119 CURVE SMOOTH",
"199 341 LINE",
"418 341 LINE",
"426 354 OFFCURVE",
"431 369 OFFCURVE",
"438 391 CURVE",
"430 402 LINE",
"327 392 OFFCURVE",
"292 391 OFFCURVE",
"207 388 CURVE",
"246 588 LINE SMOOTH",
"256 639 OFFCURVE",
"274 662 OFFCURVE",
"320 662 CURVE SMOOTH",
"386 662 OFFCURVE",
"471 655 OFFCURVE",
"511 649 CURVE",
"504 509 LINE",
"508 506 OFFCURVE",
"524 498 OFFCURVE",
"537 503 CURVE",
"556 527 OFFCURVE",
"579 596 OFFCURVE",
"596 661 CURVE",
"584 677 OFFCURVE",
"557 693 OFFCURVE",
"527 704 CURVE",
"181 704 LINE SMOOTH",
"170 704 OFFCURVE",
"130 687 OFFCURVE",
"119 678 CURVE",
"119 667 OFFCURVE",
"123 662 OFFCURVE",
"126 660 CURVE",
"210 660 LINE",
"199 651 OFFCURVE",
"187 621 OFFCURVE",
"179 584 CURVE SMOOTH",
"92 137 LINE SMOOTH",
"77 58 OFFCURVE",
"58 56 OFFCURVE",
"31 53 CURVE SMOOTH",
"6 50 LINE",
"-1 42 OFFCURVE",
"-4 37 OFFCURVE",
"-7 27 CURVE",
"73 15 OFFCURVE",
"308 0 OFFCURVE",
"391 0 CURVE"
);
}
);
width = 571;
},
{
anchors = (
{
name = bottom;
position = "{240, 0}";
},
{
name = ogonek;
position = "{472, 0}";
},
{
name = top;
position = "{387, 704}";
},
{
name = topleft;
position = "{180, 704}";
}
);
layerId = "65812DC5-BB64-4CCF-B3BD-7266D8F2F6F4";
paths = (
{
closed = 1;
nodes = (
"428 0 OFFCURVE",
"475 29 OFFCURVE",
"495 46 CURVE",
"508 83 OFFCURVE",
"535 165 OFFCURVE",
"540 217 CURVE SMOOTH",
"541 226 OFFCURVE",
"519 234 OFFCURVE",
"498 234 CURVE",
"414 70 LINE",
"154 70 LINE",
"163 80 OFFCURVE",
"178 104 OFFCURVE",
"185 139 CURVE SMOOTH",
"223 334 LINE",
"431 334 LINE",
"437 342 OFFCURVE",
"446 363 OFFCURVE",
"453 393 CURVE",
"443 406 LINE",
"382 399 OFFCURVE",
"316 389 OFFCURVE",
"234 389 CURVE",
"270 571 LINE SMOOTH",
"278 613 OFFCURVE",
"293 653 OFFCURVE",
"344 653 CURVE SMOOTH",
"416 653 OFFCURVE",
"483 643 OFFCURVE",
"518 635 CURVE",
"516 498 LINE",
"521 494 OFFCURVE",
"545 482 OFFCURVE",
"559 491 CURVE SMOOTH",
"582 506 OFFCURVE",
"604 577 OFFCURVE",
"624 649 CURVE",
"607 671 OFFCURVE",
"571 693 OFFCURVE",
"540 704 CURVE",
"180 704 LINE SMOOTH",
"169 704 OFFCURVE",
"127 685 OFFCURVE",
"113 671 CURVE",
"113 661 OFFCURVE",
"118 655 OFFCURVE",
"121 652 CURVE",
"219 652 LINE",
"210 646 OFFCURVE",
"194 619 OFFCURVE",
"184 570 CURVE SMOOTH",
"105 164 LINE SMOOTH",
"91 91 OFFCURVE",
"83 69 OFFCURVE",
"35 63 CURVE SMOOTH",
"5 59 LINE",
"0 55 OFFCURVE",
"-8 45 OFFCURVE",
"-10 34 CURVE",
"67 19 OFFCURVE",
"305 0 OFFCURVE",
"407 0 CURVE SMOOTH"
);
}
);
width = 604;
},
{
anchors = (
{
name = bottom;
position = "{281, 0}";
},
{
name = ogonek;
position = "{535, 0}";
},
{
name = top;
position = "{428, 704}";
},
{
name = topleft;
position = "{179, 704}";
}
);
layerId = "28047205-16CB-4036-948B-FF1CDF00A7B3";
paths = (
{
closed = 1;
nodes = (
"513 0 OFFCURVE",
"557 29 OFFCURVE",
"572 46 CURVE",
"588 86 OFFCURVE",
"615 169 OFFCURVE",
"630 248 CURVE",
"618 256 OFFCURVE",
"587 267 OFFCURVE",
"548 267 CURVE",
"436 83 LINE",
"226 83 LINE",
"237 93 OFFCURVE",
"251 114 OFFCURVE",
"258 151 CURVE SMOOTH",
"293 327 LINE",
"489 327 LINE",
"496 340 OFFCURVE",
"505 362 OFFCURVE",
"514 393 CURVE",
"502 413 LINE",
"437 406 OFFCURVE",
"388 403 OFFCURVE",
"308 400 CURVE",
"338 557 LINE SMOOTH",
"346 600 OFFCURVE",
"361 633 OFFCURVE",
"410 633 CURVE SMOOTH",
"485 633 OFFCURVE",
"542 622 OFFCURVE",
"557 614 CURVE",
"556 467 LINE",
"570 461 OFFCURVE",
"604 453 OFFCURVE",
"633 453 CURVE",
"649 486 OFFCURVE",
"679 562 OFFCURVE",
"701 642 CURVE",
"687 669 OFFCURVE",
"656 694 OFFCURVE",
"637 704 CURVE",
"182 704 LINE SMOOTH",
"170 704 OFFCURVE",
"125 685 OFFCURVE",
"112 671 CURVE",
"110 655 OFFCURVE",
"114 645 OFFCURVE",
"117 637 CURVE",
"214 637 LINE",
"212 636 OFFCURVE",
"192 621 OFFCURVE",
"180 558 CURVE SMOOTH",
"106 180 LINE SMOOTH",
"92 107 OFFCURVE",
"75 79 OFFCURVE",
"37 75 CURVE SMOOTH",
"5 71 LINE",
"0 65 OFFCURVE",
"-7 49 OFFCURVE",
"-11 35 CURVE",
"81 18 OFFCURVE",
"399 0 OFFCURVE",
"499 0 CURVE SMOOTH"
);
}
);
width = 683;
}
);
leftKerningGroup = H;
leftMetricsKey = H;
rightKerningGroup = E;
unicode = 0045;
},
{
color = 6;
glyphname = F;
layers = (
{
anchors = (
{
name = bottom;
position = "{206, 0}";
},
{
name = top;
position = "{343, 704}";
}
);
layerId = "21A50CEC-A8F8-47E3-8EB4-99CD9DCFA5F3";
paths = (
{
closed = 1;
nodes = (
"148 0 OFFCURVE",
"177 11 OFFCURVE",
"199 24 CURVE",
"199 28 OFFCURVE",
"198 39 OFFCURVE",
"195 42 CURVE",
"116 50 LINE",
"122 57 OFFCURVE",
"133 77 OFFCURVE",
"139 107 CURVE SMOOTH",
"186 347 LINE",
"396 347 LINE",
"401 354 OFFCURVE",
"409 371 OFFCURVE",
"416 390 CURVE",
"411 397 LINE",
"336 390 OFFCURVE",
"298 389 OFFCURVE",
"193 386 CURVE",
"235 597 LINE SMOOTH",
"246 654 OFFCURVE",
"266 668 OFFCURVE",
"308 668 CURVE SMOOTH",
"369 668 OFFCURVE",
"446 662 OFFCURVE",
"492 656 CURVE",
"482 515 LINE",
"485 512 OFFCURVE",
"496 507 OFFCURVE",
"509 509 CURVE",
"525 537 OFFCURVE",
"548 603 OFFCURVE",
"566 668 CURVE",
"554 682 OFFCURVE",
"529 695 OFFCURVE",
"506 704 CURVE",
"181 704 LINE SMOOTH",
"171 704 OFFCURVE",
"135 689 OFFCURVE",
"125 681 CURVE",
"125 673 OFFCURVE",
"127 667 OFFCURVE",
"129 664 CURVE",
"204 664 LINE",
"198 658 OFFCURVE",
"185 632 OFFCURVE",
"177 593 CURVE SMOOTH",
"85 121 LINE SMOOTH",
"73 58 OFFCURVE",
"55 51 OFFCURVE",
"31 46 CURVE SMOOTH",
"7 42 LINE",
"1 37 OFFCURVE",
"-2 30 OFFCURVE",
"-4 24 CURVE",
"22 15 OFFCURVE",
"104 0 OFFCURVE",
"124 0 CURVE SMOOTH"
);
}
);
width = 510;
},
{
anchors = (
{
name = bottom;
position = "{227, 0}";
},
{
name = top;
position = "{364, 704}";
}
);
layerId = "1A804BEB-C033-4C3E-8D94-4E59A38AB1F5";
paths = (
{
closed = 1;
nodes = (
"198 0 OFFCURVE",
"238 15 OFFCURVE",
"262 34 CURVE",
"262 44 OFFCURVE",
"257 54 OFFCURVE",
"254 57 CURVE",
"154 68 LINE",
"163 77 OFFCURVE",
"178 102 OFFCURVE",
"185 136 CURVE SMOOTH",
"223 333 LINE",
"429 333 LINE",
"435 341 OFFCURVE",
"444 362 OFFCURVE",
"452 392 CURVE",
"444 401 LINE",
"388 394 OFFCURVE",
"311 393 OFFCURVE",
"235 392 CURVE",
"269 571 LINE SMOOTH",
"276 607 OFFCURVE",
"288 653 OFFCURVE",
"343 653 CURVE SMOOTH",
"417 653 OFFCURVE",
"484 643 OFFCURVE",
"511 636 CURVE",
"508 498 LINE",
"511 495 OFFCURVE",
"534 481 OFFCURVE",
"551 492 CURVE SMOOTH",
"574 507 OFFCURVE",
"598 589 OFFCURVE",
"614 649 CURVE",
"598 671 OFFCURVE",
"567 692 OFFCURVE",
"532 704 CURVE",
"180 704 LINE SMOOTH",
"168 704 OFFCURVE",
"127 685 OFFCURVE",
"113 671 CURVE",
"113 662 OFFCURVE",
"118 655 OFFCURVE",
"121 652 CURVE",
"218 652 LINE",
"210 646 OFFCURVE",
"193 621 OFFCURVE",
"183 570 CURVE SMOOTH",
"105 165 LINE SMOOTH",
"91 92 OFFCURVE",
"83 70 OFFCURVE",
"35 63 CURVE SMOOTH",
"5 59 LINE",
"0 55 OFFCURVE",
"-8 44 OFFCURVE",
"-10 34 CURVE",
"16 24 OFFCURVE",
"150 0 OFFCURVE",
"174 0 CURVE SMOOTH"
);
}
);
width = 551;
},
{
anchors = (
{
name = bottom;
position = "{254, 0}";
},
{
name = top;
position = "{391, 704}";
}
);
layerId = "BECA3017-CCCA-4A11-8E58-D2E4FEE6FE6A";
paths = (
{
closed = 1;
nodes = (
"251 0 OFFCURVE",
"297 17 OFFCURVE",
"320 35 CURVE",
"323 50 OFFCURVE",
"320 63 OFFCURVE",
"318 68 CURVE",
"217 82 LINE",
"227 91 OFFCURVE",
"241 113 OFFCURVE",
"248 150 CURVE SMOOTH",
"281 318 LINE",
"457 318 LINE",
"463 329 OFFCURVE",
"473 354 OFFCURVE",
"481 383 CURVE",
"470 399 LINE",
"416 392 OFFCURVE",
"362 388 OFFCURVE",
"294 385 CURVE",
"327 554 LINE SMOOTH",
"338 608 OFFCURVE",
"353 634 OFFCURVE",
"401 634 CURVE SMOOTH",
"476 634 OFFCURVE",
"519 623 OFFCURVE",
"528 615 CURVE",
"526 469 LINE",
"541 463 OFFCURVE",
"573 455 OFFCURVE",
"604 455 CURVE",
"620 488 OFFCURVE",
"650 561 OFFCURVE",
"671 643 CURVE",
"659 667 OFFCURVE",
"631 693 OFFCURVE",
"608 704 CURVE",
"174 704 LINE SMOOTH",
"163 704 OFFCURVE",
"120 685 OFFCURVE",
"107 671 CURVE",
"105 656 OFFCURVE",
"109 644 OFFCURVE",
"112 638 CURVE",
"204 638 LINE",
"202 636 OFFCURVE",
"183 622 OFFCURVE",
"171 559 CURVE SMOOTH",
"97 178 LINE SMOOTH",
"83 106 OFFCURVE",
"66 79 OFFCURVE",
"30 74 CURVE SMOOTH",
"0 70 LINE",
"-5 64 OFFCURVE",
"-12 51 OFFCURVE",
"-16 35 CURVE",
"10 25 OFFCURVE",
"201 0 OFFCURVE",
"225 0 CURVE SMOOTH"
);
}
);
width = 605;
},
{
anchors = (
{
name = bottom;
position = "{221, 0}";
},
{
name = top;
position = "{357, 704}";
}
);
layerId = "A63AEE66-7D4A-459A-A35B-D6CC97B4CA0F";
paths = (
{
closed = 1;
nodes = (
"169 0 OFFCURVE",
"200 12 OFFCURVE",
"225 28 CURVE",
"225 35 OFFCURVE",
"223 44 OFFCURVE",
"220 47 CURVE",
"131 57 LINE",
"138 65 OFFCURVE",
"150 86 OFFCURVE",
"157 118 CURVE SMOOTH",
"202 342 LINE",
"429 342 LINE",
"438 356 OFFCURVE",
"444 373 OFFCURVE",
"449 391 CURVE",
"441 403 LINE",
"380 397 OFFCURVE",
"309 391 OFFCURVE",
"210 389 CURVE",
"250 587 LINE SMOOTH",
"259 633 OFFCURVE",
"273 663 OFFCURVE",
"325 663 CURVE SMOOTH",
"390 663 OFFCURVE",
"469 655 OFFCURVE",
"512 649 CURVE",
"504 508 LINE",
"509 505 OFFCURVE",
"523 500 OFFCURVE",
"539 502 CURVE",
"557 531 OFFCURVE",
"579 593 OFFCURVE",
"597 660 CURVE",
"582 680 OFFCURVE",
"553 695 OFFCURVE",
"528 704 CURVE",
"182 704 LINE SMOOTH",
"170 704 OFFCURVE",
"132 687 OFFCURVE",
"120 677 CURVE",
"120 670 OFFCURVE",
"122 664 OFFCURVE",
"126 659 CURVE",
"211 659 LINE",
"204 653 OFFCURVE",
"189 629 OFFCURVE",
"180 584 CURVE SMOOTH",
"93 138 LINE SMOOTH",
"80 71 OFFCURVE",
"65 59 OFFCURVE",
"32 53 CURVE SMOOTH",
"6 49 LINE",
"1 45 OFFCURVE",
"-5 35 OFFCURVE",
"-7 28 CURVE",
"20 18 OFFCURVE",
"125 0 OFFCURVE",
"143 0 CURVE SMOOTH"
);
}
);
width = 543;
},
{
anchors = (
{
name = bottom;
position = "{238, 0}";
},
{
name = top;
position = "{374, 704}";
}
);
layerId = "65812DC5-BB64-4CCF-B3BD-7266D8F2F6F4";
paths = (
{
closed = 1;
nodes = (
"206 0 OFFCURVE",
"249 16 OFFCURVE",
"272 34 CURVE",
"273 47 OFFCURVE",
"267 55 OFFCURVE",
"265 59 CURVE",
"164 70 LINE",
"173 79 OFFCURVE",
"187 105 OFFCURVE",
"194 138 CURVE SMOOTH",
"232 332 LINE",
"454 332 LINE",
"459 341 OFFCURVE",
"467 358 OFFCURVE",
"476 392 CURVE",
"466 407 LINE",
"405 400 OFFCURVE",
"329 389 OFFCURVE",
"244 389 CURVE",
"279 569 LINE SMOOTH",
"288 615 OFFCURVE",
"305 650 OFFCURVE",
"355 650 CURVE SMOOTH",
"424 650 OFFCURVE",
"496 641 OFFCURVE",
"526 634 CURVE",
"523 494 LINE",
"529 490 OFFCURVE",
"554 476 OFFCURVE",
"572 488 CURVE SMOOTH",
"595 503 OFFCURVE",
"620 590 OFFCURVE",
"635 648 CURVE",
"619 670 OFFCURVE",
"585 693 OFFCURVE",
"551 704 CURVE",
"181 704 LINE SMOOTH",
"168 704 OFFCURVE",
"127 685 OFFCURVE",
"113 671 CURVE",
"113 662 OFFCURVE",
"116 655 OFFCURVE",
"120 650 CURVE",
"218 650 LINE",
"210 644 OFFCURVE",
"193 622 OFFCURVE",
"183 568 CURVE SMOOTH",
"104 167 LINE SMOOTH",
"90 95 OFFCURVE",
"79 72 OFFCURVE",
"34 65 CURVE SMOOTH",
"4 61 LINE",
"-1 56 OFFCURVE",
"-8 45 OFFCURVE",
"-11 34 CURVE",
"16 24 OFFCURVE",
"159 0 OFFCURVE",
"182 0 CURVE SMOOTH"
);
}
);
width = 577;
},
{
anchors = (
{
name = bottom;
position = "{270, 0}";
},
{
name = top;
position = "{407, 704}";
}
);
layerId = "28047205-16CB-4036-948B-FF1CDF00A7B3";
paths = (
{
closed = 1;
nodes = (
"265 0 OFFCURVE",
"314 17 OFFCURVE",
"337 35 CURVE",
"340 51 OFFCURVE",
"337 62 OFFCURVE",
"335 69 CURVE",
"229 83 LINE",
"240 92 OFFCURVE",
"254 115 OFFCURVE",
"261 151 CURVE SMOOTH",
"294 317 LINE",
"489 317 LINE",
"494 327 OFFCURVE",
"504 351 OFFCURVE",
"513 383 CURVE",
"502 403 LINE",
"446 396 OFFCURVE",
"384 392 OFFCURVE",
"309 389 CURVE",
"340 553 LINE SMOOTH",
"350 604 OFFCURVE",
"363 633 OFFCURVE",
"417 633 CURVE SMOOTH",
"494 633 OFFCURVE",
"540 622 OFFCURVE",
"550 614 CURVE",
"549 467 LINE",
"565 461 OFFCURVE",
"600 453 OFFCURVE",
"630 453 CURVE",
"646 485 OFFCURVE",
"677 560 OFFCURVE",
"698 642 CURVE",
"686 667 OFFCURVE",
"658 691 OFFCURVE",
"631 704 CURVE",
"182 704 LINE SMOOTH",
"171 704 OFFCURVE",
"125 685 OFFCURVE",
"112 671 CURVE",
"110 656 OFFCURVE",
"115 644 OFFCURVE",
"118 637 CURVE",
"214 637 LINE",
"210 635 OFFCURVE",
"192 618 OFFCURVE",
"180 558 CURVE SMOOTH",
"106 179 LINE SMOOTH",
"92 107 OFFCURVE",
"73 80 OFFCURVE",
"37 75 CURVE SMOOTH",
"5 71 LINE",
"0 65 OFFCURVE",
"-7 49 OFFCURVE",
"-11 35 CURVE",
"16 25 OFFCURVE",
"216 0 OFFCURVE",
"239 0 CURVE SMOOTH"
);
}
);
width = 637;
}
);
leftKerningGroup = H;
leftMetricsKey = H;
rightKerningGroup = F;
unicode = 0046;
},
{
color = 6;
glyphname = G;
layers = (
{
anchors = (
{
name = bottom;
position = "{286, 0}";
},
{
name = top;
position = "{406, 704}";
}
);
layerId = "21A50CEC-A8F8-47E3-8EB4-99CD9DCFA5F3";
paths = (
{
closed = 1;
nodes = (
"350 0 OFFCURVE",
"470 38 OFFCURVE",
"513 63 CURVE",
"531 159 LINE",
"550 254 OFFCURVE",
"573 328 OFFCURVE",
"584 352 CURVE",
"577 360 LINE",
"516 353 OFFCURVE",
"435 348 OFFCURVE",
"373 348 CURVE",
"368 343 OFFCURVE",
"361 329 OFFCURVE",
"356 307 CURVE",
"513 307 LINE",
"505 294 OFFCURVE",
"491 254 OFFCURVE",
"481 203 CURVE SMOOTH",
"457 79 LINE",
"422 67 OFFCURVE",
"343 48 OFFCURVE",
"298 48 CURVE SMOOTH",
"249 48 OFFCURVE",
"155 96 OFFCURVE",
"131 131 CURVE",
"125 148 OFFCURVE",
"123 175 OFFCURVE",
"123 208 CURVE SMOOTH",
"123 324 OFFCURVE",
"179 541 OFFCURVE",
"228 615 CURVE",
"276 640 OFFCURVE",
"370 670 OFFCURVE",
"414 670 CURVE SMOOTH",
"453 670 OFFCURVE",
"518 652 OFFCURVE",
"545 633 CURVE",
"536 516 LINE",
"538 513 OFFCURVE",
"554 506 OFFCURVE",
"566 508 CURVE",
"581 537 OFFCURVE",
"604 608 OFFCURVE",
"617 658 CURVE",
"581 688 OFFCURVE",
"502 720 OFFCURVE",
"444 720 CURVE SMOOTH",
"363 720 OFFCURVE",
"228 659 OFFCURVE",
"171 620 CURVE",
"118 538 OFFCURVE",
"61 321 OFFCURVE",
"61 204 CURVE SMOOTH",
"61 159 OFFCURVE",
"66 120 OFFCURVE",
"78 95 CURVE",
"106 57 OFFCURVE",
"206 0 OFFCURVE",
"267 0 CURVE SMOOTH"
);
}
);
width = 633;
},
{
anchors = (
{
name = bottom;
position = "{294, 0}";
},
{
name = top;
position = "{405, 704}";
}
);
layerId = "1A804BEB-C033-4C3E-8D94-4E59A38AB1F5";
paths = (
{
closed = 1;
nodes = (
"377 0 OFFCURVE",
"483 41 OFFCURVE",
"526 66 CURVE",
"538 124 LINE SMOOTH",
"556 212 OFFCURVE",
"586 320 OFFCURVE",
"597 354 CURVE",
"590 362 LINE",
"535 356 OFFCURVE",
"409 348 OFFCURVE",
"368 348 CURVE",
"358 336 OFFCURVE",
"350 316 OFFCURVE",
"344 291 CURVE",
"495 291 LINE",
"487 275 OFFCURVE",
"474 238 OFFCURVE",
"464 188 CURVE SMOOTH",
"445 91 LINE",
"408 81 OFFCURVE",
"362 71 OFFCURVE",
"299 71 CURVE SMOOTH",
"259 71 OFFCURVE",
"179 113 OFFCURVE",
"156 143 CURVE",
"152 158 OFFCURVE",
"152 184 OFFCURVE",
"152 210 CURVE SMOOTH",
"152 307 OFFCURVE",
"202 521 OFFCURVE",
"255 610 CURVE",
"300 632 OFFCURVE",
"368 649 OFFCURVE",
"409 649 CURVE SMOOTH",
"440 649 OFFCURVE",
"505 630 OFFCURVE",
"526 619 CURVE",
"523 498 LINE",
"525 495 OFFCURVE",
"547 480 OFFCURVE",
"568 493 CURVE SMOOTH",
"589 506 OFFCURVE",
"613 596 OFFCURVE",
"629 657 CURVE",
"593 688 OFFCURVE",
"517 720 OFFCURVE",
"437 720 CURVE SMOOTH",
"340 720 OFFCURVE",
"228 658 OFFCURVE",
"165 607 CURVE",
"118 540 OFFCURVE",
"54 312 OFFCURVE",
"54 193 CURVE SMOOTH",
"54 151 OFFCURVE",
"60 121 OFFCURVE",
"74 98 CURVE SMOOTH",
"101 56 OFFCURVE",
"200 0 OFFCURVE",
"269 0 CURVE SMOOTH"
);
}
);
width = 642;
},
{
anchors = (
{
name = bottom;
position = "{296, 0}";
},
{
name = top;
position = "{405, 704}";
}
);
layerId = "BECA3017-CCCA-4A11-8E58-D2E4FEE6FE6A";
paths = (
{
closed = 1;
nodes = (
"372 0 OFFCURVE",
"502 42 OFFCURVE",
"549 69 CURVE",
"570 180 LINE SMOOTH",
"585 260 OFFCURVE",
"612 328 OFFCURVE",
"623 356 CURVE",
"614 369 LINE",
"553 362 OFFCURVE",
"441 356 OFFCURVE",
"364 356 CURVE",
"353 337 OFFCURVE",
"342 313 OFFCURVE",
"335 284 CURVE",
"465 284 LINE",
"459 271 OFFCURVE",
"447 242 OFFCURVE",
"441 209 CURVE SMOOTH",
"422 110 LINE",
"396 104 OFFCURVE",
"350 89 OFFCURVE",
"313 89 CURVE SMOOTH",
"291 89 OFFCURVE",
"227 124 OFFCURVE",
"212 141 CURVE",
"210 153 OFFCURVE",
"205 185 OFFCURVE",
"205 204 CURVE SMOOTH",
"205 316 OFFCURVE",
"256 520 OFFCURVE",
"301 607 CURVE",
"331 617 OFFCURVE",
"387 624 OFFCURVE",
"420 624 CURVE SMOOTH",
"442 624 OFFCURVE",
"487 615 OFFCURVE",
"507 604 CURVE",
"516 467 LINE",
"529 462 OFFCURVE",
"561 455 OFFCURVE",
"601 455 CURVE",
"618 493 OFFCURVE",
"646 563 OFFCURVE",
"663 649 CURVE",
"623 690 OFFCURVE",
"529 720 OFFCURVE",
"446 720 CURVE SMOOTH",
"373 720 OFFCURVE",
"214 659 OFFCURVE",
"144 597 CURVE",
"89 515 OFFCURVE",
"48 299 OFFCURVE",
"48 197 CURVE SMOOTH",
"48 165 OFFCURVE",
"52 130 OFFCURVE",
"60 110 CURVE",
"78 85 OFFCURVE",
"167 0 OFFCURVE",
"265 0 CURVE SMOOTH"
);
}
);
width = 657;
},
{
anchors = (
{
name = bottom;
position = "{299, 0}";
},
{
name = top;
position = "{416, 704}";
}
);
layerId = "A63AEE66-7D4A-459A-A35B-D6CC97B4CA0F";
paths = (
{
closed = 1;
nodes = (
"373 0 OFFCURVE",
"494 40 OFFCURVE",
"537 64 CURVE",
"553 146 LINE",
"573 250 OFFCURVE",
"595 314 OFFCURVE",
"608 353 CURVE",
"597 365 LINE",
"532 358 OFFCURVE",
"443 352 OFFCURVE",
"373 352 CURVE",
"368 347 OFFCURVE",
"359 325 OFFCURVE",
"354 301 CURVE",
"525 301 LINE",
"517 287 OFFCURVE",
"503 245 OFFCURVE",
"493 197 CURVE SMOOTH",
"470 84 LINE",
"436 73 OFFCURVE",
"357 58 OFFCURVE",
"306 58 CURVE SMOOTH",
"250 58 OFFCURVE",
"168 104 OFFCURVE",
"145 136 CURVE",
"139 152 OFFCURVE",
"135 179 OFFCURVE",
"135 211 CURVE SMOOTH",
"135 331 OFFCURVE",
"187 534 OFFCURVE",
"238 613 CURVE",
"285 636 OFFCURVE",
"377 662 OFFCURVE",
"423 662 CURVE SMOOTH",
"461 662 OFFCURVE",
"531 643 OFFCURVE",
"555 628 CURVE",
"548 509 LINE",
"552 505 OFFCURVE",
"565 500 OFFCURVE",
"586 501 CURVE",
"604 535 OFFCURVE",
"626 608 OFFCURVE",
"639 658 CURVE",
"602 688 OFFCURVE",
"520 720 OFFCURVE",
"454 720 CURVE SMOOTH",
"363 720 OFFCURVE",
"230 662 OFFCURVE",
"168 620 CURVE",
"117 545 OFFCURVE",
"59 324 OFFCURVE",
"59 203 CURVE SMOOTH",
"59 160 OFFCURVE",
"65 120 OFFCURVE",
"78 97 CURVE",
"108 54 OFFCURVE",
"208 0 OFFCURVE",
"278 0 CURVE SMOOTH"
);
}
);
width = 662;
},
{
anchors = (
{
name = bottom;
position = "{308, 0}";
},
{
name = top;
position = "{419, 704}";
}
);
layerId = "65812DC5-BB64-4CCF-B3BD-7266D8F2F6F4";
paths = (
{
closed = 1;
nodes = (
"389 0 OFFCURVE",
"507 41 OFFCURVE",
"552 66 CURVE",
"565 133 LINE SMOOTH",
"583 225 OFFCURVE",
"612 315 OFFCURVE",
"624 354 CURVE",
"612 368 LINE",
"553 361 OFFCURVE",
"404 352 OFFCURVE",
"371 352 CURVE",
"363 342 OFFCURVE",
"356 318 OFFCURVE",
"349 290 CURVE",
"513 290 LINE",
"505 273 OFFCURVE",
"492 232 OFFCURVE",
"483 190 CURVE SMOOTH",
"463 94 LINE",
"425 84 OFFCURVE",
"373 74 OFFCURVE",
"315 74 CURVE SMOOTH",
"271 74 OFFCURVE",
"193 116 OFFCURVE",
"171 145 CURVE",
"166 160 OFFCURVE",
"163 184 OFFCURVE",
"163 212 CURVE SMOOTH",
"163 328 OFFCURVE",
"212 522 OFFCURVE",
"264 610 CURVE",
"309 630 OFFCURVE",
"381 646 OFFCURVE",
"426 646 CURVE SMOOTH",
"457 646 OFFCURVE",
"521 628 OFFCURVE",
"543 617 CURVE",
"542 493 LINE",
"548 489 OFFCURVE",
"574 477 OFFCURVE",
"592 488 CURVE SMOOTH",
"615 502 OFFCURVE",
"637 583 OFFCURVE",
"655 656 CURVE",
"616 688 OFFCURVE",
"535 720 OFFCURVE",
"454 720 CURVE SMOOTH",
"356 720 OFFCURVE",
"229 661 OFFCURVE",
"162 610 CURVE",
"114 542 OFFCURVE",
"56 317 OFFCURVE",
"56 196 CURVE SMOOTH",
"56 150 OFFCURVE",
"64 119 OFFCURVE",
"77 99 CURVE SMOOTH",
"100 64 OFFCURVE",
"204 0 OFFCURVE",
"282 0 CURVE SMOOTH"
);
}
);
width = 675;
},
{
anchors = (
{
name = bottom;
position = "{315, 0}";
},
{
name = top;
position = "{423, 704}";
}
);
layerId = "28047205-16CB-4036-948B-FF1CDF00A7B3";
paths = (
{
closed = 1;
nodes = (
"393 0 OFFCURVE",
"529 42 OFFCURVE",
"577 69 CURVE",
"598 182 LINE SMOOTH",
"613 262 OFFCURVE",
"640 326 OFFCURVE",
"652 356 CURVE",
"637 377 LINE",
"574 370 OFFCURVE",
"444 366 OFFCURVE",
"371 366 CURVE",
"360 347 OFFCURVE",
"351 313 OFFCURVE",
"343 283 CURVE",
"489 283 LINE",
"478 259 OFFCURVE",
"470 238 OFFCURVE",
"465 210 CURVE SMOOTH",
"446 111 LINE",
"421 106 OFFCURVE",
"367 90 OFFCURVE",
"326 90 CURVE SMOOTH",
"303 90 OFFCURVE",
"240 125 OFFCURVE",
"225 141 CURVE",
"222 155 OFFCURVE",
"217 185 OFFCURVE",
"217 206 CURVE SMOOTH",
"217 320 OFFCURVE",
"268 521 OFFCURVE",
"314 607 CURVE",
"345 616 OFFCURVE",
"402 623 OFFCURVE",
"439 623 CURVE SMOOTH",
"462 623 OFFCURVE",
"509 614 OFFCURVE",
"530 603 CURVE",
"540 465 LINE",
"555 460 OFFCURVE",
"588 453 OFFCURVE",
"628 453 CURVE",
"644 489 OFFCURVE",
"673 559 OFFCURVE",
"691 649 CURVE",
"649 690 OFFCURVE",
"551 720 OFFCURVE",
"465 720 CURVE SMOOTH",
"389 720 OFFCURVE",
"225 662 OFFCURVE",
"153 603 CURVE",
"97 522 OFFCURVE",
"55 305 OFFCURVE",
"55 200 CURVE SMOOTH",
"55 166 OFFCURVE",
"60 130 OFFCURVE",
"69 111 CURVE",
"87 87 OFFCURVE",
"181 0 OFFCURVE",
"283 0 CURVE SMOOTH"
);
}
);
width = 693;
}
);
leftKerningGroup = O;
leftMetricsKey = O;
rightKerningGroup = G;
unicode = 0047;
},
{
color = 6;
glyphname = H;
layers = (
{
anchors = (
{
name = bottom;
position = "{289, 0}";
},
{
name = center;
position = "{390, 532}";
},
{
name = top;
position = "{426, 704}";
},
{
name = topleft;
position = "{180, 704}";
}
);
layerId = "21A50CEC-A8F8-47E3-8EB4-99CD9DCFA5F3";
paths = (
{
closed = 1;
nodes = (
"143 0 OFFCURVE",
"174 9 OFFCURVE",
"198 24 CURVE",
"199 33 OFFCURVE",
"196 38 OFFCURVE",
"194 42 CURVE",
"116 50 LINE",
"122 57 OFFCURVE",
"132 80 OFFCURVE",
"138 107 CURVE SMOOTH",
"185 347 LINE",
"524 347 LINE",
"480 121 LINE SMOOTH",
"467 52 OFFCURVE",
"445 50 OFFCURVE",
"426 46 CURVE SMOOTH",
"401 42 LINE",
"399 40 OFFCURVE",
"392 31 OFFCURVE",
"390 24 CURVE",
"416 15 OFFCURVE",
"499 0 OFFCURVE",
"519 0 CURVE SMOOTH",
"537 0 OFFCURVE",
"569 9 OFFCURVE",
"593 24 CURVE",
"593 28 OFFCURVE",
"592 40 OFFCURVE",
"589 42 CURVE",
"510 50 LINE",
"517 57 OFFCURVE",
"527 80 OFFCURVE",
"533 107 CURVE SMOOTH",
"626 579 LINE",
"637 640 OFFCURVE",
"651 656 OFFCURVE",
"681 666 CURVE SMOOTH",
"721 679 LINE",
"722 694 OFFCURVE",
"717 699 OFFCURVE",
"713 704 CURVE",
"576 704 LINE SMOOTH",
"565 704 OFFCURVE",
"530 689 OFFCURVE",
"519 681 CURVE",
"519 672 OFFCURVE",
"522 667 OFFCURVE",
"524 664 CURVE",
"599 664 LINE",
"592 656 OFFCURVE",
"580 635 OFFCURVE",
"571 592 CURVE SMOOTH",
"533 397 LINE",
"458 391 OFFCURVE",
"336 385 OFFCURVE",
"193 385 CURVE",
"230 580 LINE SMOOTH",
"243 646 OFFCURVE",
"257 657 OFFCURVE",
"287 666 CURVE SMOOTH",
"326 679 LINE",
"328 693 OFFCURVE",
"322 699 OFFCURVE",
"318 704 CURVE",
"180 704 LINE SMOOTH",
"171 704 OFFCURVE",
"135 689 OFFCURVE",
"125 681 CURVE",
"125 672 OFFCURVE",
"127 667 OFFCURVE",
"129 664 CURVE",
"204 664 LINE",
"196 656 OFFCURVE",
"183 627 OFFCURVE",
"176 592 CURVE SMOOTH",
"86 121 LINE SMOOTH",
"74 57 OFFCURVE",
"54 48 OFFCURVE",
"31 45 CURVE SMOOTH",
"7 42 LINE",
"1 37 OFFCURVE",
"-2 29 OFFCURVE",
"-4 24 CURVE",
"21 15 OFFCURVE",
"106 0 OFFCURVE",
"124 0 CURVE SMOOTH"
);
}
);
width = 677;
},
{
anchors = (
{
name = bottom;
position = "{314, 0}";
},
{
name = center;
position = "{420, 532}";
},
{
name = top;
position = "{451, 704}";
},
{
name = topleft;
position = "{180, 704}";
}
);
layerId = "1A804BEB-C033-4C3E-8D94-4E59A38AB1F5";
paths = (
{
closed = 1;
nodes = (
"198 0 OFFCURVE",
"239 16 OFFCURVE",
"261 34 CURVE",
"261 43 OFFCURVE",
"256 53 OFFCURVE",
"253 57 CURVE",
"154 68 LINE",
"163 77 OFFCURVE",
"177 104 OFFCURVE",
"184 136 CURVE SMOOTH",
"222 334 LINE",
"530 334 LINE",
"497 165 LINE SMOOTH",
"483 92 OFFCURVE",
"475 70 OFFCURVE",
"428 63 CURVE SMOOTH",
"398 59 LINE",
"394 56 OFFCURVE",
"385 46 OFFCURVE",
"383 34 CURVE",
"409 24 OFFCURVE",
"542 0 OFFCURVE",
"566 0 CURVE SMOOTH",
"592 0 OFFCURVE",
"631 16 OFFCURVE",
"653 34 CURVE",
"653 45 OFFCURVE",
"648 55 OFFCURVE",
"646 57 CURVE",
"546 68 LINE",
"555 77 OFFCURVE",
"570 101 OFFCURVE",
"577 136 CURVE SMOOTH",
"662 571 LINE SMOOTH",
"672 625 OFFCURVE",
"684 644 OFFCURVE",
"730 657 CURVE SMOOTH",
"777 670 LINE",
"778 688 OFFCURVE",
"770 700 OFFCURVE",
"766 704 CURVE",
"573 704 LINE SMOOTH",
"561 704 OFFCURVE",
"521 686 OFFCURVE",
"506 671 CURVE",
"505 662 OFFCURVE",
"511 655 OFFCURVE",
"513 652 CURVE",
"611 652 LINE",
"603 647 OFFCURVE",
"586 620 OFFCURVE",
"576 570 CURVE SMOOTH",
"543 401 LINE",
"481 396 OFFCURVE",
"322 389 OFFCURVE",
"234 389 CURVE",
"269 571 LINE SMOOTH",
"279 624 OFFCURVE",
"291 644 OFFCURVE",
"337 657 CURVE SMOOTH",
"385 670 LINE",
"385 688 OFFCURVE",
"378 700 OFFCURVE",
"373 704 CURVE",
"180 704 LINE SMOOTH",
"168 704 OFFCURVE",
"127 685 OFFCURVE",
"113 671 CURVE",
"114 660 OFFCURVE",
"118 656 OFFCURVE",
"121 652 CURVE",
"218 652 LINE",
"210 646 OFFCURVE",
"192 622 OFFCURVE",
"183 570 CURVE SMOOTH",
"105 165 LINE SMOOTH",
"91 92 OFFCURVE",
"83 70 OFFCURVE",
"35 63 CURVE SMOOTH",
"5 59 LINE",
"0 55 OFFCURVE",
"-8 44 OFFCURVE",
"-10 34 CURVE",
"16 24 OFFCURVE",
"150 0 OFFCURVE",
"174 0 CURVE SMOOTH"
);
}
);
width = 726;
},
{
anchors = (
{
name = bottom;
position = "{341, 0}";
},
{
name = center;
position = "{446, 532}";
},
{
name = top;
position = "{478, 704}";
},
{
name = topleft;
position = "{171, 704}";
}
);
layerId = "BECA3017-CCCA-4A11-8E58-D2E4FEE6FE6A";
paths = (
{
closed = 1;
nodes = (
"248 0 OFFCURVE",
"285 17 OFFCURVE",
"307 35 CURVE",
"310 50 OFFCURVE",
"308 63 OFFCURVE",
"306 68 CURVE",
"215 82 LINE",
"224 91 OFFCURVE",
"239 116 OFFCURVE",
"246 150 CURVE SMOOTH",
"280 328 LINE",
"526 328 LINE",
"497 178 LINE SMOOTH",
"483 106 OFFCURVE",
"467 79 OFFCURVE",
"430 74 CURVE SMOOTH",
"400 70 LINE",
"395 64 OFFCURVE",
"387 50 OFFCURVE",
"384 35 CURVE",
"410 25 OFFCURVE",
"598 0 OFFCURVE",
"623 0 CURVE SMOOTH",
"648 0 OFFCURVE",
"685 17 OFFCURVE",
"707 35 CURVE",
"710 50 OFFCURVE",
"708 63 OFFCURVE",
"706 68 CURVE",
"615 82 LINE",
"624 91 OFFCURVE",
"639 116 OFFCURVE",
"646 150 CURVE SMOOTH",
"725 557 LINE",
"735 610 OFFCURVE",
"748 631 OFFCURVE",
"789 643 CURVE SMOOTH",
"834 656 LINE",
"838 678 OFFCURVE",
"835 696 OFFCURVE",
"830 704 CURVE",
"574 704 LINE SMOOTH",
"562 704 OFFCURVE",
"521 685 OFFCURVE",
"507 671 CURVE",
"505 656 OFFCURVE",
"510 643 OFFCURVE",
"513 638 CURVE",
"605 638 LINE",
"602 636 OFFCURVE",
"583 621 OFFCURVE",
"571 559 CURVE SMOOTH",
"542 407 LINE",
"494 402 OFFCURVE",
"406 396 OFFCURVE",
"294 396 CURVE",
"325 557 LINE SMOOTH",
"335 610 OFFCURVE",
"349 632 OFFCURVE",
"389 643 CURVE SMOOTH",
"434 656 LINE",
"438 678 OFFCURVE",
"435 696 OFFCURVE",
"430 704 CURVE",
"174 704 LINE SMOOTH",
"162 704 OFFCURVE",
"121 685 OFFCURVE",
"107 671 CURVE",
"105 656 OFFCURVE",
"110 643 OFFCURVE",
"113 638 CURVE",
"205 638 LINE",
"202 636 OFFCURVE",
"183 621 OFFCURVE",
"171 559 CURVE SMOOTH",
"97 178 LINE SMOOTH",
"83 106 OFFCURVE",
"67 79 OFFCURVE",
"30 74 CURVE SMOOTH",
"0 70 LINE",
"-5 64 OFFCURVE",
"-13 50 OFFCURVE",
"-16 35 CURVE",
"10 25 OFFCURVE",
"198 0 OFFCURVE",
"223 0 CURVE SMOOTH"
);
}
);
width = 780;
},
{
anchors = (
{
name = bottom;
position = "{299, 0}";
},
{
name = center;
position = "{402, 532}";
},
{
name = top;
position = "{436, 704}";
},
{
name = topleft;
position = "{180, 704}";
}
);
layerId = "A63AEE66-7D4A-459A-A35B-D6CC97B4CA0F";
paths = (
{
closed = 1;
nodes = (
"166 0 OFFCURVE",
"199 12 OFFCURVE",
"223 28 CURVE",
"223 37 OFFCURVE",
"220 44 OFFCURVE",
"218 48 CURVE",
"130 57 LINE",
"137 65 OFFCURVE",
"149 86 OFFCURVE",
"156 119 CURVE SMOOTH",
"199 341 LINE",
"526 341 LINE",
"487 139 LINE SMOOTH",
"474 73 OFFCURVE",
"462 55 OFFCURVE",
"426 52 CURVE SMOOTH",
"399 49 LINE",
"396 46 OFFCURVE",
"389 38 OFFCURVE",
"387 28 CURVE",
"413 19 OFFCURVE",
"514 0 OFFCURVE",
"537 0 CURVE SMOOTH",
"561 0 OFFCURVE",
"594 13 OFFCURVE",
"617 28 CURVE",
"617 36 OFFCURVE",
"613 46 OFFCURVE",
"610 48 CURVE",
"523 57 LINE",
"531 65 OFFCURVE",
"543 88 OFFCURVE",
"549 118 CURVE SMOOTH",
"639 576 LINE",
"651 647 OFFCURVE",
"672 654 OFFCURVE",
"699 663 CURVE SMOOTH",
"742 676 LINE",
"744 694 OFFCURVE",
"736 700 OFFCURVE",
"733 704 CURVE",
"573 704 LINE SMOOTH",
"564 704 OFFCURVE",
"526 688 OFFCURVE",
"513 677 CURVE",
"513 669 OFFCURVE",
"516 662 OFFCURVE",
"518 659 CURVE",
"603 659 LINE",
"596 652 OFFCURVE",
"583 629 OFFCURVE",
"573 583 CURVE SMOOTH",
"537 399 LINE",
"471 395 OFFCURVE",
"329 391 OFFCURVE",
"209 391 CURVE",
"245 576 LINE SMOOTH",
"257 638 OFFCURVE",
"271 652 OFFCURVE",
"306 663 CURVE SMOOTH",
"350 676 LINE",
"350 691 OFFCURVE",
"344 699 OFFCURVE",
"340 704 CURVE",
"180 704 LINE SMOOTH",
"167 704 OFFCURVE",
"130 686 OFFCURVE",
"119 677 CURVE",
"119 668 OFFCURVE",
"122 663 OFFCURVE",
"126 659 CURVE",
"210 659 LINE",
"202 653 OFFCURVE",
"187 624 OFFCURVE",
"179 583 CURVE SMOOTH",
"93 139 LINE SMOOTH",
"79 66 OFFCURVE",
"63 58 OFFCURVE",
"32 53 CURVE SMOOTH",
"6 49 LINE",
"3 47 OFFCURVE",
"-5 37 OFFCURVE",
"-7 28 CURVE",
"18 19 OFFCURVE",
"122 0 OFFCURVE",
"143 0 CURVE SMOOTH"
);
}
);
width = 695;
},
{
anchors = (
{
name = bottom;
position = "{315, -2}";
},
{
name = center;
position = "{421, 534}";
},
{
name = top;
position = "{452, 704}";
},
{
name = topleft;
position = "{180, 704}";
}
);
layerId = "65812DC5-BB64-4CCF-B3BD-7266D8F2F6F4";
paths = (
{
closed = 1;
nodes = (
"200 0 OFFCURVE",
"241 17 OFFCURVE",
"261 34 CURVE",
"262 42 OFFCURVE",
"257 52 OFFCURVE",
"254 57 CURVE",
"154 68 LINE",
"163 77 OFFCURVE",
"178 102 OFFCURVE",
"185 136 CURVE SMOOTH",
"223 334 LINE",
"531 334 LINE",
"499 165 LINE SMOOTH",
"483 83 OFFCURVE",
"473 69 OFFCURVE",
"429 63 CURVE SMOOTH",
"399 59 LINE",
"393 54 OFFCURVE",
"385 44 OFFCURVE",
"384 34 CURVE",
"410 24 OFFCURVE",
"543 0 OFFCURVE",
"568 0 CURVE SMOOTH",
"592 0 OFFCURVE",
"633 16 OFFCURVE",
"655 34 CURVE",
"655 45 OFFCURVE",
"650 54 OFFCURVE",
"647 57 CURVE",
"548 68 LINE",
"556 76 OFFCURVE",
"572 102 OFFCURVE",
"579 136 CURVE SMOOTH",
"663 571 LINE SMOOTH",
"673 624 OFFCURVE",
"685 645 OFFCURVE",
"731 657 CURVE SMOOTH",
"779 670 LINE",
"780 692 OFFCURVE",
"771 700 OFFCURVE",
"768 704 CURVE",
"574 704 LINE SMOOTH",
"562 704 OFFCURVE",
"521 685 OFFCURVE",
"507 671 CURVE",
"506 663 OFFCURVE",
"511 656 OFFCURVE",
"514 652 CURVE",
"612 652 LINE",
"604 646 OFFCURVE",
"587 621 OFFCURVE",
"577 570 CURVE SMOOTH",
"545 401 LINE",
"481 398 OFFCURVE",
"323 394 OFFCURVE",
"235 394 CURVE",
"270 571 LINE SMOOTH",
"280 621 OFFCURVE",
"290 645 OFFCURVE",
"338 657 CURVE SMOOTH",
"386 670 LINE",
"386 687 OFFCURVE",
"379 700 OFFCURVE",
"374 704 CURVE",
"180 704 LINE SMOOTH",
"169 704 OFFCURVE",
"127 685 OFFCURVE",
"113 671 CURVE",
"114 660 OFFCURVE",
"118 656 OFFCURVE",
"121 652 CURVE",
"219 652 LINE",
"210 646 OFFCURVE",
"194 619 OFFCURVE",
"184 570 CURVE SMOOTH",
"105 165 LINE SMOOTH",
"91 92 OFFCURVE",
"83 70 OFFCURVE",
"35 63 CURVE SMOOTH",
"5 59 LINE",
"0 55 OFFCURVE",
"-8 44 OFFCURVE",
"-10 34 CURVE",
"16 24 OFFCURVE",
"151 0 OFFCURVE",
"174 0 CURVE SMOOTH"
);
}
);
width = 728;
},
{
anchors = (
{
name = bottom;
position = "{364, -24}";
},
{
name = center;
position = "{461, 556}";
},
{
name = top;
position = "{497, 704}";
},
{
name = topleft;
position = "{179, 704}";
}
);
layerId = "28047205-16CB-4036-948B-FF1CDF00A7B3";
paths = (
{
closed = 1;
nodes = (
"263 0 OFFCURVE",
"302 17 OFFCURVE",
"324 35 CURVE",
"327 50 OFFCURVE",
"325 65 OFFCURVE",
"323 69 CURVE",
"227 83 LINE",
"236 92 OFFCURVE",
"252 116 OFFCURVE",
"259 151 CURVE SMOOTH",
"293 327 LINE",
"551 327 LINE",
"522 180 LINE SMOOTH",
"507 104 OFFCURVE",
"490 80 OFFCURVE",
"452 75 CURVE SMOOTH",
"421 71 LINE",
"416 65 OFFCURVE",
"407 51 OFFCURVE",
"405 35 CURVE",
"432 25 OFFCURVE",
"628 0 OFFCURVE",
"653 0 CURVE SMOOTH",
"679 0 OFFCURVE",
"717 17 OFFCURVE",
"740 35 CURVE",
"743 51 OFFCURVE",
"740 64 OFFCURVE",
"738 69 CURVE",
"643 83 LINE",
"652 92 OFFCURVE",
"667 117 OFFCURVE",
"674 151 CURVE SMOOTH",
"754 556 LINE",
"764 609 OFFCURVE",
"777 630 OFFCURVE",
"820 642 CURVE SMOOTH",
"867 655 LINE",
"871 677 OFFCURVE",
"867 696 OFFCURVE",
"862 704 CURVE",
"597 704 LINE SMOOTH",
"585 704 OFFCURVE",
"542 685 OFFCURVE",
"527 671 CURVE",
"525 654 OFFCURVE",
"531 644 OFFCURVE",
"534 637 CURVE",
"631 637 LINE",
"616 626 OFFCURVE",
"603 598 OFFCURVE",
"596 558 CURVE SMOOTH",
"567 407 LINE",
"516 405 OFFCURVE",
"411 402 OFFCURVE",
"308 402 CURVE",
"338 556 LINE SMOOTH",
"348 610 OFFCURVE",
"362 630 OFFCURVE",
"404 642 CURVE SMOOTH",
"451 655 LINE",
"455 678 OFFCURVE",
"452 695 OFFCURVE",
"447 704 CURVE",
"182 704 LINE SMOOTH",
"170 704 OFFCURVE",
"126 685 OFFCURVE",
"112 671 CURVE",
"110 656 OFFCURVE",
"115 642 OFFCURVE",
"118 637 CURVE",
"215 637 LINE",
"201 629 OFFCURVE",
"188 601 OFFCURVE",
"180 558 CURVE SMOOTH",
"106 180 LINE SMOOTH",
"92 107 OFFCURVE",
"75 80 OFFCURVE",
"37 75 CURVE SMOOTH",
"5 71 LINE",
"0 65 OFFCURVE",
"-8 49 OFFCURVE",
"-11 35 CURVE",
"16 25 OFFCURVE",
"214 0 OFFCURVE",
"237 0 CURVE SMOOTH"
);
}
);
width = 818;
}
);
leftKerningGroup = H;
rightKerningGroup = H;
unicode = 0048;
},
{
color = 6;
glyphname = I;
layers = (
{
anchors = (
{
name = bottom;
position = "{93, 0}";
},
{
name = ogonek;
position = "{172, 0}";
},
{
name = top;
position = "{230, 704}";
},
{
name = topleft;
position = "{180, 704}";
}
);
layerId = "21A50CEC-A8F8-47E3-8EB4-99CD9DCFA5F3";
paths = (
{
closed = 1;
nodes = (
"143 0 OFFCURVE",
"173 9 OFFCURVE",
"198 24 CURVE",
"198 33 OFFCURVE",
"196 39 OFFCURVE",
"194 42 CURVE",
"115 50 LINE",
"121 57 OFFCURVE",
"132 78 OFFCURVE",
"138 107 CURVE SMOOTH",
"231 580 LINE SMOOTH",
"241 632 OFFCURVE",
"253 655 OFFCURVE",
"286 666 CURVE SMOOTH",
"326 679 LINE",
"327 692 OFFCURVE",
"322 700 OFFCURVE",
"318 704 CURVE",
"180 704 LINE SMOOTH",
"169 704 OFFCURVE",
"134 688 OFFCURVE",
"125 681 CURVE",
"125 673 OFFCURVE",
"127 667 OFFCURVE",
"129 664 CURVE",
"204 664 LINE",
"197 657 OFFCURVE",
"185 632 OFFCURVE",
"177 593 CURVE SMOOTH",
"85 121 LINE SMOOTH",
"72 52 OFFCURVE",
"51 50 OFFCURVE",
"31 46 CURVE SMOOTH",
"7 42 LINE",
"4 40 OFFCURVE",
"-3 32 OFFCURVE",
"-4 24 CURVE",
"22 15 OFFCURVE",
"103 0 OFFCURVE",
"123 0 CURVE SMOOTH"
);
}
);
width = 282;
},
{
anchors = (
{
name = bottom;
position = "{119, 0}";
},
{
name = ogonek;
position = "{203, 0}";
},
{
name = top;
position = "{256, 704}";
},
{
name = topleft;
position = "{180, 704}";
}
);
layerId = "1A804BEB-C033-4C3E-8D94-4E59A38AB1F5";
paths = (
{
closed = 1;
nodes = (
"198 0 OFFCURVE",
"239 16 OFFCURVE",
"261 34 CURVE",
"261 43 OFFCURVE",
"256 53 OFFCURVE",
"253 57 CURVE",
"154 68 LINE",
"163 78 OFFCURVE",
"177 102 OFFCURVE",
"184 136 CURVE SMOOTH",
"269 571 LINE SMOOTH",
"279 624 OFFCURVE",
"292 644 OFFCURVE",
"337 657 CURVE SMOOTH",
"386 670 LINE",
"386 686 OFFCURVE",
"379 698 OFFCURVE",
"374 704 CURVE",
"180 704 LINE SMOOTH",
"168 704 OFFCURVE",
"127 685 OFFCURVE",
"113 671 CURVE",
"114 660 OFFCURVE",
"118 656 OFFCURVE",
"121 652 CURVE",
"218 652 LINE",
"215 651 OFFCURVE",
"196 634 OFFCURVE",
"184 573 CURVE SMOOTH",
"105 164 LINE SMOOTH",
"89 82 OFFCURVE",
"79 69 OFFCURVE",
"35 63 CURVE SMOOTH",
"5 59 LINE",
"0 55 OFFCURVE",
"-8 44 OFFCURVE",
"-10 34 CURVE",
"16 24 OFFCURVE",
"150 0 OFFCURVE",
"174 0 CURVE SMOOTH"
);
}
);
width = 335;
},
{
anchors = (
{
name = bottom;
position = "{141, 0}";
},
{
name = ogonek;
position = "{230, 0}";
},
{
name = top;
position = "{278, 704}";
},
{
name = topleft;
position = "{172, 704}";
}
);
layerId = "BECA3017-CCCA-4A11-8E58-D2E4FEE6FE6A";
paths = (
{
closed = 1;
nodes = (
"247 0 OFFCURVE",
"284 17 OFFCURVE",
"306 35 CURVE",
"309 50 OFFCURVE",
"307 63 OFFCURVE",
"305 68 CURVE",
"214 82 LINE",
"223 91 OFFCURVE",
"238 116 OFFCURVE",
"245 150 CURVE SMOOTH",
"324 557 LINE SMOOTH",
"334 610 OFFCURVE",
"347 631 OFFCURVE",
"388 643 CURVE SMOOTH",
"433 656 LINE",
"437 678 OFFCURVE",
"434 696 OFFCURVE",
"429 704 CURVE",
"174 704 LINE SMOOTH",
"162 704 OFFCURVE",
"121 685 OFFCURVE",
"107 671 CURVE",
"105 656 OFFCURVE",
"110 643 OFFCURVE",
"113 638 CURVE",
"205 638 LINE",
"202 636 OFFCURVE",
"183 621 OFFCURVE",
"171 559 CURVE SMOOTH",
"97 178 LINE SMOOTH",
"83 106 OFFCURVE",
"67 79 OFFCURVE",
"30 74 CURVE SMOOTH",
"0 70 LINE",
"-5 64 OFFCURVE",
"-13 50 OFFCURVE",
"-16 35 CURVE",
"10 25 OFFCURVE",
"197 0 OFFCURVE",
"222 0 CURVE SMOOTH"
);
}
);
width = 379;
},
{
anchors = (
{
name = bottom;
position = "{103, 0}";
},
{
name = ogonek;
position = "{183, 0}";
},
{
name = top;
position = "{240, 704}";
},
{
name = topleft;
position = "{180, 704}";
}
);
layerId = "A63AEE66-7D4A-459A-A35B-D6CC97B4CA0F";
paths = (
{
closed = 1;
nodes = (
"167 0 OFFCURVE",
"200 13 OFFCURVE",
"223 28 CURVE",
"223 38 OFFCURVE",
"219 46 OFFCURVE",
"218 48 CURVE",
"129 57 LINE",
"138 67 OFFCURVE",
"150 90 OFFCURVE",
"156 119 CURVE SMOOTH",
"245 576 LINE SMOOTH",
"255 629 OFFCURVE",
"267 652 OFFCURVE",
"306 663 CURVE SMOOTH",
"350 676 LINE",
"351 690 OFFCURVE",
"344 698 OFFCURVE",
"339 704 CURVE",
"180 704 LINE SMOOTH",
"167 704 OFFCURVE",
"130 686 OFFCURVE",
"119 677 CURVE",
"119 669 OFFCURVE",
"122 663 OFFCURVE",
"126 659 CURVE",
"210 659 LINE",
"204 654 OFFCURVE",
"190 633 OFFCURVE",
"180 585 CURVE SMOOTH",
"93 139 LINE SMOOTH",
"78 62 OFFCURVE",
"62 58 OFFCURVE",
"32 53 CURVE SMOOTH",
"6 49 LINE",
"1 46 OFFCURVE",
"-5 38 OFFCURVE",
"-7 28 CURVE",
"19 19 OFFCURVE",
"120 0 OFFCURVE",
"143 0 CURVE SMOOTH"
);
}
);
width = 302;
},
{
anchors = (
{
name = bottom;
position = "{119, 0}";
},
{
name = ogonek;
position = "{204, 0}";
},
{
name = top;
position = "{256, 704}";
},
{
name = topleft;
position = "{180, 704}";
}
);
layerId = "65812DC5-BB64-4CCF-B3BD-7266D8F2F6F4";
paths = (
{
closed = 1;
nodes = (
"199 0 OFFCURVE",
"239 16 OFFCURVE",
"261 34 CURVE",
"261 41 OFFCURVE",
"258 52 OFFCURVE",
"254 57 CURVE",
"154 68 LINE",
"163 77 OFFCURVE",
"178 102 OFFCURVE",
"185 136 CURVE SMOOTH",
"270 571 LINE SMOOTH",
"280 624 OFFCURVE",
"291 646 OFFCURVE",
"337 657 CURVE SMOOTH",
"387 670 LINE",
"387 685 OFFCURVE",
"380 698 OFFCURVE",
"375 704 CURVE",
"180 704 LINE SMOOTH",
"169 704 OFFCURVE",
"127 685 OFFCURVE",
"113 671 CURVE",
"114 660 OFFCURVE",
"118 656 OFFCURVE",
"121 652 CURVE",
"218 652 LINE",
"215 650 OFFCURVE",
"198 635 OFFCURVE",
"185 573 CURVE SMOOTH",
"105 164 LINE SMOOTH",
"91 92 OFFCURVE",
"84 70 OFFCURVE",
"35 63 CURVE SMOOTH",
"5 59 LINE",
"0 55 OFFCURVE",
"-8 44 OFFCURVE",
"-10 34 CURVE",
"16 24 OFFCURVE",
"151 0 OFFCURVE",
"174 0 CURVE SMOOTH"
);
}
);
width = 336;
},
{
anchors = (
{
name = bottom;
position = "{152, 0}";
},
{
name = ogonek;
position = "{245, 0}";
},
{
name = top;
position = "{289, 704}";
},
{
name = topleft;
position = "{180, 704}";
}
);
layerId = "28047205-16CB-4036-948B-FF1CDF00A7B3";
paths = (
{
closed = 1;
nodes = (
"261 0 OFFCURVE",
"301 17 OFFCURVE",
"323 35 CURVE",
"325 46 OFFCURVE",
"325 63 OFFCURVE",
"322 69 CURVE",
"226 83 LINE",
"235 92 OFFCURVE",
"251 116 OFFCURVE",
"258 151 CURVE SMOOTH",
"337 556 LINE SMOOTH",
"347 609 OFFCURVE",
"360 631 OFFCURVE",
"403 642 CURVE SMOOTH",
"451 655 LINE",
"455 680 OFFCURVE",
"450 697 OFFCURVE",
"446 704 CURVE",
"182 704 LINE SMOOTH",
"170 704 OFFCURVE",
"126 685 OFFCURVE",
"112 671 CURVE",
"110 656 OFFCURVE",
"115 642 OFFCURVE",
"118 637 CURVE",
"215 637 LINE",
"212 635 OFFCURVE",
"192 620 OFFCURVE",
"180 558 CURVE SMOOTH",
"106 180 LINE SMOOTH",
"92 107 OFFCURVE",
"75 80 OFFCURVE",
"37 75 CURVE SMOOTH",
"5 71 LINE",
"0 65 OFFCURVE",
"-8 49 OFFCURVE",
"-11 35 CURVE",
"16 25 OFFCURVE",
"213 0 OFFCURVE",
"236 0 CURVE SMOOTH"
);
}
);
width = 402;
}
);
leftKerningGroup = H;
leftMetricsKey = H;
rightKerningGroup = H;
rightMetricsKey = H;
unicode = 0049;
},
{
color = 6;
glyphname = J;
layers = (
{
anchors = (
{
name = bottom;
position = "{91, 0}";
},
{
name = top;
position = "{226, 704}";
}
);
layerId = "21A50CEC-A8F8-47E3-8EB4-99CD9DCFA5F3";
paths = (
{
closed = 1;
nodes = (
"-10 -200 OFFCURVE",
"98 -86 OFFCURVE",
"105 -49 CURVE SMOOTH",
"230 579 LINE SMOOTH",
"241 633 OFFCURVE",
"253 655 OFFCURVE",
"287 666 CURVE SMOOTH",
"326 679 LINE",
"328 693 OFFCURVE",
"321 699 OFFCURVE",
"318 704 CURVE",
"181 704 LINE SMOOTH",
"170 704 OFFCURVE",
"135 689 OFFCURVE",
"125 681 CURVE",
"124 670 OFFCURVE",
"128 666 OFFCURVE",
"129 664 CURVE",
"204 664 LINE",
"197 656 OFFCURVE",
"184 633 OFFCURVE",
"176 592 CURVE SMOOTH",
"49 -65 LINE",
"25 -97 OFFCURVE",
"-32 -141 OFFCURVE",
"-109 -162 CURVE",
"-114 -166 OFFCURVE",
"-119 -176 OFFCURVE",
"-120 -182 CURVE",
"-102 -193 OFFCURVE",
"-59 -200 OFFCURVE",
"-41 -200 CURVE SMOOTH"
);
}
);
width = 275;
},
{
anchors = (
{
name = bottom;
position = "{118, 0}";
},
{
name = top;
position = "{252, 704}";
}
);
layerId = "1A804BEB-C033-4C3E-8D94-4E59A38AB1F5";
paths = (
{
closed = 1;
nodes = (
"5 -200 OFFCURVE",
"111 -97 OFFCURVE",
"153 -26 CURVE",
"269 571 LINE SMOOTH",
"279 624 OFFCURVE",
"292 644 OFFCURVE",
"337 657 CURVE SMOOTH",
"384 670 LINE",
"385 684 OFFCURVE",
"378 697 OFFCURVE",
"373 704 CURVE",
"180 704 LINE SMOOTH",
"167 704 OFFCURVE",
"127 685 OFFCURVE",
"113 671 CURVE",
"113 662 OFFCURVE",
"117 656 OFFCURVE",
"120 652 CURVE",
"218 652 LINE",
"210 647 OFFCURVE",
"193 620 OFFCURVE",
"183 570 CURVE SMOOTH",
"61 -61 LINE",
"23 -89 OFFCURVE",
"-40 -126 OFFCURVE",
"-109 -147 CURVE",
"-113 -150 OFFCURVE",
"-118 -156 OFFCURVE",
"-121 -169 CURVE",
"-103 -185 OFFCURVE",
"-58 -200 OFFCURVE",
"-29 -200 CURVE SMOOTH"
);
}
);
width = 332;
},
{
anchors = (
{
name = bottom;
position = "{142, 0}";
},
{
name = top;
position = "{273, 704}";
}
);
layerId = "BECA3017-CCCA-4A11-8E58-D2E4FEE6FE6A";
paths = (
{
closed = 1;
nodes = (
"26 -201 OFFCURVE",
"169 -85 OFFCURVE",
"219 26 CURVE",
"323 557 LINE SMOOTH",
"333 610 OFFCURVE",
"349 632 OFFCURVE",
"386 643 CURVE SMOOTH",
"432 656 LINE",
"436 678 OFFCURVE",
"432 695 OFFCURVE",
"428 704 CURVE",
"173 704 LINE SMOOTH",
"162 704 OFFCURVE",
"121 686 OFFCURVE",
"106 671 CURVE",
"104 656 OFFCURVE",
"108 644 OFFCURVE",
"111 638 CURVE",
"203 638 LINE",
"201 636 OFFCURVE",
"182 621 OFFCURVE",
"170 559 CURVE SMOOTH",
"55 -33 LINE",
"12 -63 OFFCURVE",
"-55 -90 OFFCURVE",
"-134 -113 CURVE",
"-139 -122 OFFCURVE",
"-147 -137 OFFCURVE",
"-151 -156 CURVE",
"-121 -178 OFFCURVE",
"-71 -201 OFFCURVE",
"-35 -201 CURVE SMOOTH"
);
}
);
width = 360;
},
{
anchors = (
{
name = bottom;
position = "{109, 0}";
},
{
name = top;
position = "{243, 704}";
}
);
layerId = "A63AEE66-7D4A-459A-A35B-D6CC97B4CA0F";
paths = (
{
closed = 1;
nodes = (
"15 -200 OFFCURVE",
"116 -92 OFFCURVE",
"124 -52 CURVE SMOOTH",
"252 577 LINE SMOOTH",
"264 634 OFFCURVE",
"278 652 OFFCURVE",
"314 663 CURVE SMOOTH",
"357 676 LINE",
"358 690 OFFCURVE",
"352 698 OFFCURVE",
"348 704 CURVE",
"188 704 LINE SMOOTH",
"177 704 OFFCURVE",
"139 688 OFFCURVE",
"127 677 CURVE",
"126 667 OFFCURVE",
"130 663 OFFCURVE",
"132 659 CURVE",
"217 659 LINE",
"211 654 OFFCURVE",
"195 631 OFFCURVE",
"186 584 CURVE SMOOTH",
"60 -64 LINE",
"36 -94 OFFCURVE",
"-26 -134 OFFCURVE",
"-106 -156 CURVE",
"-111 -160 OFFCURVE",
"-116 -170 OFFCURVE",
"-118 -177 CURVE",
"-99 -190 OFFCURVE",
"-48 -200 OFFCURVE",
"-25 -200 CURVE SMOOTH"
);
}
);
width = 311;
},
{
anchors = (
{
name = bottom;
position = "{129, 0}";
},
{
name = top;
position = "{262, 704}";
}
);
layerId = "65812DC5-BB64-4CCF-B3BD-7266D8F2F6F4";
paths = (
{
closed = 1;
nodes = (
"11 -200 OFFCURVE",
"122 -96 OFFCURVE",
"160 -19 CURVE",
"275 569 LINE SMOOTH",
"285 622 OFFCURVE",
"299 644 OFFCURVE",
"343 655 CURVE SMOOTH",
"391 668 LINE",
"393 685 OFFCURVE",
"384 699 OFFCURVE",
"381 704 CURVE",
"186 704 LINE SMOOTH",
"174 704 OFFCURVE",
"134 686 OFFCURVE",
"118 671 CURVE",
"118 663 OFFCURVE",
"122 654 OFFCURVE",
"126 650 CURVE",
"223 650 LINE",
"217 645 OFFCURVE",
"200 624 OFFCURVE",
"189 568 CURVE SMOOTH",
"67 -57 LINE",
"26 -86 OFFCURVE",
"-37 -120 OFFCURVE",
"-110 -142 CURVE",
"-114 -146 OFFCURVE",
"-120 -155 OFFCURVE",
"-123 -167 CURVE",
"-103 -184 OFFCURVE",
"-54 -200 OFFCURVE",
"-26 -200 CURVE SMOOTH"
);
}
);
width = 341;
},
{
anchors = (
{
name = bottom;
position = "{153, 0}";
},
{
name = top;
position = "{284, 704}";
}
);
layerId = "28047205-16CB-4036-948B-FF1CDF00A7B3";
paths = (
{
closed = 1;
nodes = (
"33 -201 OFFCURVE",
"181 -85 OFFCURVE",
"232 29 CURVE",
"336 556 LINE SMOOTH",
"347 610 OFFCURVE",
"362 631 OFFCURVE",
"402 642 CURVE SMOOTH",
"450 655 LINE",
"454 681 OFFCURVE",
"448 696 OFFCURVE",
"445 704 CURVE",
"181 704 LINE SMOOTH",
"168 704 OFFCURVE",
"127 686 OFFCURVE",
"111 671 CURVE",
"109 656 OFFCURVE",
"114 643 OFFCURVE",
"117 637 CURVE",
"213 637 LINE",
"210 635 OFFCURVE",
"191 619 OFFCURVE",
"179 558 CURVE SMOOTH",
"64 -32 LINE",
"17 -63 OFFCURVE",
"-54 -89 OFFCURVE",
"-132 -111 CURVE",
"-136 -119 OFFCURVE",
"-145 -135 OFFCURVE",
"-149 -155 CURVE",
"-118 -178 OFFCURVE",
"-64 -201 OFFCURVE",
"-29 -201 CURVE SMOOTH"
);
}
);
width = 383;
}
);
leftKerningGroup = J;
rightKerningGroup = J;
unicode = 004A;
},
{
color = 6;
glyphname = K;
layers = (
{
anchors = (
{
name = bottom;
position = "{266, 0}";
},
{
name = top;
position = "{373, 704}";
}
);
layerId = "21A50CEC-A8F8-47E3-8EB4-99CD9DCFA5F3";
paths = (
{
closed = 1;
nodes = (
"148 0 OFFCURVE",
"177 11 OFFCURVE",
"199 24 CURVE",
"199 29 OFFCURVE",
"198 39 OFFCURVE",
"195 42 CURVE",
"116 50 LINE",
"122 57 OFFCURVE",
"131 77 OFFCURVE",
"138 107 CURVE SMOOTH",
"186 347 LINE",
"255 347 LINE SMOOTH",
"300 347 OFFCURVE",
"307 327 OFFCURVE",
"314 305 CURVE SMOOTH",
"388 71 LINE SMOOTH",
"408 8 OFFCURVE",
"433 0 OFFCURVE",
"461 0 CURVE SMOOTH",
"487 0 OFFCURVE",
"518 14 OFFCURVE",
"539 31 CURVE",
"540 38 OFFCURVE",
"538 48 OFFCURVE",
"534 52 CURVE",
"505 50 LINE SMOOTH",
"465 47 OFFCURVE",
"454 68 OFFCURVE",
"442 100 CURVE SMOOTH",
"350 362 LINE",
"386 426 OFFCURVE",
"510 638 OFFCURVE",
"620 668 CURVE SMOOTH",
"661 679 LINE",
"664 694 OFFCURVE",
"658 700 OFFCURVE",
"655 704 CURVE",
"544 704 LINE",
"442 625 OFFCURVE",
"342 440 OFFCURVE",
"307 390 CURVE",
"282 388 OFFCURVE",
"240 387 OFFCURVE",
"193 387 CURVE",
"231 580 LINE SMOOTH",
"243 640 OFFCURVE",
"257 656 OFFCURVE",
"287 666 CURVE SMOOTH",
"327 679 LINE",
"329 693 OFFCURVE",
"323 699 OFFCURVE",
"319 704 CURVE",
"181 704 LINE SMOOTH",
"171 704 OFFCURVE",
"135 689 OFFCURVE",
"125 681 CURVE",
"125 673 OFFCURVE",
"127 667 OFFCURVE",
"129 664 CURVE",
"204 664 LINE",
"197 656 OFFCURVE",
"184 632 OFFCURVE",
"177 593 CURVE SMOOTH",
"85 121 LINE SMOOTH",
"73 58 OFFCURVE",
"56 50 OFFCURVE",
"31 46 CURVE SMOOTH",
"7 42 LINE",
"1 37 OFFCURVE",
"-2 30 OFFCURVE",
"-4 24 CURVE",
"22 15 OFFCURVE",
"104 0 OFFCURVE",
"124 0 CURVE SMOOTH"
);
}
);
width = 572;
},
{
anchors = (
{
name = bottom;
position = "{290, 0}";
},
{
name = top;
position = "{398, 704}";
}
);
layerId = "1A804BEB-C033-4C3E-8D94-4E59A38AB1F5";
paths = (
{
closed = 1;
nodes = (
"198 0 OFFCURVE",
"239 16 OFFCURVE",
"261 34 CURVE",
"261 45 OFFCURVE",
"256 54 OFFCURVE",
"253 57 CURVE",
"154 68 LINE",
"162 76 OFFCURVE",
"177 102 OFFCURVE",
"184 136 CURVE SMOOTH",
"223 334 LINE",
"272 334 LINE SMOOTH",
"312 334 OFFCURVE",
"329 324 OFFCURVE",
"343 281 CURVE SMOOTH",
"408 86 LINE SMOOTH",
"428 26 OFFCURVE",
"456 0 OFFCURVE",
"494 0 CURVE SMOOTH",
"518 0 OFFCURVE",
"555 14 OFFCURVE",
"584 37 CURVE",
"584 49 OFFCURVE",
"580 60 OFFCURVE",
"577 63 CURVE",
"555 63 LINE SMOOTH",
"519 63 OFFCURVE",
"497 82 OFFCURVE",
"480 128 CURVE SMOOTH",
"394 356 LINE",
"432 424 OFFCURVE",
"541 624 OFFCURVE",
"656 656 CURVE SMOOTH",
"706 670 LINE",
"706 687 OFFCURVE",
"699 700 OFFCURVE",
"694 704 CURVE",
"551 704 LINE",
"475 651 OFFCURVE",
"373 447 OFFCURVE",
"337 394 CURVE",
"293 390 OFFCURVE",
"278 390 OFFCURVE",
"234 389 CURVE",
"269 571 LINE SMOOTH",
"281 631 OFFCURVE",
"294 645 OFFCURVE",
"337 657 CURVE SMOOTH",
"385 670 LINE",
"385 687 OFFCURVE",
"378 700 OFFCURVE",
"373 704 CURVE",
"180 704 LINE SMOOTH",
"168 704 OFFCURVE",
"127 685 OFFCURVE",
"113 671 CURVE",
"113 662 OFFCURVE",
"118 655 OFFCURVE",
"121 652 CURVE",
"218 652 LINE",
"210 646 OFFCURVE",
"192 622 OFFCURVE",
"183 570 CURVE SMOOTH",
"105 165 LINE SMOOTH",
"91 92 OFFCURVE",
"83 70 OFFCURVE",
"35 63 CURVE SMOOTH",
"5 59 LINE",
"0 55 OFFCURVE",
"-8 44 OFFCURVE",
"-10 34 CURVE",
"16 24 OFFCURVE",
"150 0 OFFCURVE",
"174 0 CURVE SMOOTH"
);
}
);
width = 616;
},
{
anchors = (
{
name = bottom;
position = "{319, 0}";
},
{
name = top;
position = "{456, 704}";
}
);
layerId = "BECA3017-CCCA-4A11-8E58-D2E4FEE6FE6A";
paths = (
{
closed = 1;
nodes = (
"249 0 OFFCURVE",
"287 19 OFFCURVE",
"307 35 CURVE",
"310 50 OFFCURVE",
"307 63 OFFCURVE",
"305 68 CURVE",
"214 82 LINE",
"224 91 OFFCURVE",
"238 113 OFFCURVE",
"245 150 CURVE SMOOTH",
"279 328 LINE",
"320 328 LINE SMOOTH",
"348 328 OFFCURVE",
"352 315 OFFCURVE",
"360 291 CURVE SMOOTH",
"419 119 LINE SMOOTH",
"442 51 OFFCURVE",
"483 0 OFFCURVE",
"552 0 CURVE SMOOTH",
"587 0 OFFCURVE",
"639 13 OFFCURVE",
"679 38 CURVE",
"683 59 OFFCURVE",
"677 77 OFFCURVE",
"673 84 CURVE",
"654 84 LINE SMOOTH",
"595 84 OFFCURVE",
"571 115 OFFCURVE",
"545 182 CURVE SMOOTH",
"471 373 LINE",
"542 503 OFFCURVE",
"650 607 OFFCURVE",
"744 640 CURVE SMOOTH",
"795 658 LINE",
"800 681 OFFCURVE",
"794 697 OFFCURVE",
"789 704 CURVE",
"578 704 LINE",
"493 639 OFFCURVE",
"407 481 OFFCURVE",
"375 401 CURVE",
"359 399 OFFCURVE",
"327 397 OFFCURVE",
"292 396 CURVE",
"324 557 LINE SMOOTH",
"335 613 OFFCURVE",
"350 632 OFFCURVE",
"388 643 CURVE SMOOTH",
"434 656 LINE",
"438 678 OFFCURVE",
"434 696 OFFCURVE",
"430 704 CURVE",
"174 704 LINE SMOOTH",
"163 704 OFFCURVE",
"120 685 OFFCURVE",
"107 671 CURVE",
"105 656 OFFCURVE",
"109 644 OFFCURVE",
"112 638 CURVE",
"204 638 LINE",
"202 636 OFFCURVE",
"183 621 OFFCURVE",
"171 559 CURVE SMOOTH",
"97 178 LINE SMOOTH",
"83 106 OFFCURVE",
"66 79 OFFCURVE",
"30 74 CURVE SMOOTH",
"0 70 LINE",
"-5 64 OFFCURVE",
"-12 51 OFFCURVE",
"-16 35 CURVE",
"10 25 OFFCURVE",
"198 0 OFFCURVE",
"222 0 CURVE SMOOTH"
);
}
);
width = 714;
},
{
anchors = (
{
name = bottom;
position = "{283, 0}";
},
{
name = top;
position = "{389, 704}";
}
);
layerId = "A63AEE66-7D4A-459A-A35B-D6CC97B4CA0F";
paths = (
{
closed = 1;
nodes = (
"169 0 OFFCURVE",
"203 13 OFFCURVE",
"226 28 CURVE",
"226 36 OFFCURVE",
"223 45 OFFCURVE",
"220 47 CURVE",
"131 57 LINE",
"139 65 OFFCURVE",
"151 84 OFFCURVE",
"158 118 CURVE SMOOTH",
"202 342 LINE",
"274 342 LINE SMOOTH",
"319 342 OFFCURVE",
"328 327 OFFCURVE",
"339 296 CURVE SMOOTH",
"416 76 LINE SMOOTH",
"431 32 OFFCURVE",
"451 0 OFFCURVE",
"495 0 CURVE SMOOTH",
"520 0 OFFCURVE",
"558 14 OFFCURVE",
"584 35 CURVE",
"584 46 OFFCURVE",
"580 54 OFFCURVE",
"578 57 CURVE",
"559 57 LINE SMOOTH",
"498 57 OFFCURVE",
"496 72 OFFCURVE",
"466 148 CURVE SMOOTH",
"383 360 LINE",
"421 424 OFFCURVE",
"543 634 OFFCURVE",
"659 664 CURVE SMOOTH",
"706 676 LINE",
"707 693 OFFCURVE",
"700 700 OFFCURVE",
"697 704 CURVE",
"569 704 LINE",
"462 634 OFFCURVE",
"378 457 OFFCURVE",
"331 392 CURVE",
"311 391 OFFCURVE",
"270 389 OFFCURVE",
"211 389 CURVE",
"248 577 LINE SMOOTH",
"260 637 OFFCURVE",
"273 652 OFFCURVE",
"309 663 CURVE SMOOTH",
"353 676 LINE",
"354 691 OFFCURVE",
"347 699 OFFCURVE",
"343 704 CURVE",
"182 704 LINE SMOOTH",
"170 704 OFFCURVE",
"132 687 OFFCURVE",
"120 677 CURVE",
"120 670 OFFCURVE",
"122 664 OFFCURVE",
"126 659 CURVE",
"211 659 LINE",
"204 653 OFFCURVE",
"189 629 OFFCURVE",
"180 584 CURVE SMOOTH",
"93 138 LINE SMOOTH",
"80 71 OFFCURVE",
"65 59 OFFCURVE",
"32 53 CURVE SMOOTH",
"6 49 LINE",
"1 45 OFFCURVE",
"-5 35 OFFCURVE",
"-7 28 CURVE",
"20 18 OFFCURVE",
"126 0 OFFCURVE",
"144 0 CURVE SMOOTH"
);
}
);
width = 620;
},
{
anchors = (
{
name = bottom;
position = "{302, 0}";
},
{
name = top;
position = "{414, 704}";
}
);
layerId = "65812DC5-BB64-4CCF-B3BD-7266D8F2F6F4";
paths = (
{
closed = 1;
nodes = (
"209 0 OFFCURVE",
"250 17 OFFCURVE",
"272 34 CURVE",
"272 47 OFFCURVE",
"266 56 OFFCURVE",
"264 59 CURVE",
"164 70 LINE",
"175 81 OFFCURVE",
"188 104 OFFCURVE",
"195 138 CURVE SMOOTH",
"234 333 LINE",
"282 333 LINE SMOOTH",
"327 333 OFFCURVE",
"340 323 OFFCURVE",
"355 283 CURVE SMOOTH",
"417 120 LINE SMOOTH",
"446 44 OFFCURVE",
"480 0 OFFCURVE",
"529 0 CURVE SMOOTH",
"567 0 OFFCURVE",
"596 16 OFFCURVE",
"627 39 CURVE",
"628 55 OFFCURVE",
"621 64 OFFCURVE",
"620 66 CURVE",
"604 66 LINE SMOOTH",
"558 66 OFFCURVE",
"536 86 OFFCURVE",
"509 152 CURVE SMOOTH",
"423 359 LINE",
"467 432 OFFCURVE",
"580 622 OFFCURVE",
"696 654 CURVE SMOOTH",
"747 668 LINE",
"749 690 OFFCURVE",
"740 699 OFFCURVE",
"737 704 CURVE",
"577 704 LINE",
"492 649 OFFCURVE",
"399 465 OFFCURVE",
"354 394 CURVE",
"352 394 OFFCURVE",
"289 392 OFFCURVE",
"245 392 CURVE",
"280 569 LINE SMOOTH",
"292 628 OFFCURVE",
"307 644 OFFCURVE",
"348 655 CURVE SMOOTH",
"397 668 LINE",
"397 686 OFFCURVE",
"390 700 OFFCURVE",
"385 704 CURVE",
"181 704 LINE SMOOTH",
"168 704 OFFCURVE",
"127 685 OFFCURVE",
"113 671 CURVE",
"113 662 OFFCURVE",
"116 655 OFFCURVE",
"120 650 CURVE",
"218 650 LINE",
"210 644 OFFCURVE",
"194 621 OFFCURVE",
"183 568 CURVE SMOOTH",
"104 167 LINE SMOOTH",
"90 95 OFFCURVE",
"79 72 OFFCURVE",
"34 65 CURVE SMOOTH",
"4 61 LINE",
"-1 56 OFFCURVE",
"-8 45 OFFCURVE",
"-11 34 CURVE",
"16 24 OFFCURVE",
"161 0 OFFCURVE",
"183 0 CURVE SMOOTH"
);
}
);
width = 662;
},
{
anchors = (
{
name = bottom;
position = "{337, 0}";
},
{
name = top;
position = "{473, 704}";
}
);
layerId = "28047205-16CB-4036-948B-FF1CDF00A7B3";
paths = (
{
closed = 1;
nodes = (
"264 0 OFFCURVE",
"304 19 OFFCURVE",
"324 35 CURVE",
"327 51 OFFCURVE",
"324 62 OFFCURVE",
"322 69 CURVE",
"226 83 LINE",
"237 92 OFFCURVE",
"251 115 OFFCURVE",
"258 151 CURVE SMOOTH",
"292 328 LINE",
"331 328 LINE SMOOTH",
"363 328 OFFCURVE",
"374 317 OFFCURVE",
"384 291 CURVE SMOOTH",
"450 120 LINE SMOOTH",
"476 54 OFFCURVE",
"506 0 OFFCURVE",
"582 0 CURVE SMOOTH",
"618 0 OFFCURVE",
"679 13 OFFCURVE",
"720 38 CURVE",
"724 61 OFFCURVE",
"717 79 OFFCURVE",
"713 85 CURVE",
"694 85 LINE SMOOTH",
"639 85 OFFCURVE",
"610 106 OFFCURVE",
"579 182 CURVE SMOOTH",
"501 374 LINE",
"572 505 OFFCURVE",
"684 605 OFFCURVE",
"783 639 CURVE SMOOTH",
"836 657 LINE",
"841 681 OFFCURVE",
"834 697 OFFCURVE",
"829 704 CURVE",
"606 704 LINE",
"509 639 OFFCURVE",
"421 482 OFFCURVE",
"397 401 CURVE",
"365 399 OFFCURVE",
"349 399 OFFCURVE",
"306 398 CURVE",
"337 556 LINE SMOOTH",
"348 611 OFFCURVE",
"364 631 OFFCURVE",
"404 642 CURVE SMOOTH",
"452 655 LINE",
"455 673 OFFCURVE",
"452 695 OFFCURVE",
"447 704 CURVE",
"182 704 LINE SMOOTH",
"171 704 OFFCURVE",
"125 685 OFFCURVE",
"112 671 CURVE",
"110 656 OFFCURVE",
"115 644 OFFCURVE",
"118 637 CURVE",
"214 637 LINE",
"210 635 OFFCURVE",
"192 617 OFFCURVE",
"180 558 CURVE SMOOTH",
"106 179 LINE SMOOTH",
"92 107 OFFCURVE",
"73 80 OFFCURVE",
"37 75 CURVE SMOOTH",
"5 71 LINE",
"0 65 OFFCURVE",
"-7 49 OFFCURVE",
"-11 35 CURVE",
"16 25 OFFCURVE",
"213 0 OFFCURVE",
"236 0 CURVE SMOOTH"
);
}
);
width = 759;
}
);
leftKerningGroup = H;
leftMetricsKey = H;
rightKerningGroup = K;
unicode = 004B;
},
{
color = 6;
glyphname = L;
layers = (
{
anchors = (
{
name = bottom;
position = "{239, 0}";
},
{
name = center;
position = "{409, 375}";
},
{
name = top;
position = "{230, 704}";
},
{
name = topright;
position = "{334, 500}";
}
);
layerId = "21A50CEC-A8F8-47E3-8EB4-99CD9DCFA5F3";
paths = (
{
closed = 1;
nodes = (
"365 4 OFFCURVE",
"404 23 OFFCURVE",
"420 35 CURVE",
"436 96 OFFCURVE",
"450 158 OFFCURVE",
"457 191 CURVE",
"452 195 OFFCURVE",
"440 200 OFFCURVE",
"430 200 CURVE",
"357 51 LINE",
"117 51 LINE",
"124 60 OFFCURVE",
"133 79 OFFCURVE",
"139 107 CURVE SMOOTH",
"231 580 LINE SMOOTH",
"242 635 OFFCURVE",
"252 655 OFFCURVE",
"287 666 CURVE SMOOTH",
"327 679 LINE",
"329 692 OFFCURVE",
"322 700 OFFCURVE",
"319 704 CURVE",
"181 704 LINE SMOOTH",
"171 704 OFFCURVE",
"135 689 OFFCURVE",
"125 681 CURVE",
"125 673 OFFCURVE",
"127 667 OFFCURVE",
"129 664 CURVE",
"204 664 LINE",
"197 656 OFFCURVE",
"184 632 OFFCURVE",
"177 593 CURVE SMOOTH",
"85 121 LINE SMOOTH",
"72 54 OFFCURVE",
"55 51 OFFCURVE",
"31 47 CURVE SMOOTH",
"8 44 LINE",
"1 38 OFFCURVE",
"-2 30 OFFCURVE",
"-4 24 CURVE",
"77 12 OFFCURVE",
"279 0 OFFCURVE",
"345 0 CURVE"
);
}
);
width = 491;
},
{
anchors = (
{
name = bottom;
position = "{261, 0}";
},
{
name = center;
position = "{442, 375}";
},
{
name = top;
position = "{255, 704}";
},
{
name = topright;
position = "{390, 500}";
}
);
layerId = "1A804BEB-C033-4C3E-8D94-4E59A38AB1F5";
paths = (
{
closed = 1;
nodes = (
"386 0 OFFCURVE",
"435 29 OFFCURVE",
"454 46 CURVE",
"468 85 OFFCURVE",
"491 165 OFFCURVE",
"501 219 CURVE",
"492 227 OFFCURVE",
"474 235 OFFCURVE",
"457 235 CURVE",
"373 70 LINE",
"156 70 LINE",
"165 80 OFFCURVE",
"178 106 OFFCURVE",
"185 139 CURVE SMOOTH",
"269 571 LINE SMOOTH",
"280 630 OFFCURVE",
"297 646 OFFCURVE",
"337 657 CURVE SMOOTH",
"385 670 LINE",
"385 685 OFFCURVE",
"378 698 OFFCURVE",
"373 704 CURVE",
"180 704 LINE SMOOTH",
"168 704 OFFCURVE",
"127 685 OFFCURVE",
"113 671 CURVE",
"113 662 OFFCURVE",
"118 655 OFFCURVE",
"121 652 CURVE",
"218 652 LINE",
"210 646 OFFCURVE",
"193 621 OFFCURVE",
"183 570 CURVE SMOOTH",
"105 164 LINE SMOOTH",
"91 91 OFFCURVE",
"83 70 OFFCURVE",
"35 63 CURVE SMOOTH",
"5 59 LINE",
"0 55 OFFCURVE",
"-8 44 OFFCURVE",
"-10 34 CURVE",
"67 19 OFFCURVE",
"265 0 OFFCURVE",
"367 0 CURVE SMOOTH"
);
}
);
width = 517;
},
{
anchors = (
{
name = bottom;
position = "{296, 0}";
},
{
name = center;
position = "{498, 375}";
},
{
name = top;
position = "{277, 704}";
},
{
name = topright;
position = "{434, 500}";
}
);
layerId = "BECA3017-CCCA-4A11-8E58-D2E4FEE6FE6A";
paths = (
{
closed = 1;
nodes = (
"457 0 OFFCURVE",
"499 29 OFFCURVE",
"512 46 CURVE",
"527 86 OFFCURVE",
"565 188 OFFCURVE",
"567 256 CURVE",
"549 267 OFFCURVE",
"517 275 OFFCURVE",
"495 275 CURVE",
"387 82 LINE",
"214 82 LINE",
"224 91 OFFCURVE",
"238 113 OFFCURVE",
"245 150 CURVE SMOOTH",
"324 557 LINE SMOOTH",
"336 617 OFFCURVE",
"353 633 OFFCURVE",
"388 643 CURVE SMOOTH",
"434 656 LINE",
"438 678 OFFCURVE",
"434 696 OFFCURVE",
"430 704 CURVE",
"174 704 LINE SMOOTH",
"163 704 OFFCURVE",
"120 685 OFFCURVE",
"107 671 CURVE",
"105 656 OFFCURVE",
"109 644 OFFCURVE",
"112 638 CURVE",
"204 638 LINE",
"202 636 OFFCURVE",
"183 621 OFFCURVE",
"171 559 CURVE SMOOTH",
"97 178 LINE SMOOTH",
"83 106 OFFCURVE",
"66 79 OFFCURVE",
"30 74 CURVE SMOOTH",
"0 70 LINE",
"-5 64 OFFCURVE",
"-12 51 OFFCURVE",
"-16 35 CURVE",
"75 18 OFFCURVE",
"346 0 OFFCURVE",
"445 0 CURVE SMOOTH"
);
}
);
width = 574;
},
{
anchors = (
{
name = bottom;
position = "{211, 0}";
},
{
name = center;
position = "{394, 342}";
},
{
name = top;
position = "{241, 704}";
},
{
name = topright;
position = "{360, 500}";
}
);
layerId = "A63AEE66-7D4A-459A-A35B-D6CC97B4CA0F";
paths = (
{
closed = 1;
nodes = (
"383 2 OFFCURVE",
"428 19 OFFCURVE",
"447 34 CURVE",
"464 98 OFFCURVE",
"477 153 OFFCURVE",
"486 201 CURVE",
"481 206 OFFCURVE",
"466 213 OFFCURVE",
"451 213 CURVE",
"375 58 LINE",
"132 58 LINE",
"141 69 OFFCURVE",
"152 88 OFFCURVE",
"158 119 CURVE SMOOTH",
"248 577 LINE SMOOTH",
"260 638 OFFCURVE",
"274 653 OFFCURVE",
"308 663 CURVE SMOOTH",
"353 676 LINE",
"354 690 OFFCURVE",
"347 699 OFFCURVE",
"343 704 CURVE",
"182 704 LINE SMOOTH",
"170 704 OFFCURVE",
"132 687 OFFCURVE",
"120 677 CURVE",
"120 670 OFFCURVE",
"122 664 OFFCURVE",
"126 659 CURVE",
"211 659 LINE",
"204 653 OFFCURVE",
"189 628 OFFCURVE",
"180 584 CURVE SMOOTH",
"93 137 LINE SMOOTH",
"80 70 OFFCURVE",
"66 58 OFFCURVE",
"32 53 CURVE SMOOTH",
"6 49 LINE",
"0 45 OFFCURVE",
"-3 39 OFFCURVE",
"-7 28 CURVE",
"76 15 OFFCURVE",
"278 0 OFFCURVE",
"365 0 CURVE"
);
}
);
width = 519;
},
{
anchors = (
{
name = bottom;
position = "{254, 0}";
},
{
name = center;
position = "{434, 349}";
},
{
name = top;
position = "{260, 704}";
},
{
name = topright;
position = "{401, 500}";
}
);
layerId = "65812DC5-BB64-4CCF-B3BD-7266D8F2F6F4";
paths = (
{
closed = 1;
nodes = (
"407 0 OFFCURVE",
"455 25 OFFCURVE",
"477 41 CURVE",
"490 78 OFFCURVE",
"515 163 OFFCURVE",
"524 224 CURVE",
"512 234 OFFCURVE",
"490 241 OFFCURVE",
"474 241 CURVE",
"387 72 LINE",
"165 72 LINE",
"174 81 OFFCURVE",
"187 103 OFFCURVE",
"195 141 CURVE SMOOTH",
"280 569 LINE SMOOTH",
"294 641 OFFCURVE",
"314 646 OFFCURVE",
"348 655 CURVE SMOOTH",
"397 668 LINE",
"397 687 OFFCURVE",
"389 699 OFFCURVE",
"385 704 CURVE",
"181 704 LINE SMOOTH",
"168 704 OFFCURVE",
"127 685 OFFCURVE",
"113 671 CURVE",
"113 662 OFFCURVE",
"116 655 OFFCURVE",
"120 650 CURVE",
"218 650 LINE",
"212 646 OFFCURVE",
"194 624 OFFCURVE",
"183 568 CURVE SMOOTH",
"104 166 LINE SMOOTH",
"90 94 OFFCURVE",
"80 71 OFFCURVE",
"34 65 CURVE SMOOTH",
"4 61 LINE",
"-1 56 OFFCURVE",
"-8 45 OFFCURVE",
"-11 34 CURVE",
"70 19 OFFCURVE",
"283 0 OFFCURVE",
"386 0 CURVE SMOOTH"
);
}
);
width = 545;
},
{
anchors = (
{
name = bottom;
position = "{280, 0}";
},
{
name = center;
position = "{492, 372}";
},
{
name = top;
position = "{288, 704}";
},
{
name = topright;
position = "{453, 500}";
}
);
layerId = "28047205-16CB-4036-948B-FF1CDF00A7B3";
paths = (
{
closed = 1;
nodes = (
"480 0 OFFCURVE",
"523 26 OFFCURVE",
"537 41 CURVE",
"552 81 OFFCURVE",
"591 187 OFFCURVE",
"593 258 CURVE",
"573 269 OFFCURVE",
"538 277 OFFCURVE",
"513 277 CURVE",
"408 83 LINE",
"226 83 LINE",
"237 92 OFFCURVE",
"250 110 OFFCURVE",
"258 151 CURVE SMOOTH",
"337 556 LINE SMOOTH",
"351 628 OFFCURVE",
"378 635 OFFCURVE",
"404 642 CURVE SMOOTH",
"452 655 LINE",
"456 680 OFFCURVE",
"450 697 OFFCURVE",
"447 704 CURVE",
"182 704 LINE SMOOTH",
"171 704 OFFCURVE",
"125 685 OFFCURVE",
"112 671 CURVE",
"110 656 OFFCURVE",
"114 643 OFFCURVE",
"118 637 CURVE",
"214 637 LINE",
"212 636 OFFCURVE",
"192 621 OFFCURVE",
"180 558 CURVE SMOOTH",
"106 179 LINE SMOOTH",
"92 107 OFFCURVE",
"73 80 OFFCURVE",
"37 75 CURVE SMOOTH",
"5 71 LINE",
"0 65 OFFCURVE",
"-7 49 OFFCURVE",
"-11 35 CURVE",
"83 18 OFFCURVE",
"365 0 OFFCURVE",
"467 0 CURVE SMOOTH"
);
}
);
width = 605;
}
);
leftKerningGroup = H;
leftMetricsKey = H;
rightKerningGroup = L;
unicode = 004C;
},
{
color = 3;
glyphname = Lslash;
layers = (
{
components = (
{
name = L;
}
);
layerId = "21A50CEC-A8F8-47E3-8EB4-99CD9DCFA5F3";
paths = (
{
closed = 1;
nodes = (
"446 435 LINE",
"446 455 OFFCURVE",
"435 474 OFFCURVE",
"426 480 CURVE",
"23 289 LINE",
"21 277 OFFCURVE",
"27 272 OFFCURVE",
"31 267 CURVE"
);
}
);
width = 486;
},
{
components = (
{
name = L;
}
);
layerId = "1A804BEB-C033-4C3E-8D94-4E59A38AB1F5";
paths = (
{
closed = 1;
nodes = (
"482 428 LINE",
"482 454 OFFCURVE",
"471 482 OFFCURVE",
"456 495 CURVE",
"31 295 LINE",
"30 283 OFFCURVE",
"32 268 OFFCURVE",
"46 253 CURVE"
);
}
);
width = 513;
},
{
components = (
{
name = L;
}
);
layerId = "BECA3017-CCCA-4A11-8E58-D2E4FEE6FE6A";
paths = (
{
closed = 1;
nodes = (
"515 418 LINE",
"515 456 OFFCURVE",
"501 492 OFFCURVE",
"481 505 CURVE",
"18 290 LINE",
"17 274 OFFCURVE",
"23 246 OFFCURVE",
"41 228 CURVE"
);
}
);
width = 579;
},
{
components = (
{
name = L;
}
);
layerId = "A63AEE66-7D4A-459A-A35B-D6CC97B4CA0F";
paths = (
{
closed = 1;
nodes = (
"446 435 LINE",
"446 455 OFFCURVE",
"435 474 OFFCURVE",
"426 480 CURVE",
"23 289 LINE",
"21 277 OFFCURVE",
"27 272 OFFCURVE",
"31 267 CURVE"
);
}
);
width = 486;
},
{
components = (
{
name = L;
}
);
layerId = "65812DC5-BB64-4CCF-B3BD-7266D8F2F6F4";
paths = (
{
closed = 1;
nodes = (
"482 428 LINE",
"482 454 OFFCURVE",
"471 482 OFFCURVE",
"456 495 CURVE",
"31 295 LINE",
"30 283 OFFCURVE",
"32 268 OFFCURVE",
"46 253 CURVE"
);
}
);
width = 513;
},
{
components = (
{
name = L;
}
);
layerId = "28047205-16CB-4036-948B-FF1CDF00A7B3";
paths = (
{
closed = 1;
nodes = (
"515 418 LINE",
"515 456 OFFCURVE",
"501 492 OFFCURVE",
"481 505 CURVE",
"18 290 LINE",
"17 274 OFFCURVE",
"23 246 OFFCURVE",
"41 228 CURVE"
);
}
);
width = 579;
}
);
leftKerningGroup = H;
rightKerningGroup = L;
unicode = 0141;
},
{
color = 6;
glyphname = M;
layers = (
{
anchors = (
{
name = bottom;
position = "{376, 0}";
},
{
name = top;
position = "{513, 704}";
}
);
background = {
paths = (
{
closed = 1;
nodes = (
"398 146 LINE",
"298 704 LINE",
"209 704 LINE SMOOTH",
"196 704 OFFCURVE",
"164 690 OFFCURVE",
"154 683 CURVE",
"154 673 OFFCURVE",
"156 669 OFFCURVE",
"158 666 CURVE",
"235 666 LINE",
"227 659 OFFCURVE",
"212 638 OFFCURVE",
"204 606 CURVE SMOOTH",
"85 118 LINE SMOOTH",
"75 79 OFFCURVE",
"63 49 OFFCURVE",
"23 42 CURVE SMOOTH",
"6 39 LINE",
"3 36 OFFCURVE",
"-2 29 OFFCURVE",
"-4 22 CURVE",
"15 15 OFFCURVE",
"83 0 OFFCURVE",
"100 0 CURVE SMOOTH",
"123 0 OFFCURVE",
"161 9 OFFCURVE",
"183 22 CURVE",
"183 27 OFFCURVE",
"182 36 OFFCURVE",
"180 39 CURVE",
"99 46 LINE",
"105 50 OFFCURVE",
"117 71 OFFCURVE",
"126 107 CURVE SMOOTH",
"237 570 LINE SMOOTH",
"247 611 OFFCURVE",
"257 627 OFFCURVE",
"259 632 CURVE",
"263 632 LINE",
"262 629 OFFCURVE",
"262 625 OFFCURVE",
"262 619 CURVE SMOOTH",
"262 604 OFFCURVE",
"265 578 OFFCURVE",
"269 556 CURVE SMOOTH",
"355 82 LINE",
"378 82 OFFCURVE",
"403 93 OFFCURVE",
"414 102 CURVE",
"724 638 LINE",
"729 637 LINE",
"724 628 OFFCURVE",
"717 603 OFFCURVE",
"710 557 CURVE SMOOTH",
"654 172 LINE SMOOTH",
"638 59 OFFCURVE",
"625 43 OFFCURVE",
"602 41 CURVE SMOOTH",
"568 39 LINE",
"564 35 OFFCURVE",
"559 29 OFFCURVE",
"558 22 CURVE",
"584 12 OFFCURVE",
"661 0 OFFCURVE",
"686 0 CURVE SMOOTH",
"710 0 OFFCURVE",
"741 12 OFFCURVE",
"758 22 CURVE",
"758 24 OFFCURVE",
"758 36 OFFCURVE",
"755 39 CURVE",
"675 45 LINE",
"683 53 OFFCURVE",
"695 80 OFFCURVE",
"701 123 CURVE SMOOTH",
"769 596 LINE SMOOTH",
"775 640 OFFCURVE",
"789 656 OFFCURVE",
"823 668 CURVE SMOOTH",
"861 681 LINE",
"863 694 OFFCURVE",
"857 700 OFFCURVE",
"854 704 CURVE",
"713 704 LINE",
"618 527 OFFCURVE",
"457 247 OFFCURVE",
"392 146 CURVE"
);
}
);
};
layerId = "21A50CEC-A8F8-47E3-8EB4-99CD9DCFA5F3";
paths = (
{
closed = 1;
nodes = (
"136 0 OFFCURVE",
"175 10 OFFCURVE",
"197 24 CURVE",
"197 29 OFFCURVE",
"196 39 OFFCURVE",
"193 42 CURVE",
"105 50 LINE",
"110 53 OFFCURVE",
"122 69 OFFCURVE",
"133 113 CURVE SMOOTH",
"242 569 LINE SMOOTH",
"252 611 OFFCURVE",
"262 626 OFFCURVE",
"264 632 CURVE",
"269 632 LINE",
"269 629 OFFCURVE",
"268 625 OFFCURVE",
"268 617 CURVE SMOOTH",
"268 602 OFFCURVE",
"271 573 OFFCURVE",
"275 552 CURVE SMOOTH",
"361 83 LINE",
"386 83 OFFCURVE",
"411 93 OFFCURVE",
"421 101 CURVE",
"733 639 LINE",
"740 638 LINE",
"734 627 OFFCURVE",
"727 604 OFFCURVE",
"719 552 CURVE SMOOTH",
"663 170 LINE SMOOTH",
"647 61 OFFCURVE",
"634 48 OFFCURVE",
"608 45 CURVE SMOOTH",
"575 42 LINE",
"570 38 OFFCURVE",
"566 33 OFFCURVE",
"564 24 CURVE",
"590 14 OFFCURVE",
"678 0 OFFCURVE",
"702 0 CURVE SMOOTH",
"725 0 OFFCURVE",
"757 12 OFFCURVE",
"776 24 CURVE",
"776 27 OFFCURVE",
"776 39 OFFCURVE",
"773 42 CURVE",
"689 49 LINE",
"697 57 OFFCURVE",
"709 84 OFFCURVE",
"716 126 CURVE SMOOTH",
"783 592 LINE SMOOTH",
"791 648 OFFCURVE",
"811 656 OFFCURVE",
"839 666 CURVE SMOOTH",
"879 679 LINE",
"880 693 OFFCURVE",
"875 699 OFFCURVE",
"871 704 CURVE",
"717 704 LINE",
"628 535 OFFCURVE",
"472 265 OFFCURVE",
"404 159 CURVE",
"305 704 LINE",
"209 704 LINE SMOOTH",
"195 704 OFFCURVE",
"162 689 OFFCURVE",
"151 681 CURVE",
"152 669 OFFCURVE",
"154 668 OFFCURVE",
"156 664 CURVE",
"236 664 LINE",
"228 656 OFFCURVE",
"213 634 OFFCURVE",
"204 599 CURVE SMOOTH",
"89 127 LINE SMOOTH",
"78 81 OFFCURVE",
"65 52 OFFCURVE",
"25 45 CURVE SMOOTH",
"6 42 LINE",
"0 37 OFFCURVE",
"-3 30 OFFCURVE",
"-5 24 CURVE",
"16 16 OFFCURVE",
"98 0 OFFCURVE",
"114 0 CURVE SMOOTH"
);
}
);
width = 849;
},
{
anchors = (
{
name = bottom;
position = "{415, 0}";
},
{
name = top;
position = "{552, 704}";
}
);
layerId = "1A804BEB-C033-4C3E-8D94-4E59A38AB1F5";
paths = (
{
closed = 1;
nodes = (
"196 0 OFFCURVE",
"237 14 OFFCURVE",
"262 34 CURVE",
"262 46 OFFCURVE",
"257 54 OFFCURVE",
"254 57 CURVE",
"132 71 LINE",
"135 72 OFFCURVE",
"150 85 OFFCURVE",
"164 141 CURVE SMOOTH",
"264 562 LINE SMOOTH",
"271 591 OFFCURVE",
"283 625 OFFCURVE",
"286 632 CURVE",
"296 632 LINE",
"296 628 OFFCURVE",
"294 620 OFFCURVE",
"294 604 CURVE SMOOTH",
"294 591 OFFCURVE",
"296 563 OFFCURVE",
"302 532 CURVE SMOOTH",
"386 87 LINE",
"421 87 OFFCURVE",
"450 103 OFFCURVE",
"462 116 CURVE",
"770 640 LINE",
"784 637 LINE",
"777 624 OFFCURVE",
"765 587 OFFCURVE",
"756 528 CURVE SMOOTH",
"702 165 LINE SMOOTH",
"688 74 OFFCURVE",
"678 69 OFFCURVE",
"632 63 CURVE SMOOTH",
"602 59 LINE",
"597 55 OFFCURVE",
"588 46 OFFCURVE",
"587 34 CURVE",
"613 24 OFFCURVE",
"747 0 OFFCURVE",
"773 0 CURVE SMOOTH",
"798 0 OFFCURVE",
"838 16 OFFCURVE",
"860 34 CURVE",
"860 44 OFFCURVE",
"856 53 OFFCURVE",
"853 57 CURVE",
"753 67 LINE",
"762 75 OFFCURVE",
"777 101 OFFCURVE",
"784 143 CURVE SMOOTH",
"847 571 LINE SMOOTH",
"857 642 OFFCURVE",
"879 647 OFFCURVE",
"913 657 CURVE SMOOTH",
"961 670 LINE",
"961 685 OFFCURVE",
"954 699 OFFCURVE",
"949 704 CURVE",
"730 704 LINE",
"657 543 OFFCURVE",
"495 276 OFFCURVE",
"448 207 CURVE",
"351 704 LINE",
"203 704 LINE SMOOTH",
"192 704 OFFCURVE",
"150 685 OFFCURVE",
"136 671 CURVE",
"137 662 OFFCURVE",
"141 655 OFFCURVE",
"144 652 CURVE",
"237 652 LINE",
"228 642 OFFCURVE",
"213 609 OFFCURVE",
"202 565 CURVE SMOOTH",
"104 167 LINE SMOOTH",
"85 90 OFFCURVE",
"72 68 OFFCURVE",
"33 63 CURVE SMOOTH",
"3 59 LINE",
"-2 55 OFFCURVE",
"-10 44 OFFCURVE",
"-12 34 CURVE",
"18 23 OFFCURVE",
"151 0 OFFCURVE",
"174 0 CURVE SMOOTH"
);
}
);
width = 927;
},
{
anchors = (
{
name = bottom;
position = "{431, 0}";
},
{
name = top;
position = "{568, 704}";
}
);
layerId = "BECA3017-CCCA-4A11-8E58-D2E4FEE6FE6A";
paths = (
{
closed = 1;
nodes = (
"208 0 OFFCURVE",
"255 15 OFFCURVE",
"280 35 CURVE",
"283 50 OFFCURVE",
"280 63 OFFCURVE",
"278 68 CURVE",
"153 84 LINE",
"160 92 OFFCURVE",
"174 115 OFFCURVE",
"181 146 CURVE SMOOTH",
"270 520 LINE SMOOTH",
"280 562 OFFCURVE",
"288 587 OFFCURVE",
"293 598 CURVE",
"299 598 LINE",
"299 592 OFFCURVE",
"298 582 OFFCURVE",
"298 571 CURVE SMOOTH",
"298 551 OFFCURVE",
"299 523 OFFCURVE",
"304 490 CURVE SMOOTH",
"367 76 LINE",
"408 76 OFFCURVE",
"449 88 OFFCURVE",
"469 97 CURVE",
"747 599 LINE",
"754 596 LINE",
"747 584 OFFCURVE",
"735 549 OFFCURVE",
"727 491 CURVE SMOOTH",
"683 174 LINE SMOOTH",
"672 94 OFFCURVE",
"663 80 OFFCURVE",
"613 75 CURVE SMOOTH",
"575 71 LINE",
"572 67 OFFCURVE",
"561 51 OFFCURVE",
"558 34 CURVE",
"584 24 OFFCURVE",
"771 0 OFFCURVE",
"808 0 CURVE SMOOTH",
"832 0 OFFCURVE",
"870 16 OFFCURVE",
"894 35 CURVE",
"897 50 OFFCURVE",
"894 63 OFFCURVE",
"892 68 CURVE",
"800 82 LINE",
"809 87 OFFCURVE",
"824 110 OFFCURVE",
"830 153 CURVE SMOOTH",
"887 557 LINE SMOOTH",
"896 622 OFFCURVE",
"921 633 OFFCURVE",
"958 643 CURVE SMOOTH",
"1003 656 LINE",
"1007 678 OFFCURVE",
"1003 696 OFFCURVE",
"999 704 CURVE",
"714 704 LINE",
"649 561 OFFCURVE",
"544 372 OFFCURVE",
"484 278 CURVE",
"415 704 LINE",
"199 704 LINE SMOOTH",
"188 704 OFFCURVE",
"145 685 OFFCURVE",
"132 671 CURVE",
"130 657 OFFCURVE",
"134 642 OFFCURVE",
"137 638 CURVE",
"233 638 LINE",
"226 632 OFFCURVE",
"211 610 OFFCURVE",
"198 556 CURVE SMOOTH",
"104 177 LINE SMOOTH",
"85 99 OFFCURVE",
"73 79 OFFCURVE",
"35 74 CURVE SMOOTH",
"9 70 LINE",
"4 64 OFFCURVE",
"-3 51 OFFCURVE",
"-7 35 CURVE",
"23 24 OFFCURVE",
"162 0 OFFCURVE",
"185 0 CURVE SMOOTH"
);
}
);
width = 959;
},
{
anchors = (
{
name = bottom;
position = "{409, 0}";
},
{
name = top;
position = "{546, 704}";
}
);
layerId = "A63AEE66-7D4A-459A-A35B-D6CC97B4CA0F";
paths = (
{
closed = 1;
nodes = (
"165 0 OFFCURVE",
"206 11 OFFCURVE",
"230 28 CURVE",
"230 37 OFFCURVE",
"228 44 OFFCURVE",
"225 47 CURVE",
"123 58 LINE",
"126 60 OFFCURVE",
"141 73 OFFCURVE",
"153 124 CURVE SMOOTH",
"260 566 LINE SMOOTH",
"269 604 OFFCURVE",
"279 626 OFFCURVE",
"283 632 CURVE",
"289 632 LINE",
"288 629 OFFCURVE",
"288 622 OFFCURVE",
"288 614 CURVE SMOOTH",
"288 598 OFFCURVE",
"290 575 OFFCURVE",
"296 545 CURVE SMOOTH",
"389 84 LINE",
"417 84 OFFCURVE",
"444 97 OFFCURVE",
"457 109 CURVE",
"775 639 LINE",
"784 637 LINE",
"778 627 OFFCURVE",
"768 590 OFFCURVE",
"761 543 CURVE SMOOTH",
"706 168 LINE SMOOTH",
"690 61 OFFCURVE",
"679 55 OFFCURVE",
"645 52 CURVE SMOOTH",
"612 49 LINE",
"604 42 OFFCURVE",
"601 36 OFFCURVE",
"599 28 CURVE",
"622 19 OFFCURVE",
"728 0 OFFCURVE",
"756 0 CURVE SMOOTH",
"780 0 OFFCURVE",
"818 14 OFFCURVE",
"838 28 CURVE",
"838 36 OFFCURVE",
"835 44 OFFCURVE",
"832 47 CURVE",
"739 56 LINE",
"747 63 OFFCURVE",
"762 87 OFFCURVE",
"769 132 CURVE SMOOTH",
"834 584 LINE SMOOTH",
"842 639 OFFCURVE",
"859 652 OFFCURVE",
"895 663 CURVE SMOOTH",
"939 676 LINE",
"940 690 OFFCURVE",
"933 699 OFFCURVE",
"929 704 CURVE",
"750 704 LINE",
"633 499 OFFCURVE",
"485 257 OFFCURVE",
"437 176 CURVE",
"331 704 LINE",
"215 704 LINE SMOOTH",
"204 704 OFFCURVE",
"167 689 OFFCURVE",
"153 677 CURVE",
"154 666 OFFCURVE",
"157 662 OFFCURVE",
"159 659 CURVE",
"246 659 LINE",
"238 651 OFFCURVE",
"223 627 OFFCURVE",
"212 587 CURVE SMOOTH",
"102 142 LINE SMOOTH",
"88 85 OFFCURVE",
"75 58 OFFCURVE",
"34 52 CURVE SMOOTH",
"11 49 LINE",
"6 45 OFFCURVE",
"0 35 OFFCURVE",
"-2 28 CURVE",
"23 19 OFFCURVE",
"122 0 OFFCURVE",
"143 0 CURVE SMOOTH"
);
}
);
width = 913;
},
{
anchors = (
{
name = bottom;
position = "{435, 0}";
},
{
name = top;
position = "{572, 704}";
}
);
layerId = "65812DC5-BB64-4CCF-B3BD-7266D8F2F6F4";
paths = (
{
closed = 1;
nodes = (
"203 0 OFFCURVE",
"247 14 OFFCURVE",
"273 34 CURVE",
"273 46 OFFCURVE",
"269 54 OFFCURVE",
"266 59 CURVE",
"142 73 LINE",
"145 75 OFFCURVE",
"160 85 OFFCURVE",
"174 142 CURVE SMOOTH",
"274 556 LINE SMOOTH",
"282 588 OFFCURVE",
"291 615 OFFCURVE",
"297 627 CURVE",
"306 627 LINE",
"306 624 OFFCURVE",
"304 616 OFFCURVE",
"304 601 CURVE SMOOTH",
"304 582 OFFCURVE",
"307 556 OFFCURVE",
"313 526 CURVE SMOOTH",
"401 85 LINE",
"437 85 OFFCURVE",
"468 101 OFFCURVE",
"482 113 CURVE",
"794 634 LINE",
"806 631 LINE",
"799 616 OFFCURVE",
"787 577 OFFCURVE",
"779 523 CURVE SMOOTH",
"727 165 LINE SMOOTH",
"713 72 OFFCURVE",
"697 70 OFFCURVE",
"657 65 CURVE SMOOTH",
"624 61 LINE",
"620 58 OFFCURVE",
"610 45 OFFCURVE",
"608 34 CURVE",
"636 24 OFFCURVE",
"777 0 OFFCURVE",
"806 0 CURVE SMOOTH",
"832 0 OFFCURVE",
"872 16 OFFCURVE",
"895 34 CURVE",
"895 44 OFFCURVE",
"891 55 OFFCURVE",
"888 59 CURVE",
"787 69 LINE",
"796 77 OFFCURVE",
"811 101 OFFCURVE",
"818 145 CURVE SMOOTH",
"880 569 LINE SMOOTH",
"889 632 OFFCURVE",
"906 645 OFFCURVE",
"947 655 CURVE SMOOTH",
"995 668 LINE",
"997 688 OFFCURVE",
"988 698 OFFCURVE",
"985 704 CURVE",
"756 704 LINE",
"672 548 OFFCURVE",
"511 283 OFFCURVE",
"468 214 CURVE",
"370 704 LINE",
"212 704 LINE SMOOTH",
"201 704 OFFCURVE",
"159 686 OFFCURVE",
"144 671 CURVE",
"144 663 OFFCURVE",
"148 653 OFFCURVE",
"151 650 CURVE",
"248 650 LINE",
"240 643 OFFCURVE",
"226 618 OFFCURVE",
"212 564 CURVE SMOOTH",
"112 169 LINE SMOOTH",
"90 80 OFFCURVE",
"75 70 OFFCURVE",
"39 65 CURVE SMOOTH",
"10 61 LINE",
"5 56 OFFCURVE",
"-2 45 OFFCURVE",
"-5 34 CURVE",
"25 23 OFFCURVE",
"158 0 OFFCURVE",
"181 0 CURVE SMOOTH"
);
}
);
width = 966;
},
{
anchors = (
{
name = bottom;
position = "{455, 0}";
},
{
name = top;
position = "{592, 704}";
}
);
layerId = "28047205-16CB-4036-948B-FF1CDF00A7B3";
paths = (
{
closed = 1;
nodes = (
"222 0 OFFCURVE",
"271 15 OFFCURVE",
"297 35 CURVE",
"300 50 OFFCURVE",
"296 63 OFFCURVE",
"295 69 CURVE",
"164 85 LINE",
"171 93 OFFCURVE",
"186 117 OFFCURVE",
"193 147 CURVE SMOOTH",
"283 518 LINE SMOOTH",
"292 555 OFFCURVE",
"303 589 OFFCURVE",
"306 597 CURVE",
"313 597 LINE",
"313 591 OFFCURVE",
"312 581 OFFCURVE",
"312 571 CURVE SMOOTH",
"312 548 OFFCURVE",
"314 518 OFFCURVE",
"319 488 CURVE SMOOTH",
"388 76 LINE",
"431 76 OFFCURVE",
"475 88 OFFCURVE",
"494 96 CURVE",
"780 597 LINE",
"788 594 LINE",
"780 581 OFFCURVE",
"768 547 OFFCURVE",
"760 489 CURVE SMOOTH",
"717 174 LINE SMOOTH",
"705 83 OFFCURVE",
"687 80 OFFCURVE",
"644 76 CURVE SMOOTH",
"605 72 LINE",
"602 68 OFFCURVE",
"591 51 OFFCURVE",
"588 34 CURVE",
"615 24 OFFCURVE",
"810 0 OFFCURVE",
"847 0 CURVE SMOOTH",
"872 0 OFFCURVE",
"911 16 OFFCURVE",
"936 35 CURVE",
"939 49 OFFCURVE",
"936 65 OFFCURVE",
"934 69 CURVE",
"837 83 LINE",
"847 88 OFFCURVE",
"862 112 OFFCURVE",
"868 154 CURVE SMOOTH",
"924 556 LINE SMOOTH",
"933 622 OFFCURVE",
"958 634 OFFCURVE",
"997 643 CURVE SMOOTH",
"1044 655 LINE",
"1049 680 OFFCURVE",
"1043 697 OFFCURVE",
"1040 704 CURVE",
"742 704 LINE",
"670 562 OFFCURVE",
"558 370 OFFCURVE",
"506 276 CURVE",
"432 704 LINE",
"208 704 LINE SMOOTH",
"197 704 OFFCURVE",
"153 686 OFFCURVE",
"138 671 CURVE",
"136 657 OFFCURVE",
"140 641 OFFCURVE",
"143 637 CURVE",
"244 637 LINE",
"236 631 OFFCURVE",
"222 609 OFFCURVE",
"208 555 CURVE SMOOTH",
"113 178 LINE SMOOTH",
"90 88 OFFCURVE",
"76 80 OFFCURVE",
"42 75 CURVE SMOOTH",
"14 71 LINE",
"9 65 OFFCURVE",
"2 49 OFFCURVE",
"-2 35 CURVE",
"29 24 OFFCURVE",
"177 0 OFFCURVE",
"199 0 CURVE SMOOTH"
);
}
);
width = 1006;
}
);
leftKerningGroup = M;
rightKerningGroup = M;
unicode = 004D;
},
{
color = 6;
glyphname = N;
layers = (
{
anchors = (
{
name = bottom;
position = "{316, 0}";
},
{
name = top;
position = "{419, 704}";
}
);
layerId = "21A50CEC-A8F8-47E3-8EB4-99CD9DCFA5F3";
paths = (
{
closed = 1;
nodes = (
"137 0 OFFCURVE",
"173 9 OFFCURVE",
"198 24 CURVE",
"198 28 OFFCURVE",
"197 39 OFFCURVE",
"194 42 CURVE",
"103 50 LINE",
"110 59 OFFCURVE",
"120 78 OFFCURVE",
"126 107 CURVE SMOOTH",
"218 575 LINE SMOOTH",
"222 596 OFFCURVE",
"227 619 OFFCURVE",
"234 635 CURVE",
"238 635 LINE",
"239 622 OFFCURVE",
"243 602 OFFCURVE",
"262 553 CURVE SMOOTH",
"486 0 LINE",
"497 0 OFFCURVE",
"515 5 OFFCURVE",
"530 16 CURVE",
"531 52 OFFCURVE",
"535 87 OFFCURVE",
"543 129 CURVE SMOOTH",
"630 578 LINE SMOOTH",
"645 656 OFFCURVE",
"663 658 OFFCURVE",
"686 666 CURVE SMOOTH",
"726 679 LINE",
"728 692 OFFCURVE",
"721 700 OFFCURVE",
"718 704 CURVE",
"593 704 LINE SMOOTH",
"582 704 OFFCURVE",
"547 688 OFFCURVE",
"536 680 CURVE",
"536 670 OFFCURVE",
"539 666 OFFCURVE",
"541 663 CURVE",
"616 663 LINE",
"609 655 OFFCURVE",
"598 633 OFFCURVE",
"589 592 CURVE SMOOTH",
"513 205 LINE SMOOTH",
"502 150 OFFCURVE",
"502 127 OFFCURVE",
"500 110 CURVE",
"259 704 LINE",
"181 704 LINE SMOOTH",
"171 704 OFFCURVE",
"137 690 OFFCURVE",
"125 681 CURVE",
"125 672 OFFCURVE",
"127 667 OFFCURVE",
"129 664 CURVE",
"204 664 LINE",
"197 656 OFFCURVE",
"184 632 OFFCURVE",
"177 593 CURVE SMOOTH",
"86 122 LINE SMOOTH",
"73 57 OFFCURVE",
"56 50 OFFCURVE",
"31 46 CURVE SMOOTH",
"7 42 LINE",
"1 37 OFFCURVE",
"-2 30 OFFCURVE",
"-4 24 CURVE",
"23 15 OFFCURVE",
"95 0 OFFCURVE",
"115 0 CURVE SMOOTH"
);
}
);
width = 661;
},
{
anchors = (
{
name = bottom;
position = "{340, 0}";
},
{
name = top;
position = "{447, 704}";
}
);
layerId = "1A804BEB-C033-4C3E-8D94-4E59A38AB1F5";
paths = (
{
closed = 1;
nodes = (
"197 0 OFFCURVE",
"238 14 OFFCURVE",
"263 34 CURVE",
"263 43 OFFCURVE",
"259 52 OFFCURVE",
"256 57 CURVE",
"133 71 LINE",
"142 79 OFFCURVE",
"156 103 OFFCURVE",
"163 136 CURVE SMOOTH",
"242 548 LINE SMOOTH",
"249 585 OFFCURVE",
"256 604 OFFCURVE",
"257 608 CURVE",
"268 608 LINE",
"269 591 OFFCURVE",
"278 552 OFFCURVE",
"295 507 CURVE SMOOTH",
"496 0 LINE",
"517 2 OFFCURVE",
"551 11 OFFCURVE",
"573 28 CURVE",
"573 49 OFFCURVE",
"579 107 OFFCURVE",
"596 194 CURVE SMOOTH",
"668 561 LINE SMOOTH",
"680 624 OFFCURVE",
"690 644 OFFCURVE",
"735 656 CURVE SMOOTH",
"785 670 LINE",
"785 682 OFFCURVE",
"779 698 OFFCURVE",
"774 704 CURVE",
"599 704 LINE SMOOTH",
"587 704 OFFCURVE",
"544 679 OFFCURVE",
"532 666 CURVE",
"532 656 OFFCURVE",
"537 650 OFFCURVE",
"539 647 CURVE",
"639 647 LINE",
"627 640 OFFCURVE",
"614 609 OFFCURVE",
"605 566 CURVE SMOOTH",
"550 286 LINE SMOOTH",
"534 204 OFFCURVE",
"532 163 OFFCURVE",
"532 136 CURVE",
"307 704 LINE",
"179 704 LINE SMOOTH",
"168 704 OFFCURVE",
"127 686 OFFCURVE",
"113 672 CURVE",
"113 664 OFFCURVE",
"117 656 OFFCURVE",
"120 652 CURVE",
"217 652 LINE",
"208 646 OFFCURVE",
"192 618 OFFCURVE",
"182 571 CURVE SMOOTH",
"105 169 LINE SMOOTH",
"88 80 OFFCURVE",
"78 68 OFFCURVE",
"34 63 CURVE SMOOTH",
"4 59 LINE",
"-1 55 OFFCURVE",
"-10 45 OFFCURVE",
"-11 34 CURVE",
"20 23 OFFCURVE",
"151 0 OFFCURVE",
"176 0 CURVE SMOOTH"
);
}
);
width = 713;
},
{
anchors = (
{
name = bottom;
position = "{343, 0}";
},
{
name = top;
position = "{460, 704}";
}
);
background = {
paths = (
{
closed = 1;
nodes = (
"203 0 OFFCURVE",
"250 15 OFFCURVE",
"275 35 CURVE",
"278 50 OFFCURVE",
"275 63 OFFCURVE",
"273 68 CURVE",
"143 84 LINE",
"151 94 OFFCURVE",
"165 118 OFFCURVE",
"172 154 CURVE SMOOTH",
"243 517 LINE SMOOTH",
"252 563 OFFCURVE",
"257 578 OFFCURVE",
"259 587 CURVE",
"265 587 LINE",
"263 572 OFFCURVE",
"272 530 OFFCURVE",
"291 476 CURVE SMOOTH",
"457 0 LINE",
"504 1 OFFCURVE",
"578 12 OFFCURVE",
"615 37 CURVE",
"614 54 OFFCURVE",
"618 104 OFFCURVE",
"635 194 CURVE SMOOTH",
"704 550 LINE SMOOTH",
"716 614 OFFCURVE",
"726 631 OFFCURVE",
"772 645 CURVE SMOOTH",
"811 656 LINE",
"815 678 OFFCURVE",
"811 696 OFFCURVE",
"807 704 CURVE",
"615 704 LINE SMOOTH",
"604 704 OFFCURVE",
"561 685 OFFCURVE",
"548 671 CURVE",
"546 656 OFFCURVE",
"550 644 OFFCURVE",
"553 638 CURVE",
"655 638 LINE",
"646 632 OFFCURVE",
"631 606 OFFCURVE",
"622 558 CURVE SMOOTH",
"576 322 LINE SMOOTH",
"557 221 OFFCURVE",
"559 200 OFFCURVE",
"559 169 CURVE",
"574 143 LINE",
"377 704 LINE",
"174 704 LINE SMOOTH",
"163 704 OFFCURVE",
"120 685 OFFCURVE",
"107 671 CURVE",
"105 656 OFFCURVE",
"109 644 OFFCURVE",
"112 638 CURVE",
"199 638 LINE",
"191 632 OFFCURVE",
"176 606 OFFCURVE",
"167 561 CURVE SMOOTH",
"96 193 LINE SMOOTH",
"80 110 OFFCURVE",
"62 79 OFFCURVE",
"29 74 CURVE SMOOTH",
"0 70 LINE",
"-5 64 OFFCURVE",
"-12 51 OFFCURVE",
"-16 35 CURVE",
"26 21 OFFCURVE",
"157 0 OFFCURVE",
"181 0 CURVE SMOOTH"
);
}
);
};
layerId = "BECA3017-CCCA-4A11-8E58-D2E4FEE6FE6A";
paths = (
{
closed = 1;
nodes = (
"203 0 OFFCURVE",
"250 15 OFFCURVE",
"275 35 CURVE",
"278 50 OFFCURVE",
"275 63 OFFCURVE",
"273 68 CURVE",
"143 84 LINE",
"151 94 OFFCURVE",
"165 118 OFFCURVE",
"172 154 CURVE SMOOTH",
"243 517 LINE SMOOTH",
"252 563 OFFCURVE",
"257 578 OFFCURVE",
"259 587 CURVE",
"265 587 LINE",
"263 572 OFFCURVE",
"272 530 OFFCURVE",
"291 476 CURVE SMOOTH",
"457 0 LINE",
"504 1 OFFCURVE",
"578 12 OFFCURVE",
"615 37 CURVE",
"614 54 OFFCURVE",
"618 104 OFFCURVE",
"635 194 CURVE SMOOTH",
"704 550 LINE SMOOTH",
"716 614 OFFCURVE",
"727 632 OFFCURVE",
"772 645 CURVE SMOOTH",
"811 656 LINE",
"815 678 OFFCURVE",
"811 696 OFFCURVE",
"807 704 CURVE",
"615 704 LINE SMOOTH",
"604 704 OFFCURVE",
"561 685 OFFCURVE",
"548 671 CURVE",
"546 656 OFFCURVE",
"550 644 OFFCURVE",
"553 638 CURVE",
"655 638 LINE",
"646 632 OFFCURVE",
"631 606 OFFCURVE",
"622 558 CURVE SMOOTH",
"576 322 LINE SMOOTH",
"561 245 OFFCURVE",
"558 200 OFFCURVE",
"559 162 CURVE",
"369 704 LINE",
"174 704 LINE SMOOTH",
"163 704 OFFCURVE",
"120 685 OFFCURVE",
"107 671 CURVE",
"105 656 OFFCURVE",
"109 644 OFFCURVE",
"112 638 CURVE",
"199 638 LINE",
"191 632 OFFCURVE",
"176 606 OFFCURVE",
"167 561 CURVE SMOOTH",
"96 193 LINE SMOOTH",
"80 110 OFFCURVE",
"62 79 OFFCURVE",
"29 74 CURVE SMOOTH",
"0 70 LINE",
"-5 64 OFFCURVE",
"-12 51 OFFCURVE",
"-16 35 CURVE",
"26 21 OFFCURVE",
"157 0 OFFCURVE",
"181 0 CURVE SMOOTH"
);
}
);
width = 742;
},
{
anchors = (
{
name = bottom;
position = "{336, 0}";
},
{
name = top;
position = "{439, 704}";
}
);
layerId = "A63AEE66-7D4A-459A-A35B-D6CC97B4CA0F";
paths = (
{
closed = 1;
nodes = (
"158 0 OFFCURVE",
"199 10 OFFCURVE",
"225 28 CURVE",
"226 35 OFFCURVE",
"222 44 OFFCURVE",
"220 47 CURVE",
"115 58 LINE",
"123 66 OFFCURVE",
"134 88 OFFCURVE",
"141 118 CURVE SMOOTH",
"229 565 LINE SMOOTH",
"238 610 OFFCURVE",
"240 612 OFFCURVE",
"246 625 CURVE",
"252 625 LINE",
"253 610 OFFCURVE",
"257 585 OFFCURVE",
"278 535 CURVE SMOOTH",
"508 0 LINE",
"523 1 OFFCURVE",
"546 7 OFFCURVE",
"564 20 CURVE",
"564 49 OFFCURVE",
"568 92 OFFCURVE",
"580 154 CURVE SMOOTH",
"662 572 LINE SMOOTH",
"675 637 OFFCURVE",
"685 650 OFFCURVE",
"723 662 CURVE SMOOTH",
"768 676 LINE",
"769 688 OFFCURVE",
"762 698 OFFCURVE",
"758 704 CURVE",
"612 704 LINE SMOOTH",
"603 704 OFFCURVE",
"562 685 OFFCURVE",
"551 675 CURVE",
"551 665 OFFCURVE",
"554 660 OFFCURVE",
"556 657 CURVE",
"642 657 LINE",
"634 650 OFFCURVE",
"621 624 OFFCURVE",
"612 582 CURVE SMOOTH",
"543 236 LINE SMOOTH",
"532 180 OFFCURVE",
"529 153 OFFCURVE",
"527 120 CURVE",
"277 704 LINE",
"182 704 LINE SMOOTH",
"170 704 OFFCURVE",
"133 688 OFFCURVE",
"120 678 CURVE",
"120 670 OFFCURVE",
"123 663 OFFCURVE",
"126 659 CURVE",
"211 659 LINE",
"203 652 OFFCURVE",
"189 627 OFFCURVE",
"180 584 CURVE SMOOTH",
"94 140 LINE SMOOTH",
"79 61 OFFCURVE",
"59 58 OFFCURVE",
"32 53 CURVE SMOOTH",
"6 49 LINE",
"1 45 OFFCURVE",
"-5 35 OFFCURVE",
"-7 28 CURVE",
"22 18 OFFCURVE",
"117 0 OFFCURVE",
"139 0 CURVE SMOOTH"
);
}
);
width = 705;
},
{
anchors = (
{
name = bottom;
position = "{351, 0}";
},
{
name = top;
position = "{458, 704}";
}
);
background = {
paths = (
{
closed = 1;
nodes = (
"196 0 OFFCURVE",
"240 14 OFFCURVE",
"265 34 CURVE",
"266 44 OFFCURVE",
"261 54 OFFCURVE",
"258 58 CURVE",
"135 72 LINE",
"143 80 OFFCURVE",
"157 103 OFFCURVE",
"164 138 CURVE SMOOTH",
"244 546 LINE SMOOTH",
"250 578 OFFCURVE",
"258 602 OFFCURVE",
"260 607 CURVE",
"270 607 LINE",
"271 589 OFFCURVE",
"278 552 OFFCURVE",
"298 504 CURVE SMOOTH",
"511 0 LINE",
"534 2 OFFCURVE",
"571 10 OFFCURVE",
"594 28 CURVE",
"594 52 OFFCURVE",
"598 108 OFFCURVE",
"615 194 CURVE SMOOTH",
"688 560 LINE SMOOTH",
"702 631 OFFCURVE",
"716 643 OFFCURVE",
"756 655 CURVE SMOOTH",
"805 669 LINE",
"806 684 OFFCURVE",
"799 698 OFFCURVE",
"794 704 CURVE",
"619 704 LINE SMOOTH",
"607 704 OFFCURVE",
"564 681 OFFCURVE",
"550 667 CURVE",
"550 658 OFFCURVE",
"554 650 OFFCURVE",
"557 647 CURVE",
"657 647 LINE",
"647 640 OFFCURVE",
"632 609 OFFCURVE",
"623 565 CURVE SMOOTH",
"568 289 LINE SMOOTH",
"550 198 OFFCURVE",
"549 163 OFFCURVE",
"550 120 CURVE",
"567 99 LINE",
"315 704 LINE",
"181 704 LINE SMOOTH",
"170 704 OFFCURVE",
"127 686 OFFCURVE",
"114 672 CURVE",
"113 664 OFFCURVE",
"118 655 OFFCURVE",
"120 651 CURVE",
"218 651 LINE",
"208 644 OFFCURVE",
"192 618 OFFCURVE",
"183 570 CURVE SMOOTH",
"105 171 LINE SMOOTH",
"89 88 OFFCURVE",
"76 70 OFFCURVE",
"34 64 CURVE SMOOTH",
"4 60 LINE",
"-1 55 OFFCURVE",
"-8 46 OFFCURVE",
"-11 34 CURVE",
"24 22 OFFCURVE",
"152 0 OFFCURVE",
"175 0 CURVE SMOOTH"
);
}
);
};
layerId = "65812DC5-BB64-4CCF-B3BD-7266D8F2F6F4";
paths = (
{
closed = 1;
nodes = (
"197 0 OFFCURVE",
"242 14 OFFCURVE",
"267 34 CURVE",
"268 42 OFFCURVE",
"264 54 OFFCURVE",
"260 59 CURVE",
"136 73 LINE",
"144 81 OFFCURVE",
"157 104 OFFCURVE",
"165 139 CURVE SMOOTH",
"245 544 LINE SMOOTH",
"252 579 OFFCURVE",
"259 600 OFFCURVE",
"261 606 CURVE",
"271 606 LINE",
"271 587 OFFCURVE",
"279 550 OFFCURVE",
"299 502 CURVE SMOOTH",
"509 0 LINE",
"534 2 OFFCURVE",
"574 10 OFFCURVE",
"597 29 CURVE",
"597 54 OFFCURVE",
"601 108 OFFCURVE",
"618 194 CURVE SMOOTH",
"691 559 LINE SMOOTH",
"705 630 OFFCURVE",
"719 643 OFFCURVE",
"759 654 CURVE SMOOTH",
"808 668 LINE",
"809 684 OFFCURVE",
"801 698 OFFCURVE",
"797 704 CURVE",
"620 704 LINE SMOOTH",
"609 704 OFFCURVE",
"565 681 OFFCURVE",
"551 667 CURVE",
"551 659 OFFCURVE",
"555 650 OFFCURVE",
"558 646 CURVE",
"659 646 LINE",
"649 640 OFFCURVE",
"634 608 OFFCURVE",
"625 565 CURVE SMOOTH",
"570 291 LINE SMOOTH",
"559 235 OFFCURVE",
"551 178 OFFCURVE",
"547 122 CURVE",
"304 704 LINE",
"181 704 LINE SMOOTH",
"171 704 OFFCURVE",
"127 686 OFFCURVE",
"114 672 CURVE",
"113 663 OFFCURVE",
"118 655 OFFCURVE",
"120 650 CURVE",
"217 650 LINE",
"208 644 OFFCURVE",
"191 618 OFFCURVE",
"182 570 CURVE SMOOTH",
"105 173 LINE SMOOTH",
"89 89 OFFCURVE",
"74 71 OFFCURVE",
"34 65 CURVE SMOOTH",
"4 61 LINE",
"-1 56 OFFCURVE",
"-8 45 OFFCURVE",
"-11 34 CURVE",
"25 22 OFFCURVE",
"153 0 OFFCURVE",
"176 0 CURVE SMOOTH"
);
}
);
width = 742;
},
{
anchors = (
{
name = bottom;
position = "{363, 0}";
},
{
name = top;
position = "{479, 704}";
}
);
layerId = "28047205-16CB-4036-948B-FF1CDF00A7B3";
paths = (
{
closed = 1;
nodes = (
"217 0 OFFCURVE",
"266 15 OFFCURVE",
"292 35 CURVE",
"295 50 OFFCURVE",
"292 62 OFFCURVE",
"290 69 CURVE",
"154 85 LINE",
"162 95 OFFCURVE",
"177 118 OFFCURVE",
"184 155 CURVE SMOOTH",
"255 515 LINE SMOOTH",
"264 562 OFFCURVE",
"269 577 OFFCURVE",
"271 586 CURVE",
"278 586 LINE",
"276 570 OFFCURVE",
"285 530 OFFCURVE",
"306 474 CURVE SMOOTH",
"483 0 LINE",
"531 1 OFFCURVE",
"607 12 OFFCURVE",
"645 38 CURVE",
"644 54 OFFCURVE",
"647 103 OFFCURVE",
"665 195 CURVE SMOOTH",
"734 549 LINE SMOOTH",
"746 612 OFFCURVE",
"755 631 OFFCURVE",
"804 644 CURVE SMOOTH",
"845 655 LINE",
"849 681 OFFCURVE",
"843 697 OFFCURVE",
"840 704 CURVE",
"640 704 LINE SMOOTH",
"629 704 OFFCURVE",
"584 685 OFFCURVE",
"571 671 CURVE",
"569 654 OFFCURVE",
"573 645 OFFCURVE",
"576 637 CURVE",
"683 637 LINE",
"673 631 OFFCURVE",
"657 605 OFFCURVE",
"648 557 CURVE SMOOTH",
"603 325 LINE SMOOTH",
"589 252 OFFCURVE",
"586 225 OFFCURVE",
"586 169 CURVE",
"387 704 LINE",
"182 704 LINE SMOOTH",
"171 704 OFFCURVE",
"125 685 OFFCURVE",
"112 671 CURVE",
"110 657 OFFCURVE",
"114 643 OFFCURVE",
"118 637 CURVE",
"209 637 LINE",
"200 631 OFFCURVE",
"185 604 OFFCURVE",
"176 560 CURVE SMOOTH",
"105 195 LINE SMOOTH",
"86 100 OFFCURVE",
"65 79 OFFCURVE",
"36 75 CURVE SMOOTH",
"5 71 LINE",
"0 65 OFFCURVE",
"-7 49 OFFCURVE",
"-11 35 CURVE",
"33 21 OFFCURVE",
"169 0 OFFCURVE",
"195 0 CURVE SMOOTH"
);
}
);
width = 780;
}
);
leftKerningGroup = H;
leftMetricsKey = H;
rightKerningGroup = N;
unicode = 004E;
},
{
color = 6;
glyphname = Eng;
layers = (
{
layerId = "21A50CEC-A8F8-47E3-8EB4-99CD9DCFA5F3";
paths = (
{
closed = 1;
nodes = (
"405 -200 OFFCURVE",
"507 -87 OFFCURVE",
"519 -50 CURVE",
"526 50 OFFCURVE",
"534 78 OFFCURVE",
"543 129 CURVE SMOOTH",
"630 578 LINE SMOOTH",
"645 656 OFFCURVE",
"663 658 OFFCURVE",
"686 666 CURVE SMOOTH",
"726 679 LINE",
"728 692 OFFCURVE",
"721 700 OFFCURVE",
"718 704 CURVE",
"593 704 LINE SMOOTH",
"582 704 OFFCURVE",
"547 688 OFFCURVE",
"536 680 CURVE",
"536 670 OFFCURVE",
"539 666 OFFCURVE",
"541 663 CURVE",
"616 663 LINE",
"609 655 OFFCURVE",
"598 633 OFFCURVE",
"589 592 CURVE SMOOTH",
"513 205 LINE SMOOTH",
"502 150 OFFCURVE",
"502 127 OFFCURVE",
"500 110 CURVE",
"259 704 LINE",
"181 704 LINE SMOOTH",
"171 704 OFFCURVE",
"137 690 OFFCURVE",
"125 681 CURVE",
"125 672 OFFCURVE",
"127 667 OFFCURVE",
"129 664 CURVE",
"204 664 LINE",
"197 656 OFFCURVE",
"185 631 OFFCURVE",
"177 593 CURVE SMOOTH",
"86 122 LINE SMOOTH",
"73 57 OFFCURVE",
"56 50 OFFCURVE",
"31 46 CURVE SMOOTH",
"7 42 LINE",
"1 37 OFFCURVE",
"-2 30 OFFCURVE",
"-4 24 CURVE",
"23 15 OFFCURVE",
"95 0 OFFCURVE",
"115 0 CURVE SMOOTH",
"136 0 OFFCURVE",
"173 9 OFFCURVE",
"198 24 CURVE",
"198 28 OFFCURVE",
"197 39 OFFCURVE",
"194 42 CURVE",
"103 50 LINE",
"110 59 OFFCURVE",
"120 78 OFFCURVE",
"126 107 CURVE SMOOTH",
"218 575 LINE SMOOTH",
"222 596 OFFCURVE",
"227 619 OFFCURVE",
"234 635 CURVE",
"238 635 LINE",
"239 620 OFFCURVE",
"242 603 OFFCURVE",
"262 553 CURVE SMOOTH",
"481 13 LINE",
"468 -56 LINE",
"430 -99 OFFCURVE",
"358 -148 OFFCURVE",
"301 -162 CURVE",
"297 -165 OFFCURVE",
"292 -174 OFFCURVE",
"290 -182 CURVE",
"308 -193 OFFCURVE",
"348 -200 OFFCURVE",
"375 -200 CURVE SMOOTH"
);
}
);
width = 661;
},
{
layerId = "1A804BEB-C033-4C3E-8D94-4E59A38AB1F5";
paths = (
{
closed = 1;
nodes = (
"434 -200 OFFCURVE",
"529 -99 OFFCURVE",
"569 -26 CURVE",
"569 27 OFFCURVE",
"579 108 OFFCURVE",
"596 194 CURVE SMOOTH",
"668 561 LINE SMOOTH",
"681 625 OFFCURVE",
"690 643 OFFCURVE",
"735 656 CURVE SMOOTH",
"785 670 LINE",
"785 682 OFFCURVE",
"779 698 OFFCURVE",
"774 704 CURVE",
"599 704 LINE SMOOTH",
"587 704 OFFCURVE",
"544 679 OFFCURVE",
"532 666 CURVE",
"532 656 OFFCURVE",
"537 650 OFFCURVE",
"539 647 CURVE",
"639 647 LINE",
"627 640 OFFCURVE",
"614 609 OFFCURVE",
"605 566 CURVE SMOOTH",
"550 286 LINE SMOOTH",
"534 204 OFFCURVE",
"532 164 OFFCURVE",
"532 137 CURVE",
"307 704 LINE",
"179 704 LINE SMOOTH",
"168 704 OFFCURVE",
"127 686 OFFCURVE",
"113 672 CURVE",
"113 664 OFFCURVE",
"117 656 OFFCURVE",
"120 652 CURVE",
"217 652 LINE",
"208 646 OFFCURVE",
"192 618 OFFCURVE",
"182 571 CURVE SMOOTH",
"105 169 LINE SMOOTH",
"88 79 OFFCURVE",
"77 69 OFFCURVE",
"34 63 CURVE SMOOTH",
"4 59 LINE",
"-1 55 OFFCURVE",
"-10 45 OFFCURVE",
"-11 34 CURVE",
"20 23 OFFCURVE",
"151 0 OFFCURVE",
"176 0 CURVE SMOOTH",
"197 0 OFFCURVE",
"238 14 OFFCURVE",
"263 34 CURVE",
"263 43 OFFCURVE",
"259 52 OFFCURVE",
"256 57 CURVE",
"133 71 LINE",
"142 79 OFFCURVE",
"156 103 OFFCURVE",
"163 136 CURVE SMOOTH",
"242 548 LINE SMOOTH",
"249 585 OFFCURVE",
"256 604 OFFCURVE",
"257 608 CURVE",
"268 608 LINE",
"269 591 OFFCURVE",
"277 551 OFFCURVE",
"295 507 CURVE SMOOTH",
"502 -13 LINE",
"497 -40 LINE",
"459 -76 OFFCURVE",
"381 -125 OFFCURVE",
"308 -147 CURVE",
"304 -150 OFFCURVE",
"299 -157 OFFCURVE",
"296 -169 CURVE",
"316 -186 OFFCURVE",
"372 -200 OFFCURVE",
"399 -200 CURVE SMOOTH"
);
}
);
width = 713;
},
{
layerId = "BECA3017-CCCA-4A11-8E58-D2E4FEE6FE6A";
paths = (
{
closed = 1;
nodes = (
"437 -200 OFFCURVE",
"559 -85 OFFCURVE",
"615 26 CURVE",
"614 70 OFFCURVE",
"625 141 OFFCURVE",
"635 194 CURVE SMOOTH",
"704 550 LINE SMOOTH",
"716 614 OFFCURVE",
"727 633 OFFCURVE",
"772 645 CURVE SMOOTH",
"811 656 LINE",
"815 678 OFFCURVE",
"811 696 OFFCURVE",
"807 704 CURVE",
"615 704 LINE SMOOTH",
"604 704 OFFCURVE",
"561 685 OFFCURVE",
"548 671 CURVE",
"546 656 OFFCURVE",
"550 644 OFFCURVE",
"553 638 CURVE",
"655 638 LINE",
"646 632 OFFCURVE",
"631 606 OFFCURVE",
"622 558 CURVE SMOOTH",
"576 322 LINE SMOOTH",
"557 225 OFFCURVE",
"559 193 OFFCURVE",
"559 161 CURVE",
"369 704 LINE",
"174 704 LINE SMOOTH",
"163 704 OFFCURVE",
"120 685 OFFCURVE",
"107 671 CURVE",
"105 656 OFFCURVE",
"109 644 OFFCURVE",
"112 638 CURVE",
"199 638 LINE",
"191 632 OFFCURVE",
"176 606 OFFCURVE",
"167 561 CURVE SMOOTH",
"96 193 LINE SMOOTH",
"77 94 OFFCURVE",
"57 78 OFFCURVE",
"29 74 CURVE SMOOTH",
"0 70 LINE",
"-5 64 OFFCURVE",
"-12 51 OFFCURVE",
"-16 35 CURVE",
"26 21 OFFCURVE",
"157 0 OFFCURVE",
"181 0 CURVE SMOOTH",
"203 0 OFFCURVE",
"250 15 OFFCURVE",
"275 35 CURVE",
"278 50 OFFCURVE",
"275 63 OFFCURVE",
"273 68 CURVE",
"143 84 LINE",
"151 94 OFFCURVE",
"165 118 OFFCURVE",
"172 154 CURVE SMOOTH",
"243 517 LINE SMOOTH",
"252 563 OFFCURVE",
"257 578 OFFCURVE",
"259 587 CURVE",
"265 587 LINE",
"263 572 OFFCURVE",
"271 530 OFFCURVE",
"291 476 CURVE SMOOTH",
"467 -27 LINE",
"466 -35 LINE",
"388 -77 OFFCURVE",
"339 -90 OFFCURVE",
"242 -113 CURVE",
"236 -122 OFFCURVE",
"228 -139 OFFCURVE",
"225 -156 CURVE",
"250 -178 OFFCURVE",
"338 -200 OFFCURVE",
"371 -200 CURVE SMOOTH"
);
}
);
width = 742;
},
{
background = {
components = (
{
name = N;
}
);
};
layerId = "A63AEE66-7D4A-459A-A35B-D6CC97B4CA0F";
paths = (
{
closed = 1;
nodes = (
"432 -200 OFFCURVE",
"537 -91 OFFCURVE",
"558 -42 CURVE",
"561 33 OFFCURVE",
"568 92 OFFCURVE",
"580 154 CURVE SMOOTH",
"662 572 LINE SMOOTH",
"675 637 OFFCURVE",
"685 650 OFFCURVE",
"723 662 CURVE SMOOTH",
"768 676 LINE",
"769 690 OFFCURVE",
"762 697 OFFCURVE",
"757 704 CURVE",
"612 704 LINE SMOOTH",
"603 704 OFFCURVE",
"562 685 OFFCURVE",
"551 675 CURVE",
"551 665 OFFCURVE",
"554 660 OFFCURVE",
"556 657 CURVE",
"642 657 LINE",
"634 650 OFFCURVE",
"620 624 OFFCURVE",
"612 582 CURVE SMOOTH",
"543 236 LINE SMOOTH",
"532 180 OFFCURVE",
"529 153 OFFCURVE",
"527 120 CURVE",
"277 704 LINE",
"182 704 LINE SMOOTH",
"170 704 OFFCURVE",
"133 688 OFFCURVE",
"120 678 CURVE",
"120 670 OFFCURVE",
"123 663 OFFCURVE",
"126 659 CURVE",
"211 659 LINE",
"203 652 OFFCURVE",
"188 627 OFFCURVE",
"180 584 CURVE SMOOTH",
"94 140 LINE SMOOTH",
"79 61 OFFCURVE",
"59 57 OFFCURVE",
"32 53 CURVE SMOOTH",
"6 49 LINE",
"1 45 OFFCURVE",
"-5 35 OFFCURVE",
"-7 28 CURVE",
"22 18 OFFCURVE",
"117 0 OFFCURVE",
"138 0 CURVE SMOOTH",
"158 0 OFFCURVE",
"199 10 OFFCURVE",
"225 28 CURVE",
"226 35 OFFCURVE",
"222 44 OFFCURVE",
"220 47 CURVE",
"115 58 LINE",
"123 66 OFFCURVE",
"135 88 OFFCURVE",
"141 118 CURVE SMOOTH",
"229 565 LINE SMOOTH",
"238 610 OFFCURVE",
"240 612 OFFCURVE",
"246 625 CURVE",
"252 625 LINE",
"253 610 OFFCURVE",
"257 585 OFFCURVE",
"278 535 CURVE SMOOTH",
"506 4 LINE",
"496 -50 LINE",
"459 -90 OFFCURVE",
"387 -140 OFFCURVE",
"323 -157 CURVE",
"319 -160 OFFCURVE",
"314 -168 OFFCURVE",
"312 -178 CURVE",
"328 -189 OFFCURVE",
"370 -200 OFFCURVE",
"402 -200 CURVE SMOOTH"
);
}
);
width = 705;
},
{
background = {
components = (
{
name = N;
}
);
};
layerId = "65812DC5-BB64-4CCF-B3BD-7266D8F2F6F4";
paths = (
{
closed = 1;
nodes = (
"448 -200 OFFCURVE",
"552 -97 OFFCURVE",
"594 -26 CURVE",
"593 29 OFFCURVE",
"601 109 OFFCURVE",
"618 194 CURVE SMOOTH",
"691 559 LINE SMOOTH",
"705 630 OFFCURVE",
"719 643 OFFCURVE",
"759 654 CURVE SMOOTH",
"808 668 LINE",
"809 684 OFFCURVE",
"801 698 OFFCURVE",
"797 704 CURVE",
"620 704 LINE SMOOTH",
"609 704 OFFCURVE",
"565 681 OFFCURVE",
"551 667 CURVE",
"551 659 OFFCURVE",
"555 650 OFFCURVE",
"558 646 CURVE",
"659 646 LINE",
"649 640 OFFCURVE",
"634 608 OFFCURVE",
"625 565 CURVE SMOOTH",
"570 291 LINE SMOOTH",
"559 235 OFFCURVE",
"551 178 OFFCURVE",
"547 122 CURVE",
"304 704 LINE",
"181 704 LINE SMOOTH",
"171 704 OFFCURVE",
"127 686 OFFCURVE",
"114 672 CURVE",
"113 663 OFFCURVE",
"117 654 OFFCURVE",
"120 650 CURVE",
"217 650 LINE",
"208 644 OFFCURVE",
"191 618 OFFCURVE",
"182 570 CURVE SMOOTH",
"105 173 LINE SMOOTH",
"89 89 OFFCURVE",
"74 71 OFFCURVE",
"33 65 CURVE SMOOTH",
"4 61 LINE",
"-1 56 OFFCURVE",
"-8 45 OFFCURVE",
"-11 34 CURVE",
"25 22 OFFCURVE",
"153 0 OFFCURVE",
"176 0 CURVE SMOOTH",
"197 0 OFFCURVE",
"242 14 OFFCURVE",
"267 34 CURVE",
"268 42 OFFCURVE",
"264 54 OFFCURVE",
"260 59 CURVE",
"136 73 LINE",
"144 81 OFFCURVE",
"158 104 OFFCURVE",
"165 139 CURVE SMOOTH",
"245 544 LINE SMOOTH",
"252 579 OFFCURVE",
"259 600 OFFCURVE",
"261 606 CURVE",
"271 606 LINE",
"271 587 OFFCURVE",
"279 550 OFFCURVE",
"299 502 CURVE SMOOTH",
"514 -13 LINE",
"508 -40 LINE",
"470 -76 OFFCURVE",
"393 -125 OFFCURVE",
"319 -147 CURVE",
"313 -151 OFFCURVE",
"309 -160 OFFCURVE",
"307 -169 CURVE",
"327 -186 OFFCURVE",
"383 -200 OFFCURVE",
"411 -200 CURVE SMOOTH"
);
}
);
width = 742;
},
{
background = {
components = (
{
name = N;
}
);
};
layerId = "28047205-16CB-4036-948B-FF1CDF00A7B3";
paths = (
{
closed = 1;
nodes = (
"457 -200 OFFCURVE",
"586 -85 OFFCURVE",
"645 29 CURVE",
"645 68 OFFCURVE",
"647 103 OFFCURVE",
"665 195 CURVE SMOOTH",
"734 549 LINE SMOOTH",
"746 612 OFFCURVE",
"755 631 OFFCURVE",
"804 644 CURVE SMOOTH",
"845 655 LINE",
"849 681 OFFCURVE",
"843 697 OFFCURVE",
"840 704 CURVE",
"640 704 LINE SMOOTH",
"629 704 OFFCURVE",
"584 685 OFFCURVE",
"571 671 CURVE",
"569 654 OFFCURVE",
"573 645 OFFCURVE",
"576 637 CURVE",
"683 637 LINE",
"673 631 OFFCURVE",
"657 605 OFFCURVE",
"648 557 CURVE SMOOTH",
"603 325 LINE SMOOTH",
"589 252 OFFCURVE",
"586 225 OFFCURVE",
"586 169 CURVE",
"387 704 LINE",
"182 704 LINE SMOOTH",
"171 704 OFFCURVE",
"125 685 OFFCURVE",
"112 671 CURVE",
"110 656 OFFCURVE",
"114 643 OFFCURVE",
"118 637 CURVE",
"209 637 LINE",
"200 631 OFFCURVE",
"185 604 OFFCURVE",
"176 560 CURVE SMOOTH",
"105 195 LINE SMOOTH",
"86 99 OFFCURVE",
"65 79 OFFCURVE",
"36 75 CURVE SMOOTH",
"5 71 LINE",
"0 65 OFFCURVE",
"-7 49 OFFCURVE",
"-11 35 CURVE",
"32 21 OFFCURVE",
"169 0 OFFCURVE",
"195 0 CURVE SMOOTH",
"217 0 OFFCURVE",
"266 15 OFFCURVE",
"292 35 CURVE",
"295 50 OFFCURVE",
"292 62 OFFCURVE",
"290 69 CURVE",
"154 85 LINE",
"162 95 OFFCURVE",
"177 118 OFFCURVE",
"184 155 CURVE SMOOTH",
"255 515 LINE SMOOTH",
"264 562 OFFCURVE",
"269 577 OFFCURVE",
"271 586 CURVE",
"278 586 LINE",
"276 571 OFFCURVE",
"285 528 OFFCURVE",
"306 473 CURVE SMOOTH",
"494 -28 LINE",
"493 -34 LINE",
"407 -79 OFFCURVE",
"348 -90 OFFCURVE",
"255 -111 CURVE",
"249 -120 OFFCURVE",
"241 -140 OFFCURVE",
"238 -155 CURVE",
"265 -178 OFFCURVE",
"356 -200 OFFCURVE",
"389 -200 CURVE SMOOTH"
);
}
);
width = 780;
}
);
leftKerningGroup = H;
leftMetricsKey = H;
rightKerningGroup = N;
rightMetricsKey = N;
unicode = 014A;
},
{
color = 6;
glyphname = Nhookleft;
layers = (
{
layerId = "21A50CEC-A8F8-47E3-8EB4-99CD9DCFA5F3";
paths = (
{
closed = 1;
nodes = (
"-18 -200 OFFCURVE",
"85 -100 OFFCURVE",
"91 -67 CURVE SMOOTH",
"217 575 LINE SMOOTH",
"224 613 OFFCURVE",
"228 620 OFFCURVE",
"234 635 CURVE",
"238 635 LINE",
"239 620 OFFCURVE",
"241 603 OFFCURVE",
"261 553 CURVE SMOOTH",
"485 0 LINE",
"497 0 OFFCURVE",
"515 6 OFFCURVE",
"529 16 CURVE",
"529 39 OFFCURVE",
"532 80 OFFCURVE",
"542 129 CURVE SMOOTH",
"629 578 LINE SMOOTH",
"642 645 OFFCURVE",
"656 657 OFFCURVE",
"685 666 CURVE SMOOTH",
"725 679 LINE",
"726 693 OFFCURVE",
"720 700 OFFCURVE",
"717 704 CURVE",
"592 704 LINE SMOOTH",
"582 704 OFFCURVE",
"546 688 OFFCURVE",
"536 680 CURVE",
"536 672 OFFCURVE",
"538 666 OFFCURVE",
"540 663 CURVE",
"616 663 LINE",
"608 655 OFFCURVE",
"596 630 OFFCURVE",
"588 592 CURVE SMOOTH",
"513 205 LINE SMOOTH",
"502 150 OFFCURVE",
"500 123 OFFCURVE",
"499 110 CURVE",
"258 704 LINE",
"181 704 LINE SMOOTH",
"170 704 OFFCURVE",
"135 689 OFFCURVE",
"125 681 CURVE",
"125 671 OFFCURVE",
"127 667 OFFCURVE",
"129 664 CURVE",
"204 664 LINE",
"197 656 OFFCURVE",
"184 633 OFFCURVE",
"176 593 CURVE SMOOTH",
"49 -65 LINE",
"12 -104 OFFCURVE",
"-45 -148 OFFCURVE",
"-109 -162 CURVE",
"-114 -166 OFFCURVE",
"-119 -176 OFFCURVE",
"-120 -182 CURVE",
"-102 -193 OFFCURVE",
"-63 -200 OFFCURVE",
"-45 -200 CURVE SMOOTH"
);
}
);
width = 660;
},
{
layerId = "1A804BEB-C033-4C3E-8D94-4E59A38AB1F5";
paths = (
{
closed = 1;
nodes = (
"0 -200 OFFCURVE",
"92 -112 OFFCURVE",
"128 -53 CURVE",
"243 548 LINE SMOOTH",
"249 581 OFFCURVE",
"257 604 OFFCURVE",
"258 608 CURVE",
"269 608 LINE",
"270 591 OFFCURVE",
"279 553 OFFCURVE",
"296 507 CURVE SMOOTH",
"497 0 LINE",
"518 2 OFFCURVE",
"553 10 OFFCURVE",
"574 28 CURVE",
"574 49 OFFCURVE",
"580 107 OFFCURVE",
"597 194 CURVE SMOOTH",
"669 561 LINE SMOOTH",
"682 625 OFFCURVE",
"691 643 OFFCURVE",
"736 656 CURVE SMOOTH",
"786 670 LINE",
"786 683 OFFCURVE",
"780 697 OFFCURVE",
"775 704 CURVE",
"600 704 LINE SMOOTH",
"589 704 OFFCURVE",
"547 681 OFFCURVE",
"532 666 CURVE",
"533 657 OFFCURVE",
"538 650 OFFCURVE",
"540 647 CURVE",
"639 647 LINE",
"629 640 OFFCURVE",
"615 611 OFFCURVE",
"606 566 CURVE SMOOTH",
"551 286 LINE SMOOTH",
"535 203 OFFCURVE",
"533 162 OFFCURVE",
"533 136 CURVE",
"308 704 LINE",
"180 704 LINE SMOOTH",
"168 704 OFFCURVE",
"128 686 OFFCURVE",
"114 672 CURVE",
"114 663 OFFCURVE",
"118 656 OFFCURVE",
"121 652 CURVE",
"218 652 LINE",
"209 646 OFFCURVE",
"193 618 OFFCURVE",
"183 571 CURVE SMOOTH",
"61 -61 LINE",
"23 -89 OFFCURVE",
"-40 -126 OFFCURVE",
"-109 -147 CURVE",
"-113 -150 OFFCURVE",
"-118 -156 OFFCURVE",
"-121 -169 CURVE",
"-103 -185 OFFCURVE",
"-58 -200 OFFCURVE",
"-29 -200 CURVE SMOOTH"
);
}
);
width = 714;
},
{
layerId = "BECA3017-CCCA-4A11-8E58-D2E4FEE6FE6A";
paths = (
{
closed = 1;
nodes = (
"6 -201 OFFCURVE",
"101 -131 OFFCURVE",
"134 -64 CURVE",
"246 517 LINE SMOOTH",
"255 563 OFFCURVE",
"260 578 OFFCURVE",
"262 587 CURVE",
"268 587 LINE",
"266 572 OFFCURVE",
"275 530 OFFCURVE",
"294 476 CURVE SMOOTH",
"460 0 LINE",
"507 1 OFFCURVE",
"581 12 OFFCURVE",
"618 37 CURVE",
"617 54 OFFCURVE",
"621 104 OFFCURVE",
"638 194 CURVE SMOOTH",
"707 550 LINE SMOOTH",
"719 614 OFFCURVE",
"729 633 OFFCURVE",
"775 645 CURVE SMOOTH",
"814 656 LINE",
"818 678 OFFCURVE",
"814 696 OFFCURVE",
"810 704 CURVE",
"618 704 LINE SMOOTH",
"607 704 OFFCURVE",
"564 685 OFFCURVE",
"551 671 CURVE",
"549 656 OFFCURVE",
"553 644 OFFCURVE",
"556 638 CURVE",
"658 638 LINE",
"649 632 OFFCURVE",
"634 606 OFFCURVE",
"625 558 CURVE SMOOTH",
"579 322 LINE SMOOTH",
"562 236 OFFCURVE",
"561 193 OFFCURVE",
"562 162 CURVE",
"372 704 LINE",
"177 704 LINE SMOOTH",
"166 704 OFFCURVE",
"123 685 OFFCURVE",
"110 671 CURVE",
"108 656 OFFCURVE",
"112 644 OFFCURVE",
"115 638 CURVE",
"202 638 LINE",
"194 632 OFFCURVE",
"179 606 OFFCURVE",
"170 561 CURVE SMOOTH",
"55 -33 LINE",
"12 -63 OFFCURVE",
"-55 -90 OFFCURVE",
"-134 -113 CURVE",
"-139 -122 OFFCURVE",
"-147 -137 OFFCURVE",
"-151 -156 CURVE",
"-121 -178 OFFCURVE",
"-71 -201 OFFCURVE",
"-35 -201 CURVE SMOOTH"
);
}
);
width = 745;
},
{
layerId = "A63AEE66-7D4A-459A-A35B-D6CC97B4CA0F";
paths = (
{
closed = 1;
nodes = (
"-7 -200 OFFCURVE",
"101 -102 OFFCURVE",
"110 -56 CURVE SMOOTH",
"235 565 LINE SMOOTH",
"240 589 OFFCURVE",
"244 610 OFFCURVE",
"252 625 CURVE",
"258 625 LINE",
"259 610 OFFCURVE",
"263 585 OFFCURVE",
"284 535 CURVE SMOOTH",
"514 0 LINE",
"529 1 OFFCURVE",
"552 7 OFFCURVE",
"570 20 CURVE",
"570 49 OFFCURVE",
"574 92 OFFCURVE",
"586 154 CURVE SMOOTH",
"668 572 LINE SMOOTH",
"682 645 OFFCURVE",
"696 654 OFFCURVE",
"729 663 CURVE SMOOTH",
"774 676 LINE",
"775 688 OFFCURVE",
"768 698 OFFCURVE",
"764 704 CURVE",
"618 704 LINE SMOOTH",
"609 704 OFFCURVE",
"568 685 OFFCURVE",
"557 675 CURVE",
"557 665 OFFCURVE",
"560 660 OFFCURVE",
"562 657 CURVE",
"648 657 LINE",
"640 650 OFFCURVE",
"627 624 OFFCURVE",
"618 582 CURVE SMOOTH",
"549 236 LINE SMOOTH",
"538 180 OFFCURVE",
"535 153 OFFCURVE",
"533 120 CURVE",
"283 704 LINE",
"188 704 LINE SMOOTH",
"176 704 OFFCURVE",
"139 688 OFFCURVE",
"126 678 CURVE",
"126 669 OFFCURVE",
"129 664 OFFCURVE",
"132 659 CURVE",
"217 659 LINE",
"209 652 OFFCURVE",
"193 623 OFFCURVE",
"186 584 CURVE SMOOTH",
"60 -64 LINE",
"22 -99 OFFCURVE",
"-40 -139 OFFCURVE",
"-106 -156 CURVE",
"-111 -160 OFFCURVE",
"-116 -170 OFFCURVE",
"-118 -177 CURVE",
"-99 -190 OFFCURVE",
"-57 -200 OFFCURVE",
"-34 -200 CURVE SMOOTH"
);
}
);
width = 711;
},
{
layerId = "65812DC5-BB64-4CCF-B3BD-7266D8F2F6F4";
paths = (
{
closed = 1;
nodes = (
"6 -200 OFFCURVE",
"102 -115 OFFCURVE",
"135 -53 CURVE",
"251 544 LINE SMOOTH",
"257 577 OFFCURVE",
"266 601 OFFCURVE",
"267 606 CURVE",
"277 606 LINE",
"278 588 OFFCURVE",
"284 551 OFFCURVE",
"305 502 CURVE SMOOTH",
"516 0 LINE",
"540 2 OFFCURVE",
"579 10 OFFCURVE",
"604 29 CURVE",
"604 54 OFFCURVE",
"608 108 OFFCURVE",
"625 194 CURVE SMOOTH",
"698 559 LINE SMOOTH",
"712 630 OFFCURVE",
"726 643 OFFCURVE",
"766 654 CURVE SMOOTH",
"814 668 LINE",
"815 684 OFFCURVE",
"809 696 OFFCURVE",
"804 704 CURVE",
"627 704 LINE SMOOTH",
"615 704 OFFCURVE",
"572 681 OFFCURVE",
"558 667 CURVE",
"558 657 OFFCURVE",
"562 650 OFFCURVE",
"565 646 CURVE",
"665 646 LINE",
"656 640 OFFCURVE",
"641 613 OFFCURVE",
"631 565 CURVE SMOOTH",
"577 291 LINE SMOOTH",
"566 235 OFFCURVE",
"558 175 OFFCURVE",
"553 122 CURVE",
"310 704 LINE",
"188 704 LINE SMOOTH",
"178 704 OFFCURVE",
"135 687 OFFCURVE",
"120 672 CURVE",
"119 665 OFFCURVE",
"124 654 OFFCURVE",
"126 650 CURVE",
"224 650 LINE",
"214 643 OFFCURVE",
"198 618 OFFCURVE",
"189 570 CURVE SMOOTH",
"67 -57 LINE",
"26 -86 OFFCURVE",
"-37 -120 OFFCURVE",
"-110 -142 CURVE",
"-114 -146 OFFCURVE",
"-120 -155 OFFCURVE",
"-123 -167 CURVE",
"-103 -184 OFFCURVE",
"-54 -200 OFFCURVE",
"-26 -200 CURVE SMOOTH"
);
}
);
width = 748;
},
{
layerId = "28047205-16CB-4036-948B-FF1CDF00A7B3";
paths = (
{
closed = 1;
nodes = (
"12 -201 OFFCURVE",
"110 -130 OFFCURVE",
"144 -61 CURVE",
"258 515 LINE SMOOTH",
"267 562 OFFCURVE",
"272 577 OFFCURVE",
"274 586 CURVE",
"281 586 LINE",
"279 570 OFFCURVE",
"288 530 OFFCURVE",
"309 474 CURVE SMOOTH",
"486 0 LINE",
"534 1 OFFCURVE",
"610 12 OFFCURVE",
"648 38 CURVE",
"647 54 OFFCURVE",
"650 103 OFFCURVE",
"668 195 CURVE SMOOTH",
"737 549 LINE SMOOTH",
"749 612 OFFCURVE",
"759 631 OFFCURVE",
"807 644 CURVE SMOOTH",
"848 655 LINE",
"852 681 OFFCURVE",
"846 697 OFFCURVE",
"843 704 CURVE",
"643 704 LINE SMOOTH",
"632 704 OFFCURVE",
"587 685 OFFCURVE",
"574 671 CURVE",
"572 654 OFFCURVE",
"576 645 OFFCURVE",
"579 637 CURVE",
"686 637 LINE",
"676 631 OFFCURVE",
"660 605 OFFCURVE",
"651 557 CURVE SMOOTH",
"606 325 LINE SMOOTH",
"591 248 OFFCURVE",
"589 219 OFFCURVE",
"589 169 CURVE",
"390 704 LINE",
"185 704 LINE SMOOTH",
"174 704 OFFCURVE",
"128 685 OFFCURVE",
"115 671 CURVE",
"113 657 OFFCURVE",
"117 643 OFFCURVE",
"121 637 CURVE",
"212 637 LINE",
"203 631 OFFCURVE",
"187 604 OFFCURVE",
"179 560 CURVE SMOOTH",
"64 -32 LINE",
"17 -63 OFFCURVE",
"-54 -89 OFFCURVE",
"-132 -111 CURVE",
"-136 -119 OFFCURVE",
"-145 -135 OFFCURVE",
"-149 -155 CURVE",
"-118 -178 OFFCURVE",
"-64 -201 OFFCURVE",
"-29 -201 CURVE SMOOTH"
);
}
);
width = 783;
}
);
leftKerningGroup = J;
leftMetricsKey = J;
rightKerningGroup = N;
rightMetricsKey = N;
unicode = 019D;
},
{
color = 6;
glyphname = O;
layers = (
{
anchors = (
{
name = bottom;
position = "{287, 0}";
},
{
name = center;
position = "{342, 352}";
},
{
name = ogonek;
position = "{357, 0}";
},
{
name = top;
position = "{417, 704}";
},
{
name = topleft;
position = "{109, 704}";
},
{
name = topright;
position = "{507, 704}";
}
);
layerId = "21A50CEC-A8F8-47E3-8EB4-99CD9DCFA5F3";
paths = (
{
closed = 1;
nodes = (
"363 0 OFFCURVE",
"455 52 OFFCURVE",
"513 97 CURVE",
"579 202 OFFCURVE",
"631 428 OFFCURVE",
"631 548 CURVE SMOOTH",
"631 572 OFFCURVE",
"629 599 OFFCURVE",
"624 620 CURVE",
"602 661 OFFCURVE",
"498 720 OFFCURVE",
"438 720 CURVE SMOOTH",
"353 720 OFFCURVE",
"230 661 OFFCURVE",
"170 620 CURVE",
"113 524 OFFCURVE",
"61 322 OFFCURVE",
"61 202 CURVE SMOOTH",
"61 160 OFFCURVE",
"66 123 OFFCURVE",
"78 95 CURVE",
"103 58 OFFCURVE",
"210 0 OFFCURVE",
"269 0 CURVE SMOOTH"
);
},
{
closed = 1;
nodes = (
"248 48 OFFCURVE",
"153 97 OFFCURVE",
"131 131 CURVE",
"125 146 OFFCURVE",
"122 172 OFFCURVE",
"122 202 CURVE SMOOTH",
"122 325 OFFCURVE",
"178 541 OFFCURVE",
"227 615 CURVE",
"270 638 OFFCURVE",
"360 670 OFFCURVE",
"407 670 CURVE SMOOTH",
"465 670 OFFCURVE",
"551 619 OFFCURVE",
"568 592 CURVE",
"569 581 OFFCURVE",
"570 569 OFFCURVE",
"570 554 CURVE SMOOTH",
"570 429 OFFCURVE",
"515 178 OFFCURVE",
"456 101 CURVE",
"426 82 OFFCURVE",
"347 48 OFFCURVE",
"300 48 CURVE SMOOTH"
);
}
);
width = 645;
},
{
anchors = (
{
name = bottom;
position = "{296, 0}";
},
{
name = center;
position = "{359, 352}";
},
{
name = ogonek;
position = "{359, 0}";
},
{
name = top;
position = "{428, 704}";
},
{
name = topleft;
position = "{112, 704}";
},
{
name = topright;
position = "{533, 704}";
}
);
layerId = "1A804BEB-C033-4C3E-8D94-4E59A38AB1F5";
paths = (
{
closed = 1;
nodes = (
"392 0 OFFCURVE",
"500 70 OFFCURVE",
"553 116 CURVE",
"602 182 OFFCURVE",
"670 418 OFFCURVE",
"670 541 CURVE SMOOTH",
"670 573 OFFCURVE",
"666 602 OFFCURVE",
"656 623 CURVE",
"625 668 OFFCURVE",
"523 720 OFFCURVE",
"456 720 CURVE SMOOTH",
"332 720 OFFCURVE",
"222 651 OFFCURVE",
"166 607 CURVE",
"119 539 OFFCURVE",
"56 331 OFFCURVE",
"56 195 CURVE SMOOTH",
"56 154 OFFCURVE",
"60 121 OFFCURVE",
"73 100 CURVE SMOOTH",
"101 56 OFFCURVE",
"203 0 OFFCURVE",
"273 0 CURVE SMOOTH"
);
},
{
closed = 1;
nodes = (
"258 70 OFFCURVE",
"176 114 OFFCURVE",
"156 143 CURVE",
"152 160 OFFCURVE",
"151 180 OFFCURVE",
"151 198 CURVE SMOOTH",
"151 317 OFFCURVE",
"204 521 OFFCURVE",
"256 611 CURVE",
"297 628 OFFCURVE",
"360 649 OFFCURVE",
"416 649 CURVE SMOOTH",
"475 649 OFFCURVE",
"561 596 OFFCURVE",
"566 579 CURVE",
"568 564 OFFCURVE",
"570 543 OFFCURVE",
"570 525 CURVE SMOOTH",
"570 405 OFFCURVE",
"520 202 OFFCURVE",
"463 117 CURVE",
"440 101 OFFCURVE",
"368 70 OFFCURVE",
"308 70 CURVE SMOOTH"
);
}
);
width = 678;
},
{
anchors = (
{
name = bottom;
position = "{301, 0}";
},
{
name = center;
position = "{351, 352}";
},
{
name = ogonek;
position = "{362, 0}";
},
{
name = top;
position = "{427, 704}";
},
{
name = topleft;
position = "{96, 704}";
},
{
name = topright;
position = "{553, 704}";
}
);
layerId = "BECA3017-CCCA-4A11-8E58-D2E4FEE6FE6A";
paths = (
{
closed = 1;
nodes = (
"371 0 OFFCURVE",
"499 57 OFFCURVE",
"560 106 CURVE",
"626 220 OFFCURVE",
"673 398 OFFCURVE",
"673 520 CURVE SMOOTH",
"673 569 OFFCURVE",
"667 607 OFFCURVE",
"656 634 CURVE",
"631 674 OFFCURVE",
"540 720 OFFCURVE",
"475 720 CURVE SMOOTH",
"378 720 OFFCURVE",
"224 659 OFFCURVE",
"143 597 CURVE",
"88 496 OFFCURVE",
"50 304 OFFCURVE",
"50 223 CURVE SMOOTH",
"50 164 OFFCURVE",
"52 134 OFFCURVE",
"62 112 CURVE",
"80 80 OFFCURVE",
"184 0 OFFCURVE",
"274 0 CURVE SMOOTH"
);
},
{
closed = 1;
nodes = (
"296 90 OFFCURVE",
"223 123 OFFCURVE",
"213 146 CURVE",
"210 164 OFFCURVE",
"208 186 OFFCURVE",
"208 209 CURVE SMOOTH",
"208 322 OFFCURVE",
"257 528 OFFCURVE",
"303 609 CURVE",
"334 617 OFFCURVE",
"390 623 OFFCURVE",
"423 623 CURVE SMOOTH",
"447 623 OFFCURVE",
"507 591 OFFCURVE",
"517 570 CURVE",
"518 561 OFFCURVE",
"518 552 OFFCURVE",
"518 541 CURVE SMOOTH",
"518 423 OFFCURVE",
"464 197 OFFCURVE",
"416 113 CURVE",
"391 98 OFFCURVE",
"337 90 OFFCURVE",
"313 90 CURVE SMOOTH"
);
}
);
width = 677;
},
{
anchors = (
{
name = bottom;
position = "{289, 0}";
},
{
name = center;
position = "{347, 352}";
},
{
name = ogonek;
position = "{357, 0}";
},
{
name = top;
position = "{421, 704}";
},
{
name = topleft;
position = "{110, 704}";
},
{
name = topright;
position = "{515, 704}";
}
);
layerId = "A63AEE66-7D4A-459A-A35B-D6CC97B4CA0F";
paths = (
{
closed = 1;
nodes = (
"374 0 OFFCURVE",
"471 56 OFFCURVE",
"526 100 CURVE",
"586 190 OFFCURVE",
"644 423 OFFCURVE",
"644 546 CURVE SMOOTH",
"644 570 OFFCURVE",
"642 599 OFFCURVE",
"635 621 CURVE",
"609 664 OFFCURVE",
"506 720 OFFCURVE",
"444 720 CURVE SMOOTH",
"344 720 OFFCURVE",
"228 661 OFFCURVE",
"169 621 CURVE",
"116 535 OFFCURVE",
"58 319 OFFCURVE",
"58 199 CURVE SMOOTH",
"58 160 OFFCURVE",
"63 123 OFFCURVE",
"76 96 CURVE",
"101 58 OFFCURVE",
"208 0 OFFCURVE",
"270 0 CURVE SMOOTH"
);
},
{
closed = 1;
nodes = (
"248 56 OFFCURVE",
"158 105 OFFCURVE",
"138 135 CURVE",
"133 151 OFFCURVE",
"131 172 OFFCURVE",
"131 200 CURVE SMOOTH",
"131 322 OFFCURVE",
"185 532 OFFCURVE",
"236 613 CURVE",
"278 635 OFFCURVE",
"361 663 OFFCURVE",
"409 663 CURVE SMOOTH",
"466 663 OFFCURVE",
"554 613 OFFCURVE",
"568 588 CURVE",
"570 575 OFFCURVE",
"570 560 OFFCURVE",
"570 543 CURVE SMOOTH",
"570 421 OFFCURVE",
"518 187 OFFCURVE",
"459 107 CURVE",
"432 89 OFFCURVE",
"356 56 OFFCURVE",
"302 56 CURVE SMOOTH"
);
}
);
width = 656;
},
{
anchors = (
{
name = bottom;
position = "{297, -1}";
},
{
name = center;
position = "{359, 353}";
},
{
name = ogonek;
position = "{359, 0}";
},
{
name = top;
position = "{429, 704}";
},
{
name = topleft;
position = "{112, 704}";
},
{
name = topright;
position = "{534, 704}";
}
);
layerId = "65812DC5-BB64-4CCF-B3BD-7266D8F2F6F4";
paths = (
{
closed = 1;
nodes = (
"390 0 OFFCURVE",
"499 65 OFFCURVE",
"554 111 CURVE",
"604 179 OFFCURVE",
"671 418 OFFCURVE",
"671 541 CURVE SMOOTH",
"671 573 OFFCURVE",
"667 603 OFFCURVE",
"658 623 CURVE",
"626 669 OFFCURVE",
"522 720 OFFCURVE",
"457 720 CURVE SMOOTH",
"334 720 OFFCURVE",
"225 656 OFFCURVE",
"166 612 CURVE",
"119 543 OFFCURVE",
"54 314 OFFCURVE",
"54 195 CURVE SMOOTH",
"54 154 OFFCURVE",
"60 121 OFFCURVE",
"73 100 CURVE SMOOTH",
"101 56 OFFCURVE",
"204 0 OFFCURVE",
"274 0 CURVE SMOOTH"
);
},
{
closed = 1;
nodes = (
"259 70 OFFCURVE",
"176 114 OFFCURVE",
"157 143 CURVE",
"153 157 OFFCURVE",
"152 175 OFFCURVE",
"152 198 CURVE SMOOTH",
"152 317 OFFCURVE",
"204 521 OFFCURVE",
"256 611 CURVE",
"298 628 OFFCURVE",
"360 649 OFFCURVE",
"417 649 CURVE SMOOTH",
"474 649 OFFCURVE",
"562 597 OFFCURVE",
"567 579 CURVE",
"569 564 OFFCURVE",
"571 544 OFFCURVE",
"571 525 CURVE SMOOTH",
"571 404 OFFCURVE",
"520 199 OFFCURVE",
"464 117 CURVE",
"441 101 OFFCURVE",
"370 70 OFFCURVE",
"308 70 CURVE SMOOTH"
);
}
);
width = 679;
},
{
anchors = (
{
name = bottom;
position = "{322, -16}";
},
{
name = center;
position = "{366, 368}";
},
{
name = ogonek;
position = "{382, 0}";
},
{
name = top;
position = "{445, 704}";
},
{
name = topleft;
position = "{101, 704}";
},
{
name = topright;
position = "{575, 704}";
}
);
layerId = "28047205-16CB-4036-948B-FF1CDF00A7B3";
paths = (
{
closed = 1;
nodes = (
"392 0 OFFCURVE",
"524 52 OFFCURVE",
"588 99 CURVE",
"654 215 OFFCURVE",
"702 391 OFFCURVE",
"702 515 CURVE SMOOTH",
"702 565 OFFCURVE",
"696 606 OFFCURVE",
"684 635 CURVE",
"656 676 OFFCURVE",
"559 720 OFFCURVE",
"494 720 CURVE SMOOTH",
"391 720 OFFCURVE",
"233 662 OFFCURVE",
"151 603 CURVE",
"95 500 OFFCURVE",
"56 306 OFFCURVE",
"56 226 CURVE SMOOTH",
"56 162 OFFCURVE",
"60 133 OFFCURVE",
"70 113 CURVE",
"89 81 OFFCURVE",
"199 0 OFFCURVE",
"291 0 CURVE SMOOTH"
);
},
{
closed = 1;
nodes = (
"312 91 OFFCURVE",
"235 124 OFFCURVE",
"224 146 CURVE",
"221 165 OFFCURVE",
"219 189 OFFCURVE",
"219 212 CURVE SMOOTH",
"219 322 OFFCURVE",
"266 525 OFFCURVE",
"315 609 CURVE",
"351 617 OFFCURVE",
"410 621 OFFCURVE",
"441 621 CURVE SMOOTH",
"467 621 OFFCURVE",
"531 590 OFFCURVE",
"541 569 CURVE",
"542 562 OFFCURVE",
"542 552 OFFCURVE",
"542 538 CURVE SMOOTH",
"542 421 OFFCURVE",
"489 197 OFFCURVE",
"440 113 CURVE",
"414 98 OFFCURVE",
"355 91 OFFCURVE",
"331 91 CURVE SMOOTH"
);
}
);
width = 712;
}
);
leftKerningGroup = O;
rightKerningGroup = O;
unicode = 004F;
},
{
color = 3;
glyphname = Oslash;
layers = (
{
anchors = (
{
name = bottom;
position = "{270.405, 0}";
},
{
name = top;
position = "{407.249, 704}";
}
);
components = (
{
name = O;
}
);
layerId = "21A50CEC-A8F8-47E3-8EB4-99CD9DCFA5F3";
paths = (
{
closed = 1;
nodes = (
"606 789 LINE",
"599 800 OFFCURVE",
"587 808 OFFCURVE",
"563 812 CURVE",
"530 750 OFFCURVE",
"459 618 OFFCURVE",
"400 513 CURVE SMOOTH",
"87 -76 LINE",
"93 -82 OFFCURVE",
"105 -89 OFFCURVE",
"122 -89 CURVE"
);
}
);
width = 645;
},
{
anchors = (
{
name = bottom;
position = "{290.405, 0}";
},
{
name = top;
position = "{427.249, 704}";
}
);
components = (
{
name = O;
}
);
layerId = "1A804BEB-C033-4C3E-8D94-4E59A38AB1F5";
paths = (
{
closed = 1;
nodes = (
"624 781 LINE",
"621 792 OFFCURVE",
"602 808 OFFCURVE",
"569 812 CURVE",
"536 750 OFFCURVE",
"465 618 OFFCURVE",
"406 513 CURVE SMOOTH",
"93 -76 LINE",
"100 -84 OFFCURVE",
"119 -95 OFFCURVE",
"144 -95 CURVE"
);
}
);
width = 678;
},
{
anchors = (
{
name = bottom;
position = "{294.405, 0}";
},
{
name = top;
position = "{431.249, 704}";
}
);
components = (
{
name = O;
}
);
layerId = "BECA3017-CCCA-4A11-8E58-D2E4FEE6FE6A";
paths = (
{
closed = 1;
nodes = (
"642 781 LINE",
"631 795 OFFCURVE",
"605 807 OFFCURVE",
"565 812 CURVE",
"533 750 OFFCURVE",
"463 617 OFFCURVE",
"404 513 CURVE SMOOTH",
"91 -76 LINE",
"99 -87 OFFCURVE",
"129 -103 OFFCURVE",
"157 -103 CURVE"
);
}
);
width = 677;
},
{
anchors = (
{
name = bottom;
position = "{270.405, 0}";
},
{
name = top;
position = "{407.249, 704}";
}
);
components = (
{
name = O;
}
);
layerId = "A63AEE66-7D4A-459A-A35B-D6CC97B4CA0F";
paths = (
{
closed = 1;
nodes = (
"606 789 LINE",
"599 800 OFFCURVE",
"587 808 OFFCURVE",
"563 812 CURVE",
"530 750 OFFCURVE",
"459 618 OFFCURVE",
"400 513 CURVE SMOOTH",
"87 -76 LINE",
"93 -82 OFFCURVE",
"105 -89 OFFCURVE",
"122 -89 CURVE"
);
}
);
width = 656;
},
{
anchors = (
{
name = bottom;
position = "{290.405, 0}";
},
{
name = top;
position = "{427.249, 704}";
}
);
components = (
{
name = O;
}
);
layerId = "65812DC5-BB64-4CCF-B3BD-7266D8F2F6F4";
paths = (
{
closed = 1;
nodes = (
"624 781 LINE",
"621 792 OFFCURVE",
"602 808 OFFCURVE",
"569 812 CURVE",
"536 750 OFFCURVE",
"465 618 OFFCURVE",
"406 513 CURVE SMOOTH",
"93 -76 LINE",
"100 -84 OFFCURVE",
"119 -95 OFFCURVE",
"144 -95 CURVE"
);
}
);
width = 679;
},
{
anchors = (
{
name = bottom;
position = "{294.405, 0}";
},
{
name = top;
position = "{431.249, 704}";
}
);
components = (
{
name = O;
}
);
layerId = "28047205-16CB-4036-948B-FF1CDF00A7B3";
paths = (
{
closed = 1;
nodes = (
"642 781 LINE",
"631 795 OFFCURVE",
"605 807 OFFCURVE",
"565 812 CURVE",
"533 750 OFFCURVE",
"463 617 OFFCURVE",
"404 513 CURVE SMOOTH",
"91 -76 LINE",
"99 -87 OFFCURVE",
"129 -103 OFFCURVE",
"157 -103 CURVE"
);
}
);
width = 712;
}
);
leftKerningGroup = O;
leftMetricsKey = O;
rightKerningGroup = O;
rightMetricsKey = O;
unicode = 00D8;
},
{
color = 6;
glyphname = OE;
layers = (
{
anchors = (
{
name = bottom;
position = "{412, 0}";
},
{
name = top;
position = "{549, 704}";
}
);
layerId = "21A50CEC-A8F8-47E3-8EB4-99CD9DCFA5F3";
paths = (
{
closed = 1;
nodes = (
"313 0 OFFCURVE",
"355 8 OFFCURVE",
"397 20 CURVE",
"490 10 OFFCURVE",
"681 0 OFFCURVE",
"751 0 CURVE",
"771 4 OFFCURVE",
"807 22 OFFCURVE",
"826 35 CURVE",
"850 126 OFFCURVE",
"858 165 OFFCURVE",
"863 191 CURVE",
"859 194 OFFCURVE",
"849 200 OFFCURVE",
"836 200 CURVE",
"763 51 LINE",
"483 51 LINE",
"489 58 OFFCURVE",
"499 79 OFFCURVE",
"505 108 CURVE SMOOTH",
"552 347 LINE",
"769 347 LINE",
"774 354 OFFCURVE",
"782 373 OFFCURVE",
"788 390 CURVE",
"784 397 LINE",
"711 390 OFFCURVE",
"668 388 OFFCURVE",
"559 385 CURVE",
"601 597 LINE SMOOTH",
"612 654 OFFCURVE",
"631 668 OFFCURVE",
"674 668 CURVE SMOOTH",
"742 668 OFFCURVE",
"828 662 OFFCURVE",
"876 656 CURVE",
"866 515 LINE",
"870 512 OFFCURVE",
"879 508 OFFCURVE",
"894 508 CURVE",
"908 538 OFFCURVE",
"931 598 OFFCURVE",
"950 668 CURVE",
"938 682 OFFCURVE",
"914 695 OFFCURVE",
"890 704 CURVE",
"552 704 LINE",
"500 713 OFFCURVE",
"465 720 OFFCURVE",
"439 720 CURVE SMOOTH",
"352 720 OFFCURVE",
"231 665 OFFCURVE",
"171 626 CURVE",
"115 532 OFFCURVE",
"61 323 OFFCURVE",
"61 202 CURVE SMOOTH",
"61 163 OFFCURVE",
"66 123 OFFCURVE",
"79 95 CURVE",
"103 58 OFFCURVE",
"211 0 OFFCURVE",
"269 0 CURVE SMOOTH"
);
},
{
closed = 1;
nodes = (
"246 48 OFFCURVE",
"153 98 OFFCURVE",
"131 131 CURVE",
"126 145 OFFCURVE",
"123 167 OFFCURVE",
"123 202 CURVE SMOOTH",
"123 323 OFFCURVE",
"176 541 OFFCURVE",
"226 615 CURVE",
"269 638 OFFCURVE",
"360 670 OFFCURVE",
"407 670 CURVE SMOOTH",
"421 670 OFFCURVE",
"505 657 OFFCURVE",
"553 645 CURVE",
"442 76 LINE",
"392 60 OFFCURVE",
"339 48 OFFCURVE",
"300 48 CURVE SMOOTH"
);
}
);
width = 922;
},
{
anchors = (
{
name = bottom;
position = "{427, 0}";
},
{
name = top;
position = "{564, 704}";
}
);
layerId = "1A804BEB-C033-4C3E-8D94-4E59A38AB1F5";
paths = (
{
closed = 1;
nodes = (
"314 0 OFFCURVE",
"363 13 OFFCURVE",
"407 28 CURVE",
"493 16 OFFCURVE",
"667 0 OFFCURVE",
"761 0 CURVE SMOOTH",
"780 0 OFFCURVE",
"826 27 OFFCURVE",
"846 44 CURVE",
"862 92 OFFCURVE",
"881 165 OFFCURVE",
"892 213 CURVE",
"888 218 OFFCURVE",
"874 228 OFFCURVE",
"851 228 CURVE",
"769 67 LINE",
"506 67 LINE",
"514 76 OFFCURVE",
"529 98 OFFCURVE",
"535 133 CURVE SMOOTH",
"575 336 LINE",
"775 336 LINE",
"781 344 OFFCURVE",
"789 361 OFFCURVE",
"797 392 CURVE",
"790 401 LINE",
"728 394 OFFCURVE",
"669 389 OFFCURVE",
"585 388 CURVE",
"621 576 LINE SMOOTH",
"629 616 OFFCURVE",
"642 656 OFFCURVE",
"695 656 CURVE SMOOTH",
"767 656 OFFCURVE",
"840 646 OFFCURVE",
"874 640 CURVE",
"871 501 LINE",
"875 498 OFFCURVE",
"889 492 OFFCURVE",
"915 492 CURVE",
"928 515 OFFCURVE",
"954 578 OFFCURVE",
"974 652 CURVE",
"958 673 OFFCURVE",
"927 693 OFFCURVE",
"895 704 CURVE",
"528 704 LINE",
"493 714 OFFCURVE",
"464 720 OFFCURVE",
"453 720 CURVE SMOOTH",
"337 720 OFFCURVE",
"223 655 OFFCURVE",
"167 612 CURVE",
"118 539 OFFCURVE",
"55 315 OFFCURVE",
"55 196 CURVE SMOOTH",
"55 149 OFFCURVE",
"61 121 OFFCURVE",
"76 96 CURVE SMOOTH",
"101 56 OFFCURVE",
"207 0 OFFCURVE",
"273 0 CURVE SMOOTH"
);
},
{
closed = 1;
nodes = (
"257 66 OFFCURVE",
"172 111 OFFCURVE",
"152 141 CURVE",
"148 154 OFFCURVE",
"147 173 OFFCURVE",
"147 199 CURVE SMOOTH",
"147 321 OFFCURVE",
"201 528 OFFCURVE",
"251 612 CURVE",
"292 630 OFFCURVE",
"361 653 OFFCURVE",
"414 653 CURVE SMOOTH",
"437 653 OFFCURVE",
"491 633 OFFCURVE",
"549 617 CURVE",
"448 100 LINE",
"411 84 OFFCURVE",
"355 66 OFFCURVE",
"306 66 CURVE SMOOTH"
);
}
);
width = 955;
},
{
anchors = (
{
name = bottom;
position = "{460, 0}";
},
{
name = top;
position = "{597, 704}";
}
);
layerId = "BECA3017-CCCA-4A11-8E58-D2E4FEE6FE6A";
paths = (
{
closed = 1;
nodes = (
"317 0 OFFCURVE",
"361 10 OFFCURVE",
"403 26 CURVE",
"532 12 OFFCURVE",
"759 0 OFFCURVE",
"841 0 CURVE SMOOTH",
"855 0 OFFCURVE",
"897 29 OFFCURVE",
"911 46 CURVE",
"927 86 OFFCURVE",
"954 170 OFFCURVE",
"969 246 CURVE",
"957 254 OFFCURVE",
"926 265 OFFCURVE",
"889 265 CURVE",
"783 82 LINE",
"575 82 LINE",
"585 91 OFFCURVE",
"599 113 OFFCURVE",
"606 150 CURVE SMOOTH",
"641 328 LINE",
"820 328 LINE",
"826 339 OFFCURVE",
"836 364 OFFCURVE",
"844 393 CURVE",
"833 409 LINE",
"777 402 OFFCURVE",
"721 398 OFFCURVE",
"654 396 CURVE",
"686 558 LINE SMOOTH",
"694 599 OFFCURVE",
"708 634 OFFCURVE",
"756 634 CURVE SMOOTH",
"831 634 OFFCURVE",
"882 623 OFFCURVE",
"896 615 CURVE",
"894 469 LINE",
"909 463 OFFCURVE",
"941 455 OFFCURVE",
"972 455 CURVE",
"988 488 OFFCURVE",
"1018 561 OFFCURVE",
"1049 643 CURVE",
"1030 667 OFFCURVE",
"1000 693 OFFCURVE",
"976 704 CURVE",
"569 704 LINE",
"524 713 OFFCURVE",
"493 720 OFFCURVE",
"479 720 CURVE SMOOTH",
"381 720 OFFCURVE",
"225 659 OFFCURVE",
"143 597 CURVE",
"88 496 OFFCURVE",
"50 304 OFFCURVE",
"50 223 CURVE SMOOTH",
"50 164 OFFCURVE",
"52 134 OFFCURVE",
"62 112 CURVE",
"80 80 OFFCURVE",
"186 0 OFFCURVE",
"278 0 CURVE SMOOTH"
);
},
{
closed = 1;
nodes = (
"300 90 OFFCURVE",
"227 123 OFFCURVE",
"217 146 CURVE",
"214 164 OFFCURVE",
"212 186 OFFCURVE",
"212 209 CURVE SMOOTH",
"212 322 OFFCURVE",
"261 528 OFFCURVE",
"307 609 CURVE",
"338 617 OFFCURVE",
"394 623 OFFCURVE",
"427 623 CURVE SMOOTH",
"455 623 OFFCURVE",
"499 603 OFFCURVE",
"534 584 CURVE",
"438 113 LINE",
"398 99 OFFCURVE",
"345 90 OFFCURVE",
"317 90 CURVE SMOOTH"
);
}
);
width = 1018;
},
{
anchors = (
{
name = bottom;
position = "{434, 0}";
},
{
name = top;
position = "{571, 704}";
}
);
layerId = "A63AEE66-7D4A-459A-A35B-D6CC97B4CA0F";
paths = (
{
closed = 1;
nodes = (
"325 0 OFFCURVE",
"371 10 OFFCURVE",
"416 24 CURVE",
"516 12 OFFCURVE",
"707 0 OFFCURVE",
"784 0 CURVE",
"809 3 OFFCURVE",
"850 29 OFFCURVE",
"866 39 CURVE",
"881 92 OFFCURVE",
"897 158 OFFCURVE",
"906 201 CURVE",
"901 206 OFFCURVE",
"890 213 OFFCURVE",
"872 213 CURVE",
"794 58 LINE",
"509 58 LINE",
"517 67 OFFCURVE",
"529 89 OFFCURVE",
"535 119 CURVE SMOOTH",
"580 342 LINE",
"799 342 LINE",
"804 349 OFFCURVE",
"813 370 OFFCURVE",
"819 391 CURVE",
"814 399 LINE",
"740 391 OFFCURVE",
"689 389 OFFCURVE",
"587 387 CURVE",
"627 587 LINE SMOOTH",
"637 637 OFFCURVE",
"655 663 OFFCURVE",
"703 663 CURVE SMOOTH",
"772 663 OFFCURVE",
"857 655 OFFCURVE",
"904 648 CURVE",
"897 508 LINE",
"902 505 OFFCURVE",
"915 501 OFFCURVE",
"933 501 CURVE",
"947 528 OFFCURVE",
"971 588 OFFCURVE",
"991 660 CURVE",
"976 679 OFFCURVE",
"955 691 OFFCURVE",
"921 704 CURVE",
"558 704 LINE",
"512 713 OFFCURVE",
"478 720 OFFCURVE",
"456 720 CURVE SMOOTH",
"355 720 OFFCURVE",
"234 663 OFFCURVE",
"171 622 CURVE",
"116 537 OFFCURVE",
"59 324 OFFCURVE",
"59 202 CURVE SMOOTH",
"59 157 OFFCURVE",
"66 121 OFFCURVE",
"79 97 CURVE",
"105 57 OFFCURVE",
"218 0 OFFCURVE",
"281 0 CURVE SMOOTH"
);
},
{
closed = 1;
nodes = (
"261 57 OFFCURVE",
"165 103 OFFCURVE",
"142 136 CURVE",
"137 150 OFFCURVE",
"134 173 OFFCURVE",
"134 204 CURVE SMOOTH",
"134 327 OFFCURVE",
"190 537 OFFCURVE",
"240 613 CURVE",
"284 634 OFFCURVE",
"368 662 OFFCURVE",
"420 662 CURVE SMOOTH",
"435 662 OFFCURVE",
"512 647 OFFCURVE",
"568 632 CURVE",
"461 87 LINE",
"413 71 OFFCURVE",
"358 57 OFFCURVE",
"313 57 CURVE SMOOTH"
);
}
);
width = 966;
},
{
anchors = (
{
name = bottom;
position = "{448, 0}";
},
{
name = top;
position = "{584, 704}";
}
);
layerId = "65812DC5-BB64-4CCF-B3BD-7266D8F2F6F4";
paths = (
{
closed = 1;
nodes = (
"330 0 OFFCURVE",
"372 12 OFFCURVE",
"422 28 CURVE",
"518 15 OFFCURVE",
"714 0 OFFCURVE",
"797 0 CURVE SMOOTH",
"818 0 OFFCURVE",
"867 29 OFFCURVE",
"887 45 CURVE",
"901 86 OFFCURVE",
"922 161 OFFCURVE",
"933 218 CURVE",
"926 226 OFFCURVE",
"908 234 OFFCURVE",
"886 234 CURVE",
"800 70 LINE",
"532 70 LINE",
"541 79 OFFCURVE",
"555 103 OFFCURVE",
"562 137 CURVE SMOOTH",
"601 335 LINE",
"809 335 LINE",
"815 343 OFFCURVE",
"823 362 OFFCURVE",
"831 393 CURVE",
"824 401 LINE",
"762 395 OFFCURVE",
"697 390 OFFCURVE",
"612 389 CURVE",
"649 572 LINE SMOOTH",
"658 616 OFFCURVE",
"673 652 OFFCURVE",
"724 652 CURVE SMOOTH",
"793 652 OFFCURVE",
"871 643 OFFCURVE",
"908 636 CURVE",
"905 497 LINE",
"909 493 OFFCURVE",
"928 486 OFFCURVE",
"954 486 CURVE",
"968 513 OFFCURVE",
"993 575 OFFCURVE",
"1016 650 CURVE",
"998 671 OFFCURVE",
"965 692 OFFCURVE",
"931 704 CURVE",
"551 704 LINE",
"511 714 OFFCURVE",
"481 720 OFFCURVE",
"468 720 CURVE SMOOTH",
"353 720 OFFCURVE",
"231 655 OFFCURVE",
"166 607 CURVE",
"116 534 OFFCURVE",
"56 317 OFFCURVE",
"56 202 CURVE SMOOTH",
"56 152 OFFCURVE",
"63 121 OFFCURVE",
"77 98 CURVE SMOOTH",
"100 61 OFFCURVE",
"213 0 OFFCURVE",
"285 0 CURVE SMOOTH"
);
},
{
closed = 1;
nodes = (
"272 70 OFFCURVE",
"183 113 OFFCURVE",
"163 142 CURVE",
"158 161 OFFCURVE",
"156 181 OFFCURVE",
"156 203 CURVE SMOOTH",
"156 322 OFFCURVE",
"210 526 OFFCURVE",
"262 611 CURVE",
"305 628 OFFCURVE",
"372 648 OFFCURVE",
"427 648 CURVE SMOOTH",
"451 648 OFFCURVE",
"506 629 OFFCURVE",
"565 611 CURVE",
"464 103 LINE",
"421 86 OFFCURVE",
"365 70 OFFCURVE",
"319 70 CURVE SMOOTH"
);
}
);
width = 995;
},
{
anchors = (
{
name = bottom;
position = "{484, 0}";
},
{
name = top;
position = "{621, 704}";
}
);
layerId = "28047205-16CB-4036-948B-FF1CDF00A7B3";
paths = (
{
closed = 1;
nodes = (
"333 0 OFFCURVE",
"379 9 OFFCURVE",
"426 26 CURVE",
"557 12 OFFCURVE",
"787 0 OFFCURVE",
"873 0 CURVE SMOOTH",
"894 0 OFFCURVE",
"932 29 OFFCURVE",
"946 46 CURVE",
"963 86 OFFCURVE",
"990 175 OFFCURVE",
"1005 248 CURVE",
"994 255 OFFCURVE",
"963 267 OFFCURVE",
"925 267 CURVE",
"810 83 LINE",
"599 83 LINE",
"609 91 OFFCURVE",
"624 114 OFFCURVE",
"631 151 CURVE SMOOTH",
"666 328 LINE",
"858 328 LINE",
"864 339 OFFCURVE",
"873 361 OFFCURVE",
"882 393 CURVE",
"871 409 LINE",
"809 402 OFFCURVE",
"758 399 OFFCURVE",
"679 396 CURVE",
"711 557 LINE SMOOTH",
"719 596 OFFCURVE",
"731 633 OFFCURVE",
"783 633 CURVE SMOOTH",
"860 633 OFFCURVE",
"915 622 OFFCURVE",
"930 614 CURVE",
"929 467 LINE",
"945 461 OFFCURVE",
"977 453 OFFCURVE",
"1007 453 CURVE",
"1027 494 OFFCURVE",
"1047 552 OFFCURVE",
"1077 642 CURVE",
"1058 667 OFFCURVE",
"1034 693 OFFCURVE",
"1011 704 CURVE",
"591 704 LINE",
"544 713 OFFCURVE",
"513 720 OFFCURVE",
"498 720 CURVE SMOOTH",
"393 720 OFFCURVE",
"231 657 OFFCURVE",
"150 596 CURVE",
"95 495 OFFCURVE",
"56 307 OFFCURVE",
"56 226 CURVE SMOOTH",
"56 162 OFFCURVE",
"60 133 OFFCURVE",
"70 113 CURVE",
"89 81 OFFCURVE",
"200 0 OFFCURVE",
"295 0 CURVE SMOOTH"
);
},
{
closed = 1;
nodes = (
"315 91 OFFCURVE",
"240 124 OFFCURVE",
"229 146 CURVE",
"226 162 OFFCURVE",
"223 185 OFFCURVE",
"223 212 CURVE SMOOTH",
"223 324 OFFCURVE",
"272 529 OFFCURVE",
"319 609 CURVE",
"350 616 OFFCURVE",
"408 622 OFFCURVE",
"445 622 CURVE SMOOTH",
"475 622 OFFCURVE",
"520 601 OFFCURVE",
"558 582 CURVE",
"461 114 LINE",
"420 100 OFFCURVE",
"366 91 OFFCURVE",
"335 91 CURVE SMOOTH"
);
}
);
width = 1058;
}
);
leftKerningGroup = O;
leftMetricsKey = O;
rightKerningGroup = E;
rightMetricsKey = E;
unicode = 0152;
},
{
color = 6;
glyphname = P;
layers = (
{
anchors = (
{
name = bottom;
position = "{220, 0}";
},
{
name = top;
position = "{357, 704}";
}
);
layerId = "21A50CEC-A8F8-47E3-8EB4-99CD9DCFA5F3";
paths = (
{
closed = 1;
nodes = (
"144 0 OFFCURVE",
"174 9 OFFCURVE",
"199 24 CURVE",
"199 28 OFFCURVE",
"199 39 OFFCURVE",
"196 42 CURVE",
"116 50 LINE",
"122 57 OFFCURVE",
"131 77 OFFCURVE",
"138 107 CURVE SMOOTH",
"178 308 LINE",
"357 308 LINE SMOOTH",
"393 308 OFFCURVE",
"446 339 OFFCURVE",
"471 359 CURVE",
"513 398 OFFCURVE",
"554 519 OFFCURVE",
"554 603 CURVE SMOOTH",
"554 621 OFFCURVE",
"552 641 OFFCURVE",
"547 656 CURVE",
"527 674 OFFCURVE",
"487 697 OFFCURVE",
"458 704 CURVE",
"181 704 LINE SMOOTH",
"171 704 OFFCURVE",
"135 689 OFFCURVE",
"125 681 CURVE",
"125 673 OFFCURVE",
"127 667 OFFCURVE",
"129 664 CURVE",
"204 664 LINE",
"197 656 OFFCURVE",
"184 632 OFFCURVE",
"177 593 CURVE SMOOTH",
"85 121 LINE SMOOTH",
"73 59 OFFCURVE",
"56 50 OFFCURVE",
"31 46 CURVE SMOOTH",
"7 42 LINE",
"1 37 OFFCURVE",
"-2 30 OFFCURVE",
"-4 24 CURVE",
"22 15 OFFCURVE",
"104 0 OFFCURVE",
"124 0 CURVE SMOOTH"
);
},
{
closed = 1;
nodes = (
"235 597 LINE SMOOTH",
"245 649 OFFCURVE",
"263 668 OFFCURVE",
"310 668 CURVE SMOOTH",
"361 668 OFFCURVE",
"429 663 OFFCURVE",
"479 655 CURVE",
"488 640 OFFCURVE",
"492 616 OFFCURVE",
"492 591 CURVE SMOOTH",
"492 512 OFFCURVE",
"453 402 OFFCURVE",
"411 359 CURVE",
"347 348 OFFCURVE",
"285 347 OFFCURVE",
"185 345 CURVE"
);
}
);
width = 537;
},
{
anchors = (
{
name = bottom;
position = "{224, 0}";
},
{
name = top;
position = "{361, 704}";
}
);
layerId = "1A804BEB-C033-4C3E-8D94-4E59A38AB1F5";
paths = (
{
closed = 1;
nodes = (
"200 0 OFFCURVE",
"237 16 OFFCURVE",
"259 34 CURVE",
"262 45 OFFCURVE",
"259 55 OFFCURVE",
"257 57 CURVE",
"154 68 LINE",
"163 78 OFFCURVE",
"177 102 OFFCURVE",
"184 136 CURVE SMOOTH",
"215 294 LINE",
"351 294 LINE",
"424 303 OFFCURVE",
"487 339 OFFCURVE",
"512 360 CURVE",
"552 390 OFFCURVE",
"597 523 OFFCURVE",
"597 597 CURVE SMOOTH",
"597 606 OFFCURVE",
"596 613 OFFCURVE",
"595 621 CURVE",
"570 658 OFFCURVE",
"530 689 OFFCURVE",
"481 704 CURVE",
"180 704 LINE SMOOTH",
"168 704 OFFCURVE",
"127 685 OFFCURVE",
"113 671 CURVE",
"113 662 OFFCURVE",
"118 655 OFFCURVE",
"121 652 CURVE",
"218 652 LINE",
"210 646 OFFCURVE",
"194 621 OFFCURVE",
"184 570 CURVE SMOOTH",
"105 165 LINE SMOOTH",
"91 92 OFFCURVE",
"81 70 OFFCURVE",
"35 63 CURVE SMOOTH",
"5 59 LINE",
"0 55 OFFCURVE",
"-8 44 OFFCURVE",
"-10 34 CURVE",
"16 24 OFFCURVE",
"150 0 OFFCURVE",
"174 0 CURVE SMOOTH"
);
},
{
closed = 1;
nodes = (
"269 571 LINE SMOOTH",
"278 619 OFFCURVE",
"307 653 OFFCURVE",
"352 653 CURVE SMOOTH",
"401 653 OFFCURVE",
"461 646 OFFCURVE",
"490 632 CURVE",
"499 621 OFFCURVE",
"503 601 OFFCURVE",
"503 579 CURVE SMOOTH",
"503 512 OFFCURVE",
"468 405 OFFCURVE",
"429 364 CURVE",
"382 358 OFFCURVE",
"320 351 OFFCURVE",
"227 351 CURVE"
);
}
);
width = 563;
},
{
anchors = (
{
name = bottom;
position = "{259, 0}";
},
{
name = top;
position = "{396, 704}";
}
);
layerId = "BECA3017-CCCA-4A11-8E58-D2E4FEE6FE6A";
paths = (
{
closed = 1;
nodes = (
"248 0 OFFCURVE",
"294 17 OFFCURVE",
"317 35 CURVE",
"320 50 OFFCURVE",
"317 63 OFFCURVE",
"315 68 CURVE",
"214 82 LINE",
"224 91 OFFCURVE",
"238 116 OFFCURVE",
"245 150 CURVE SMOOTH",
"272 288 LINE",
"416 288 LINE",
"475 295 OFFCURVE",
"553 345 OFFCURVE",
"592 376 CURVE",
"624 410 OFFCURVE",
"661 525 OFFCURVE",
"661 587 CURVE SMOOTH",
"661 601 OFFCURVE",
"659 616 OFFCURVE",
"654 628 CURVE",
"635 656 OFFCURVE",
"573 693 OFFCURVE",
"529 704 CURVE",
"174 704 LINE SMOOTH",
"163 704 OFFCURVE",
"120 685 OFFCURVE",
"107 671 CURVE",
"105 656 OFFCURVE",
"109 644 OFFCURVE",
"112 638 CURVE",
"204 638 LINE",
"202 636 OFFCURVE",
"183 622 OFFCURVE",
"171 559 CURVE SMOOTH",
"97 178 LINE SMOOTH",
"83 106 OFFCURVE",
"66 79 OFFCURVE",
"30 74 CURVE SMOOTH",
"0 70 LINE",
"-5 64 OFFCURVE",
"-12 51 OFFCURVE",
"-16 35 CURVE",
"10 25 OFFCURVE",
"198 0 OFFCURVE",
"222 0 CURVE SMOOTH"
);
},
{
closed = 1;
nodes = (
"325 560 LINE SMOOTH",
"333 603 OFFCURVE",
"350 634 OFFCURVE",
"396 634 CURVE SMOOTH",
"410 634 OFFCURVE",
"473 628 OFFCURVE",
"497 617 CURVE",
"506 604 OFFCURVE",
"510 585 OFFCURVE",
"510 565 CURVE SMOOTH",
"510 514 OFFCURVE",
"480 412 OFFCURVE",
"452 367 CURVE",
"412 358 OFFCURVE",
"346 356 OFFCURVE",
"285 356 CURVE"
);
}
);
width = 615;
},
{
anchors = (
{
name = bottom;
position = "{229, 0}";
},
{
name = top;
position = "{366, 704}";
}
);
layerId = "A63AEE66-7D4A-459A-A35B-D6CC97B4CA0F";
paths = (
{
closed = 1;
nodes = (
"164 0 OFFCURVE",
"199 11 OFFCURVE",
"224 28 CURVE",
"225 35 OFFCURVE",
"224 44 OFFCURVE",
"221 47 CURVE",
"131 57 LINE",
"138 65 OFFCURVE",
"150 86 OFFCURVE",
"157 118 CURVE SMOOTH",
"194 305 LINE",
"366 305 LINE SMOOTH",
"413 305 OFFCURVE",
"470 334 OFFCURVE",
"499 354 CURVE",
"541 390 OFFCURVE",
"585 517 OFFCURVE",
"585 599 CURVE SMOOTH",
"585 614 OFFCURVE",
"582 630 OFFCURVE",
"577 642 CURVE",
"556 668 OFFCURVE",
"511 694 OFFCURVE",
"477 704 CURVE",
"182 704 LINE SMOOTH",
"170 704 OFFCURVE",
"132 687 OFFCURVE",
"120 677 CURVE",
"120 670 OFFCURVE",
"122 664 OFFCURVE",
"126 659 CURVE",
"211 659 LINE",
"204 653 OFFCURVE",
"190 628 OFFCURVE",
"181 584 CURVE SMOOTH",
"93 138 LINE SMOOTH",
"78 60 OFFCURVE",
"57 57 OFFCURVE",
"32 53 CURVE SMOOTH",
"6 49 LINE",
"1 45 OFFCURVE",
"-5 35 OFFCURVE",
"-7 28 CURVE",
"20 18 OFFCURVE",
"125 0 OFFCURVE",
"143 0 CURVE SMOOTH"
);
},
{
closed = 1;
nodes = (
"249 587 LINE SMOOTH",
"259 635 OFFCURVE",
"277 663 OFFCURVE",
"329 663 CURVE SMOOTH",
"386 663 OFFCURVE",
"452 656 OFFCURVE",
"496 647 CURVE",
"506 631 OFFCURVE",
"510 608 OFFCURVE",
"510 584 CURVE SMOOTH",
"510 512 OFFCURVE",
"472 403 OFFCURVE",
"430 361 CURVE",
"366 355 OFFCURVE",
"308 354 OFFCURVE",
"202 353 CURVE"
);
}
);
width = 569;
},
{
anchors = (
{
name = bottom;
position = "{238, 0}";
},
{
name = top;
position = "{375, 704}";
}
);
layerId = "65812DC5-BB64-4CCF-B3BD-7266D8F2F6F4";
paths = (
{
closed = 1;
nodes = (
"209 0 OFFCURVE",
"248 17 OFFCURVE",
"270 34 CURVE",
"272 46 OFFCURVE",
"270 55 OFFCURVE",
"268 59 CURVE",
"163 70 LINE",
"171 78 OFFCURVE",
"187 98 OFFCURVE",
"195 138 CURVE SMOOTH",
"225 293 LINE",
"373 293 LINE",
"440 301 OFFCURVE",
"502 333 OFFCURVE",
"536 357 CURVE",
"576 388 OFFCURVE",
"620 520 OFFCURVE",
"620 594 CURVE SMOOTH",
"620 602 OFFCURVE",
"619 613 OFFCURVE",
"616 621 CURVE",
"592 658 OFFCURVE",
"544 689 OFFCURVE",
"499 704 CURVE",
"181 704 LINE SMOOTH",
"168 704 OFFCURVE",
"127 685 OFFCURVE",
"113 671 CURVE",
"113 662 OFFCURVE",
"116 655 OFFCURVE",
"120 650 CURVE",
"218 650 LINE",
"212 646 OFFCURVE",
"195 625 OFFCURVE",
"184 568 CURVE SMOOTH",
"104 167 LINE SMOOTH",
"88 87 OFFCURVE",
"77 71 OFFCURVE",
"34 65 CURVE SMOOTH",
"4 61 LINE",
"3 60 OFFCURVE",
"-8 48 OFFCURVE",
"-11 34 CURVE",
"16 24 OFFCURVE",
"159 0 OFFCURVE",
"182 0 CURVE SMOOTH"
);
},
{
closed = 1;
nodes = (
"279 569 LINE SMOOTH",
"289 619 OFFCURVE",
"318 650 OFFCURVE",
"362 650 CURVE SMOOTH",
"411 650 OFFCURVE",
"472 643 OFFCURVE",
"504 630 CURVE",
"514 618 OFFCURVE",
"518 596 OFFCURVE",
"518 575 CURVE SMOOTH",
"518 512 OFFCURVE",
"483 406 OFFCURVE",
"444 364 CURVE",
"394 361 OFFCURVE",
"324 357 OFFCURVE",
"236 357 CURVE"
);
}
);
width = 592;
},
{
anchors = (
{
name = bottom;
position = "{274, 0}";
},
{
name = top;
position = "{411, 704}";
}
);
layerId = "28047205-16CB-4036-948B-FF1CDF00A7B3";
paths = (
{
closed = 1;
nodes = (
"263 0 OFFCURVE",
"311 17 OFFCURVE",
"334 35 CURVE",
"337 50 OFFCURVE",
"334 62 OFFCURVE",
"332 69 CURVE",
"226 83 LINE",
"237 92 OFFCURVE",
"251 114 OFFCURVE",
"258 151 CURVE SMOOTH",
"285 288 LINE",
"435 288 LINE",
"500 294 OFFCURVE",
"581 344 OFFCURVE",
"617 370 CURVE",
"651 406 OFFCURVE",
"688 523 OFFCURVE",
"688 585 CURVE SMOOTH",
"688 601 OFFCURVE",
"685 617 OFFCURVE",
"680 628 CURVE",
"661 655 OFFCURVE",
"596 693 OFFCURVE",
"550 704 CURVE",
"182 704 LINE SMOOTH",
"171 704 OFFCURVE",
"125 685 OFFCURVE",
"112 671 CURVE",
"110 656 OFFCURVE",
"114 643 OFFCURVE",
"118 637 CURVE",
"214 637 LINE",
"212 635 OFFCURVE",
"193 623 OFFCURVE",
"180 558 CURVE SMOOTH",
"106 179 LINE SMOOTH",
"92 107 OFFCURVE",
"73 80 OFFCURVE",
"37 75 CURVE SMOOTH",
"5 71 LINE",
"0 65 OFFCURVE",
"-8 50 OFFCURVE",
"-11 35 CURVE",
"16 25 OFFCURVE",
"212 0 OFFCURVE",
"236 0 CURVE SMOOTH"
);
},
{
closed = 1;
nodes = (
"338 559 LINE SMOOTH",
"346 597 OFFCURVE",
"362 633 OFFCURVE",
"412 633 CURVE SMOOTH",
"428 633 OFFCURVE",
"493 627 OFFCURVE",
"518 616 CURVE",
"528 603 OFFCURVE",
"532 582 OFFCURVE",
"532 563 CURVE SMOOTH",
"532 514 OFFCURVE",
"502 412 OFFCURVE",
"473 367 CURVE",
"431 363 OFFCURVE",
"359 362 OFFCURVE",
"298 362 CURVE"
);
}
);
width = 647;
}
);
leftKerningGroup = H;
leftMetricsKey = H;
rightKerningGroup = P;
unicode = 0050;
},
